<svg xmlns="http://www.w3.org/2000/svg" data-name="Layer 1" viewBox="0 0 1080 1080"><path fill="#9dbdff" d="M997.5,842.1H83.3c-7.9-13.8,8.4-33.6,23.7-38.1s31.8-1.6,47.3-5.2c30.1-7,50.1-37.4,54.7-67.9s-3.3-61.4-11.3-91.3-16.1-60.5-12.4-91.1c7.5-62.5,71.6-112.4,134.1-104.3,56.2,7.3,99.1,52.2,135.7,95.4s76,90,131,103.6c47.8,11.7,97.8-4.2,147-2.6,59.8,2.1,118.1,32,154.8,79.3,21.1,27.4,38.1,62.3,70.8,73.3,14.3,4.8,30.5,4.6,42.8,13.2S1012.5,842.1,997.5,842.1Z" class="color85e5b0 svgShape"/><rect width="11.4" height="108.67" x="861.7" y="675" fill="#fff" class="colorffffff svgShape"/><path d="M873.1,784.7H861.7a1.1,1.1,0,0,1-1.1-1V675a1,1,0,0,1,1.1-1h11.4a1,1,0,0,1,1,1V783.7A1.1,1.1,0,0,1,873.1,784.7Zm-10.4-2.1H872V676h-9.3Z" class="color000000 svgShape"/><path d="M919.2,614.4c0,56-23.2,64-51.8,64s-51.8-8-51.8-64,23.2-138.6,51.8-138.6S919.2,558.5,919.2,614.4Z" class="color000000 svgShape"/><path d="M867.4,679.4c-12.7,0-27-1.3-37.4-11.3s-15.5-27.5-15.5-53.7c0-28.1,5.9-62.9,15.3-90.6,6.2-18.3,19.3-49,37.6-49s31.4,30.7,37.6,49c9.4,27.7,15.2,62.5,15.2,90.6,0,26.2-5.1,43.7-15.5,53.7S880,679.4,867.4,679.4Zm0-202.6c-12.4,0-25.4,17.4-35.7,47.7-9.3,27.5-15.1,62-15.1,89.9,0,25.6,4.9,42.7,14.8,52.3s23.7,10.7,36,10.7,26-1.3,35.9-10.7,14.8-26.7,14.8-52.3c0-27.9-5.8-62.4-15.1-89.9C892.8,494.2,879.8,476.8,867.4,476.8Z" class="color000000 svgShape"/><path fill="#fff" d="M867.4,673.7a1.1,1.1,0,0,1-1.1-1V564.5a1,1,0,0,1,1.1-1,1,1,0,0,1,1,1V672.7A1.1,1.1,0,0,1,867.4,673.7Z" class="colorffffff svgShape"/><path fill="#fff" d="M867.4,606.9a.9.9,0,0,1-.7-.3l-13.6-12.1a1.2,1.2,0,0,1-.1-1.5,1.1,1.1,0,0,1,1.5-.1l13.6,12.2a1.1,1.1,0,0,1-.7,1.8Z" class="colorffffff svgShape"/><path fill="#fff" d="M867.4,632.4a1.2,1.2,0,0,1-.8-.4,1,1,0,0,1,.1-1.4l24.2-20.9a1.1,1.1,0,0,1,1.4.1,1,1,0,0,1-.1,1.5L868,632.1A.9.9,0,0,1,867.4,632.4Z" class="colorffffff svgShape"/><path fill="#fff" d="M867.4,662.8c-.2,0-.5,0-.6-.2l-29.1-21a1.1,1.1,0,0,1-.2-1.4,1.1,1.1,0,0,1,1.5-.3L868,661a1.1,1.1,0,0,1,.2,1.4A.9.9,0,0,1,867.4,662.8Z" class="colorffffff svgShape"/><rect width="8.7" height="82.9" x="948.4" y="720.9" fill="#fff" class="colorffffff svgShape"/><path d="M957.1,804.8h-8.7a.9.9,0,0,1-1-1V720.9a1,1,0,0,1,1-1.1h8.7a1.1,1.1,0,0,1,1,1.1v82.9A1,1,0,0,1,957.1,804.8Zm-7.7-2.1H956V721.9h-6.6Z" class="color000000 svgShape"/><path d="M992.3,674.7c0,42.7-17.7,48.8-39.6,48.8s-39.5-6.1-39.5-48.8,17.7-105.8,39.5-105.8S992.3,632,992.3,674.7Z" class="color000000 svgShape"/><path d="M952.7,724.5c-24.3,0-40.5-8.5-40.5-49.8s17.4-106.8,40.5-106.8,40.6,64.8,40.6,106.8S977.1,724.5,952.7,724.5Zm0-154.5c-9.3,0-19.1,13.1-26.9,36.1-7.1,21-11.6,47.3-11.6,68.6,0,39.8,14.8,47.7,38.5,47.7s38.5-7.9,38.5-47.7c0-21.3-4.4-47.6-11.5-68.6C971.9,583.1,962.1,570,952.7,570Z" class="color000000 svgShape"/><path fill="#fff" d="M952.7,720.1a1,1,0,0,1-1-1V636.6a1.1,1.1,0,0,1,1-1.1,1.1,1.1,0,0,1,1.1,1.1v82.5A1,1,0,0,1,952.7,720.1Z" class="colorffffff svgShape"/><path fill="#fff" d="M952.7,669.2a1.1,1.1,0,0,1-.7-.3l-10.3-9.3a1,1,0,0,1-.1-1.4,1,1,0,0,1,1.5-.1l10.3,9.3a1,1,0,0,1,.1,1.4A.9.9,0,0,1,952.7,669.2Z" class="colorffffff svgShape"/><path fill="#fff" d="M952.7,688.6a1,1,0,0,1-.8-.4,1,1,0,0,1,.2-1.4l18.4-15.9a1.1,1.1,0,0,1,1.5.1,1.2,1.2,0,0,1-.1,1.5l-18.5,15.9Z" class="colorffffff svgShape"/><path fill="#fff" d="M952.7,711.8h-.6L930,695.6a.9.9,0,0,1-.2-1.4,1,1,0,0,1,1.4-.3L953.3,710a1,1,0,0,1,.3,1.4A1,1,0,0,1,952.7,711.8Z" class="colorffffff svgShape"/><path fill="#fff" d="M190.2,842.1s327.4-145.8,459-152.2,378.9,152.2,378.9,152.2Z" class="colorffffff svgShape"/><path d="M1028.1,843.1H190.2a1,1,0,0,1-1-.8.9.9,0,0,1,.6-1.1c.8-.4,83-36.9,180.2-73.8,57.1-21.6,108.1-39.1,151.6-52,54.5-16.1,97.4-25,127.5-26.5S718,694.5,764.2,710c37,12.4,78.8,30.1,124.2,52.7,77.5,38.4,139.7,78.1,140.3,78.5a1.1,1.1,0,0,1,.4,1.2A1,1,0,0,1,1028.1,843.1Zm-833-2h829.4c-13.3-8.4-69.3-43-137-76.6C816.2,729.1,717,687.7,649.2,691s-188.9,44.4-278.5,78.4C286.5,801.3,213.6,833,195.1,841.1Z" class="color000000 svgShape"/><rect width="321.8" height="21.38" x="706.3" y="662.1" fill="#fff" class="colorffffff svgShape"/><path d="M1028.1,684.6H706.3a1,1,0,0,1-1-1.1V662.1a1,1,0,0,1,1-1h321.8a1,1,0,0,1,1,1v21.4A1,1,0,0,1,1028.1,684.6Zm-320.8-2.1h319.8V663.2H707.3Z" class="color000000 svgShape"/><rect width="321.8" height="21.38" x="706.3" y="714.7" fill="#fff" class="colorffffff svgShape"/><path d="M1028.1,737.1H706.3a.9.9,0,0,1-1-1V714.7a.9.9,0,0,1,1-1h321.8a.9.9,0,0,1,1,1v21.4A.9.9,0,0,1,1028.1,737.1Zm-320.8-2h319.8V715.7H707.3Z" class="color000000 svgShape"/><rect width="21.6" height="197.78" x="963.8" y="644.3" fill="#fff" class="colorffffff svgShape"/><path d="M985.4,843.1H963.8a.9.9,0,0,1-1-1V644.3a1,1,0,0,1,1-1h21.6a1.1,1.1,0,0,1,1,1V842.1A1,1,0,0,1,985.4,843.1Zm-20.6-2h19.5V645.4H964.8Z" class="color000000 svgShape"/><circle cx="974.6" cy="672.8" r="4" fill="#fff" class="colorffffff svgShape"/><path d="M974.6,677.8a5,5,0,0,1-5-5,5,5,0,0,1,5-5,5.1,5.1,0,0,1,5,5A5,5,0,0,1,974.6,677.8Zm0-7.9a3,3,0,1,0,0,5.9,3,3,0,0,0,0-5.9Z" class="color000000 svgShape"/><circle cx="974.6" cy="725.4" r="4" fill="#fff" class="colorffffff svgShape"/><path d="M974.6,730.4a5,5,0,0,1,0-10,5,5,0,0,1,0,10Zm0-7.9a2.9,2.9,0,1,0,0,5.8,2.9,2.9,0,0,0,0-5.8Z" class="color000000 svgShape"/><rect width="21.6" height="197.78" x="753.3" y="644.3" fill="#fff" class="colorffffff svgShape"/><path d="M774.9,843.1H753.3a1,1,0,0,1-1-1V644.3a1.1,1.1,0,0,1,1-1h21.6a1,1,0,0,1,1,1V842.1A.9.9,0,0,1,774.9,843.1Zm-20.5-2h19.5V645.4H754.4Z" class="color000000 svgShape"/><circle cx="764.1" cy="672.8" r="4" fill="#fff" class="colorffffff svgShape"/><path d="M764.1,677.8a5,5,0,0,1-5-5,5.1,5.1,0,0,1,5-5,5,5,0,0,1,5,5A5,5,0,0,1,764.1,677.8Zm0-7.9a3,3,0,0,0,0,5.9,3,3,0,1,0,0-5.9Z" class="color000000 svgShape"/><circle cx="764.1" cy="725.4" r="4" fill="#fff" class="colorffffff svgShape"/><path d="M764.1,730.4a5,5,0,0,1,0-10,5,5,0,0,1,0,10Zm0-7.9a2.9,2.9,0,0,0,0,5.8,2.9,2.9,0,1,0,0-5.8Z" class="color000000 svgShape"/><path d="M58.1,842.1s23.4-29.9,47.3-30.2,38.7,30.2,38.7,30.2Z" class="color000000 svgShape"/><path d="M144.1,843.1h-86a1.1,1.1,0,0,1-.9-.5,1.1,1.1,0,0,1,.1-1.1c1-1.3,23.9-30.3,48.1-30.7,10.1-.1,20.2,5.2,29.1,15.4a77.4,77.4,0,0,1,10.6,15.5,1.2,1.2,0,0,1-.1,1A1,1,0,0,1,144.1,843.1Zm-83.8-2h82.1c-3.3-6-16.8-28.2-36.6-28.2h-.4C85.5,813.2,65.6,834.8,60.3,841.1Z" class="color000000 svgShape"/><path d="M1038.4,843.7H41.6a1.6,1.6,0,0,1-1.6-1.6,1.5,1.5,0,0,1,1.6-1.5h996.8a1.5,1.5,0,0,1,1.6,1.5A1.6,1.6,0,0,1,1038.4,843.7Z" class="color000000 svgShape"/><path d="M576.8,789.2a1,1,0,0,1-1-.9.9.9,0,0,1,.9-1.1l134.6-17.7a1,1,0,0,1,1.2.9.9.9,0,0,1-.9,1.1L576.9,789.2Z" class="color000000 svgShape"/><path d="M706.3,703.8H568.8a1,1,0,0,1-1-1,1,1,0,0,1,1-1.1H706.3a1,1,0,0,1,1,1.1A1,1,0,0,1,706.3,703.8Z" class="color000000 svgShape"/><polygon fill="#fff" points="724.5 723.2 720.8 759.6 709 755.8 711.5 723.2 724.5 723.2" class="colorffffff svgShape"/><path d="M720.8,760.6h-.3l-11.8-3.8a.9.9,0,0,1-.7-1l2.4-32.7a1.1,1.1,0,0,1,1.1-1h13a.9.9,0,0,1,.8.4,1.1,1.1,0,0,1,.2.8l-3.7,36.4a1.2,1.2,0,0,1-.4.8Zm-10.7-5.5,9.8,3.1,3.4-34H712.4Z" class="color000000 svgShape"/><path fill="#fff" d="M506.3,493.9s-54.6,21.1-33.5,52.6S581.1,662.1,581.1,662.1l17.5-54.8s-63.9-60.9-82.7-68.6l17.1-3.3Z" class="colorffffff svgShape"/><path d="M581.1,663.2a1.1,1.1,0,0,1-.7-.3c-.8-.9-87.5-84.7-108.4-115.9-4.9-7.3-6.3-14.7-4-21.9,6.2-19.7,36.6-31.7,37.9-32.2a1,1,0,0,1,1.2.4l26.8,41.5a1.2,1.2,0,0,1,.1,1,1,1,0,0,1-.8.6l-14,2.7c21.4,11.6,77.7,65.1,80.2,67.5a1.4,1.4,0,0,1,.2,1.1l-17.5,54.8a.9.9,0,0,1-.7.6ZM505.9,495.1c-4.9,2.1-30.5,13.5-35.9,30.6-2.1,6.6-.9,13.4,3.7,20.2,19.5,29,96.4,104.1,107,114.3l16.8-52.5c-5.9-5.6-64.4-60.8-82-68a1.1,1.1,0,0,1-.6-1.1,1,1,0,0,1,.8-.9l15.6-3Z" class="color000000 svgShape"/><path fill="#fff" d="M457.8,457.7l-37,53.4h-4.7s5.6,9.3,0,15.4c0,0-.9,5.9,4.7,7.4s19.6-8,21.8-13.4,18.9-40.9,19.2-41.9,8.3-21.4,8.3-21.4-4.4-2-3.9-3.6S471.7,448.6,457.8,457.7Z" class="colorffffff svgShape"/><path d="M422,535.1l-1.5-.2c-5.1-1.3-5.8-6.1-5.5-8.5l.3-.6c5.1-5.4-.1-14.1-.1-14.2a.9.9,0,0,1,0-1,.9.9,0,0,1,.9-.6h4.2L457,457.1l.3-.2,7.6-5c2-1.2,2.6-1.6,3.3-.9s0,1.5-.4,2a2.4,2.4,0,0,0-.6.9c0,.4,1.7,1.6,3.4,2.4a1,1,0,0,1,.5,1.3c-3.2,8.1-8.1,20.4-8.3,21.3s-1.7,3.9-7.5,16.3c-4.9,10.6-10.5,22.6-11.7,25.6C441.3,526.4,428.6,535.1,422,535.1Zm-4.9-8.1c-.1,1.1,0,4.9,4,5.9s18.5-7.7,20.5-12.8c1.3-3.1,6.9-15.2,11.8-25.8,3.5-7.5,7.2-15.3,7.4-16s6.1-15.8,8-20.6c-1.4-.7-3.4-2-3.6-3.5l-6.6,4.3-36.9,53.2a1.3,1.3,0,0,1-.9.4h-3C419.2,515.1,421.5,521.9,417.1,527Z" class="color000000 svgShape"/><path d="M350.6,595.1A124.4,124.4,0,1,0,475,719.5,124.5,124.5,0,0,0,350.6,595.1Zm0,233.5A109.1,109.1,0,1,1,459.7,719.5,109.1,109.1,0,0,1,350.6,828.6Z" class="color000000 svgShape"/><path d="M350.6,845a125.5,125.5,0,1,1,88.7-36.8A124.7,124.7,0,0,1,350.6,845Zm0-248.8c-68.1,0-123.4,55.3-123.4,123.3A123.5,123.5,0,0,0,350.6,842.9c68,0,123.3-55.3,123.3-123.4A123.4,123.4,0,0,0,350.6,596.2Zm0,233.5A110.2,110.2,0,1,1,460.7,719.5,109.4,109.4,0,0,1,350.6,829.7Zm0-218.3a108.1,108.1,0,1,0,108,108.1A108.2,108.2,0,0,0,350.6,611.4Z" class="color000000 svgShape"/><path fill="#fff" stroke="#7695ff" stroke-linecap="round" stroke-linejoin="round" stroke-width="2.07" d="M350.6,610.4A109.1,109.1,0,1,0,459.7,719.5,109.2,109.2,0,0,0,350.6,610.4Zm0,211.5A102.4,102.4,0,1,1,453,719.5,102.3,102.3,0,0,1,350.6,821.9Z" class="colorffffff svgShape colorStroke000000 svgStroke"/><circle cx="350.6" cy="719.5" r="13.3" class="color000000 svgShape"/><path d="M350.6,733.8a14.3,14.3,0,1,1,14.3-14.3A14.3,14.3,0,0,1,350.6,733.8Zm0-26.5a12.3,12.3,0,1,0,12.2,12.2A12.3,12.3,0,0,0,350.6,707.3Z" class="color000000 svgShape"/><path fill="#fff" d="M568.4,761a7.7,7.7,0,0,1-5.9-2.8L416.9,583.8,357.7,722.6a7.8,7.8,0,1,1-14.3-6.1l64.1-150.3a7,7,0,0,1,1.7-2.5,2.7,2.7,0,0,1,.8-.7,7.3,7.3,0,0,1,4.1-1.6h1.7l183,25.9a7.9,7.9,0,0,1,4.6,2.4L721.2,714.2a7.8,7.8,0,0,1-3.9,12.9L570.2,760.8A5.5,5.5,0,0,1,568.4,761ZM433.6,579.6l137.7,165L700.6,715,594,602.4Z" class="colorffffff svgShape"/><path d="M568.4,762.1a8.8,8.8,0,0,1-6.7-3.2L417.2,585.8,358.7,723a8.8,8.8,0,0,1-16.2-6.9l64.1-150.3a8.5,8.5,0,0,1,1.9-2.9l.9-.8a8.3,8.3,0,0,1,4.6-1.7,4.3,4.3,0,0,1,1.6,0h.4l183,26a8.5,8.5,0,0,1,5.1,2.7L721.9,713.5a8.8,8.8,0,0,1,2,8.6,8.7,8.7,0,0,1-6.4,6L570.4,761.8a6.4,6.4,0,0,1-2,.3ZM416.9,582.8a.9.9,0,0,1,.8.4L563.3,757.6a6.7,6.7,0,0,0,5.1,2.4h0l1.5-.2L717,726.1a6.9,6.9,0,0,0,5-4.6,6.7,6.7,0,0,0-1.6-6.6L602.6,590.5a6.4,6.4,0,0,0-3.9-2l-183-26h-1.5a7,7,0,0,0-3.6,1.4l-.7.6a6.4,6.4,0,0,0-1.4,2.2L344.4,716.9a6.7,6.7,0,1,0,12.3,5.3l59.2-138.8a1.6,1.6,0,0,1,.8-.6ZM571.3,745.7a1.2,1.2,0,0,1-.8-.4l-137.7-165a1,1,0,0,1-.1-1.2,1.2,1.2,0,0,1,1-.5l160.4,22.8a.7.7,0,0,1,.6.3L701.3,714.3a.8.8,0,0,1,.2,1,1,1,0,0,1-.7.7L571.6,745.6ZM436.1,581,571.7,743.5l126.9-29.1-105.1-111Z" class="color000000 svgShape"/><path fill="#fff" d="M568.4,761H567a7.8,7.8,0,0,1-6.2-9.1l29.3-158.1a1.4,1.4,0,0,1,.2-.6l13.1-48.7a7.8,7.8,0,0,1,15,4.1l-13.1,48.3L576.1,754.7A7.8,7.8,0,0,1,568.4,761Z" class="colorffffff svgShape"/><path d="M568.4,762.1l-1.6-.2a8.3,8.3,0,0,1-5.6-3.7,8.8,8.8,0,0,1-1.4-6.5l29.3-158.2a1.9,1.9,0,0,1,.2-.7l13.1-48.6a8.8,8.8,0,0,1,10.8-6.2,8.2,8.2,0,0,1,5.3,4.1,8.7,8.7,0,0,1,.9,6.7l-13.1,48.3L577.1,754.9A8.9,8.9,0,0,1,568.4,762.1Zm42.5-222.4a6.8,6.8,0,0,0-6.5,5l-13.2,48.7a1.1,1.1,0,0,1-.1.5L561.8,752a7.1,7.1,0,0,0,1.1,5.1,7.1,7.1,0,0,0,4.3,2.8h1.2a6.6,6.6,0,0,0,6.6-5.5l29.3-157.8h0l13.1-48.4a7,7,0,0,0-.6-5.1,6.4,6.4,0,0,0-4.1-3.1A5.7,5.7,0,0,0,610.9,539.7Z" class="color000000 svgShape"/><path d="M713.3,595.1A124.4,124.4,0,1,0,837.7,719.5,124.4,124.4,0,0,0,713.3,595.1Zm0,233.5A109.1,109.1,0,1,1,822.4,719.5,109,109,0,0,1,713.3,828.6Z" class="color000000 svgShape"/><path d="M713.3,845A125.6,125.6,0,1,1,802,808.2,124.7,124.7,0,0,1,713.3,845Zm0-248.8c-68,0-123.4,55.3-123.4,123.3a123.4,123.4,0,0,0,246.8,0C836.7,651.5,781.3,596.2,713.3,596.2Zm0,233.5a110.2,110.2,0,1,1,0-220.3c60.7,0,110.2,49.4,110.2,110.1A110.3,110.3,0,0,1,713.3,829.7Zm0-218.3A108.1,108.1,0,1,0,821.4,719.5,108.2,108.2,0,0,0,713.3,611.4Z" class="color000000 svgShape"/><path fill="#fff" stroke="#7695ff" stroke-linecap="round" stroke-linejoin="round" stroke-width="2.07" d="M713.3,610.4A109.1,109.1,0,1,0,822.4,719.5,109.1,109.1,0,0,0,713.3,610.4Zm0,211.5A102.4,102.4,0,1,1,815.7,719.5,102.4,102.4,0,0,1,713.3,821.9Z" class="colorffffff svgShape colorStroke000000 svgStroke"/><circle cx="713.3" cy="719.5" r="13.3" class="color000000 svgShape"/><path d="M713.3,733.8a14.3,14.3,0,1,1,14.3-14.3A14.3,14.3,0,0,1,713.3,733.8Zm0-26.5a12.3,12.3,0,1,0,12.2,12.2A12.2,12.2,0,0,0,713.3,707.3Z" class="color000000 svgShape"/><path d="M414.8,589.8a8.5,8.5,0,0,1-3.1-.6,151.5,151.5,0,0,1-19.4-10.8c-14.1-9.4-23.1-19.1-26.6-28.8a26.7,26.7,0,0,1,1.1-21.3c4.8-9.7,15.6-20.8,39.8-19a93.9,93.9,0,0,1,24.8,5.6,7.7,7.7,0,0,1-5.7,14.4h0c-.4-.1-35.3-13.7-45,5.9a11.1,11.1,0,0,0-.4,9.1c4.9,13.5,28.9,26.8,37.7,30.7a7.7,7.7,0,0,1-3.2,14.8Z" class="color000000 svgShape"/><path d="M571.8,793.6a46.4,46.4,0,1,1,46.4-46.4A46.4,46.4,0,0,1,571.8,793.6Zm0-81.9a35.6,35.6,0,1,0,35.5,35.5A35.5,35.5,0,0,0,571.8,711.7Z" class="color000000 svgShape"/><path fill="#fff" d="M570.6,462.4l-64.3,31.5L533,535.4h29.3l-16.7,30.7,41.6,24.6s86.3-67.1,86.3-109.1c0-25.1-15.2-49.3-34-56.5C613.4,415,570.6,462.4,570.6,462.4Z" class="colorffffff svgShape"/><path d="M587.2,591.7h-.5L545.1,567a1,1,0,0,1-.4-1.4l15.8-29.2H533a1.2,1.2,0,0,1-.8-.4l-26.8-41.6a.8.8,0,0,1-.1-.8c0-.3.2-.5.5-.7L570,461.6a192.4,192.4,0,0,1,24.7-22.5c18.8-14.2,34-19.3,45.2-15,9.4,3.6,18.1,11.5,24.5,22a69.4,69.4,0,0,1,10.1,35.5c0,17.7-14.6,41.6-43.4,71a512.6,512.6,0,0,1-43.2,38.9A.8.8,0,0,1,587.2,591.7Zm-40.2-26,40.1,23.7c7.4-5.8,85.4-68.5,85.4-107.8,0-23.9-14.7-48.3-33.4-55.6-25.1-9.7-67.3,36.6-67.7,37.1l-.3.2-63.3,31,25.8,40.1h28.7a1.1,1.1,0,0,1,.9.5.9.9,0,0,1,0,1Zm23.6-103.3Z" class="color000000 svgShape"/><path d="M462.1,371.4a25.3,25.3,0,0,0-7.8-24.9c-2.7-2.3-6-4.1-7.8-7.2s-1.7-4.9-2.5-7.3a19.9,19.9,0,0,0-11.6-12.1,18.2,18.2,0,0,0-15.9,1c-8.8-5.2-20.9-3.5-28.4,3.5s-10.7,18.7-8.2,28.6a13.9,13.9,0,0,0,17.8,20.9c8.6,5.9,20.3,5.9,30.6,5.4a239,239,0,0,0,36.8-4.7C465.2,373.4,463.3,370.9,462.1,371.4Z" class="color000000 svgShape"/><path d="M421.2,380.5c-8.3,0-16.7-1-23.5-5.4a14.9,14.9,0,0,1-18.9-22.4c-2.5-10.3,1.1-22.2,8.6-29.1s20.1-8.9,29.2-3.8a18.5,18.5,0,0,1,16.1-.9A21.2,21.2,0,0,1,445,331.6a25,25,0,0,1,.7,2.6,22.9,22.9,0,0,0,1.7,4.6,18.7,18.7,0,0,0,5.1,5l2.5,1.9a26.6,26.6,0,0,1,8.4,24.8l.5.3a5,5,0,0,1,2.2,3.8,1,1,0,0,1-.8,1,240.3,240.3,0,0,1-36.9,4.7Zm-23.5-7.7.6.2c8.3,5.8,19.8,5.7,30,5.3a236,236,0,0,0,35.5-4.5,4,4,0,0,0-1.3-1.5c-.4.1-.8.1-1-.2a1,1,0,0,1-.4-1,24,24,0,0,0-7.5-23.8l-2.3-1.8a20.6,20.6,0,0,1-5.7-5.7,24.2,24.2,0,0,1-1.9-5.1,21.7,21.7,0,0,0-.7-2.4,19.2,19.2,0,0,0-11-11.5,16.9,16.9,0,0,0-14.9,1,1.1,1.1,0,0,1-1.1,0c-8.2-4.8-19.9-3.4-27.2,3.3s-10.4,17.9-7.9,27.6a1.2,1.2,0,0,1-.2,1A12.8,12.8,0,0,0,397.2,373Z" class="color000000 svgShape"/><path fill="#fff" d="M471.7,367.1l-12.6-3.3c-1.6,8.3-19.9,7.4-19.9,7.4s2.4-9.1-6.1-12.6-8.3,8-8.3,8,1.3-4.5-11.2-10.9-22.1,14.5-22.1,14.5,25.6,48.4,47.4,41.7c9.3-2.9,13.6-10.1,15.7-16.5l6.4,2.9A30.3,30.3,0,0,0,471.7,367.1Z" class="colorffffff svgShape"/><path d="M434.6,413.6c-21.1,0-43-41-44-42.9a1,1,0,0,1-.1-.9c.3-.5,6-12.8,14.5-15.7a10.8,10.8,0,0,1,9.1.7c5.7,2.9,8.7,5.5,10.3,7.6a8,8,0,0,1,2.8-4.6c1.7-1.1,3.8-1.2,6.3-.1,7.3,3,7.3,9.7,6.9,12.5,5.5,0,16.6-1,17.7-6.6a1.2,1.2,0,0,1,.5-.7,1.1,1.1,0,0,1,.8-.1l12.5,3.3a1.1,1.1,0,0,1,.8.8,31.6,31.6,0,0,1-11.1,32.2.9.9,0,0,1-1,.1l-5.4-2.4c-2.2,6-6.6,13.2-16,16.1A15.1,15.1,0,0,1,434.6,413.6Zm-42-43.4c2.7,4.9,26.3,46.7,46,40.7,7.3-2.2,12.3-7.6,15-15.8a1.5,1.5,0,0,1,.5-.6,1.4,1.4,0,0,1,.9,0l5.8,2.6a29.1,29.1,0,0,0,10-29.2l-11-2.9c-2.9,8-19.9,7.2-20.6,7.2a1.2,1.2,0,0,1-.8-.4,1,1,0,0,1-.2-.9c.1-.3,2.1-8.2-5.5-11.3-1.8-.8-3.3-.8-4.3-.1s-2.4,4.5-2.5,6.3,0,.9-.1,1a1.1,1.1,0,0,1-1.1.8,1.1,1.1,0,0,1-.9-1v-.7c-.2-1.2-1.5-4.6-10.7-9.3a8.8,8.8,0,0,0-7.4-.6C398.8,358.4,393.7,368,392.6,370.2Z" class="color000000 svgShape"/><path d="M454.6,396.5h-.3a1.1,1.1,0,0,1-.7-1.3c0-.1,1.9-9.3-.5-16.1a1,1,0,0,1,.6-1.4,1.1,1.1,0,0,1,1.3.7c2.7,7.4.7,16.9.6,17.3A1.1,1.1,0,0,1,454.6,396.5Z" class="color000000 svgShape"/><path d="M460.4,398s3.3,46.2-2.6,59.7c0,0,21.7,8.4,32.7,8.4l8.4-26.3s25.8,6.4,37.8,6.1,27.6,5.2,33.9,16.5c0,0,46.2-16.2,70.6-38.8,0,0-115.4-80-169.5-56.5C471.7,367.1,473.8,386.2,460.4,398Z" class="color000000 svgShape"/><path d="M490.5,467.1c-11.1,0-32.1-8.1-33-8.4a.9.9,0,0,1-.6-.6,1.1,1.1,0,0,1,0-.8c5.7-13.1,2.5-58.8,2.5-59.2a1.6,1.6,0,0,1,.3-.9c12.9-11.2,11-29.8,10.9-30a1,1,0,0,1,.7-1c12.5-5.5,29.3-5.9,49.9-1.2,16.4,3.7,35.2,10.6,56,20.6a542.5,542.5,0,0,1,64.6,37.1,1.2,1.2,0,0,1,.4.8,1.1,1.1,0,0,1-.3.8c-24.2,22.5-70.4,38.9-70.9,39.1a1.3,1.3,0,0,1-1.3-.5c-6.1-10.8-21.2-16.2-33-15.9s-32.3-4.8-37.1-6l-8.1,25.4A1,1,0,0,1,490.5,467.1Zm-31.3-10c4.2,1.6,21,7.6,30.6,7.9l8.1-25.5a1.1,1.1,0,0,1,1.2-.7c.3.1,25.9,6.3,37.6,6.1s27.4,4.8,34.4,16.2c6.1-2.2,46.1-17.3,68.4-37.4a514.3,514.3,0,0,0-63.3-36.3c-20.6-9.8-39.2-16.7-55.5-20.4-19.7-4.5-35.9-4.2-47.9.8.2,3.7.6,19.8-11.3,30.6C461.8,403.7,464.3,443.1,459.2,457.1Z" class="color000000 svgShape"/><path d="M562.3,536.4h-.5a1,1,0,0,1-.4-1.4l29-48.7a1.1,1.1,0,0,1,1.4-.4,1.1,1.1,0,0,1,.4,1.5l-29,48.6A1.2,1.2,0,0,1,562.3,536.4Z" class="color000000 svgShape"/><path fill="#fff" d="M460.8,458.8l-11.6,22s-32.6,62-41.3,65.7-30.2-10.9-38.5-5.7-3.7,10.6-3.7,10.6,2.5,25.6,28.2,30.7c0,0,3.5-14.8,13.8-12.1,0,0,10.8-3.6,12.8-12.2,0,0,53.5-37.2,70-91.7Z" class="colorffffff svgShape"/><path d="M393.9,583.1h-.2a34.9,34.9,0,0,1-24.5-17.8,43.2,43.2,0,0,1-4.5-13.5,7,7,0,0,1-1.3-5.1c.4-2.5,2.2-4.8,5.4-6.8,4.8-2.9,13.1-.1,21.2,2.6s13.8,4.6,17.5,3c6.8-2.9,31.8-48,40.8-65.1l11.6-22a1,1,0,0,1,1.2-.6l29.7,7.3c.2.1.5.2.6.5a.8.8,0,0,1,.1.8c-8.6,28.4-27.3,51.9-41.4,66.7a237.1,237.1,0,0,1-28.7,25.3c-2.3,8.8-12.9,12.5-13.4,12.6a.6.6,0,0,1-.6,0,7.5,7.5,0,0,0-5.9.8c-4.7,2.9-6.5,10.4-6.6,10.5A1,1,0,0,1,393.9,583.1Zm-19.8-42.4a7.7,7.7,0,0,0-4.2,1c-2.6,1.6-4.1,3.4-4.4,5.3a4.3,4.3,0,0,0,1,3.7,1.4,1.4,0,0,1,.2.6,39.7,39.7,0,0,0,4.4,13.1,32.2,32.2,0,0,0,22.1,16.5c.7-2.4,2.8-8.2,7.2-10.9a9.5,9.5,0,0,1,7.2-1c1.7-.7,10.2-4.3,11.9-11.5,0-.2.2-.4.4-.6a214.2,214.2,0,0,0,28.7-25.3c13.8-14.4,32-37.3,40.6-64.8L461.4,460l-11.2,21.3c-3.4,6.4-33.2,62.4-41.8,66.1-4.5,1.9-11.6-.5-19.1-3C383.9,542.6,378.3,540.7,374.1,540.7Z" class="color000000 svgShape"/><path fill="#fff" d="M560.7,741.6s-7.3,19.6-13.2,24.1-44.4,18.6-44.2,24.1,2,12.2,45.5,7.3,55.4-16.4,55.4-16.4-8.2-34.4-4.8-40.6S560.7,741.6,560.7,741.6Z" class="colorffffff svgShape"/><path d="M524,799.8c-12.6,0-17-2-19.1-3.8a7.9,7.9,0,0,1-2.6-6.2c-.2-3.9,11.3-9.4,29-17.3,7-3.2,13.6-6.1,15.6-7.7,5.6-4.1,12.7-23.4,12.8-23.6a.9.9,0,0,1,.8-.6c.1,0,9.1-1.7,18.4-2.8,19.3-2.4,20.8-.3,21.4.5a2.3,2.3,0,0,1,0,2.3c-2.7,4.8,2.6,30.4,4.9,39.8a.9.9,0,0,1-.3,1c-.5.5-12.7,11.9-56,16.8A225.6,225.6,0,0,1,524,799.8Zm37.4-57.3c-1.2,3.3-7.7,19.8-13.2,24-2.3,1.7-8.7,4.5-16.1,7.9s-13.5,6.1-19,9c-8.4,4.5-8.8,6-8.8,6.3s.3,3.3,1.9,4.7c4.6,3.9,18.4,4.4,42.5,1.7,38.1-4.3,51.8-13.8,54.3-15.8-1.3-5.6-7.9-34.7-4.5-40.7h0c-.3-.3-2.8-1.7-19.4.3C571.3,740.8,563.6,742.1,561.4,742.5Z" class="color000000 svgShape"/><path fill="#fff" d="M545.6,566.1s-19.2,32.7-14.8,46,32.2,120.4,32,129.1l35.8-2.8s-6.6-86.8-21.8-124.9l10.4-22.8Z" class="colorffffff svgShape"/><path d="M562.8,742.3a1.2,1.2,0,0,1-1.1-1.1c.3-8.7-27.5-115.8-31.9-128.8s14.1-45.5,14.9-46.8a1.5,1.5,0,0,1,.6-.5,1.1,1.1,0,0,1,.8.1l41.7,24.6a1.1,1.1,0,0,1,.4,1.3l-10.3,22.5c15,37.9,21.7,123.8,21.8,124.7a1,1,0,0,1-1,1.1l-35.8,2.9ZM546,567.5c-3.1,5.4-18,32.8-14.2,44.2s30.5,113.9,31.9,128.4l33.8-2.7c-.8-9.9-7.5-88.3-21.7-123.5a1.1,1.1,0,0,1,0-.8l10.1-22Z" class="color000000 svgShape"/><path d="M538,784.5a.9.9,0,0,1-.8-.4c-2.4-3.1-10-7.9-10.1-8a1.1,1.1,0,0,1-.3-1.4,1.1,1.1,0,0,1,1.5-.3c.3.2,7.9,5,10.5,8.5a1,1,0,0,1-.1,1.4A1,1,0,0,1,538,784.5Z" class="color000000 svgShape"/><path d="M552.6,777.9a1.1,1.1,0,0,1-.9-.5c-1.6-2.5-9.3-5.7-12.1-6.8a1,1,0,0,1-.6-1.3,1.1,1.1,0,0,1,1.4-.6c1.1.4,10.7,4.1,13,7.6a1,1,0,0,1-.2,1.4Z" class="color000000 svgShape"/><path d="M564.4,767.9l-.7-.2c-2.4-2.1-10.2-4.2-13-4.8a.9.9,0,0,1-.8-1.2,1,1,0,0,1,1.2-.8c.4.1,10.7,2.3,14,5.2a1.1,1.1,0,0,1,.1,1.5A1.1,1.1,0,0,1,564.4,767.9Z" class="color000000 svgShape"/><path d="M571.8,754.5l-.5-.2c-4.3-2.4-14-3.4-14.1-3.4a1,1,0,1,1,.2-2c.4,0,10.2,1,14.9,3.6a1.1,1.1,0,0,1,.4,1.5A1.1,1.1,0,0,1,571.8,754.5Z" class="color000000 svgShape"/><circle cx="711.5" cy="759.6" r="10.9" class="color000000 svgShape"/><path d="M711.5,771.5a11.9,11.9,0,1,1,11.9-11.9A11.9,11.9,0,0,1,711.5,771.5Zm0-21.8a9.9,9.9,0,1,0,9.8,9.9A9.9,9.9,0,0,0,711.5,749.7Z" class="color000000 svgShape"/><rect width="18.4" height="176.21" x="132.9" y="665.9" fill="#fff" class="colorffffff svgShape"/><path d="M151.4,843.1H132.9a.9.9,0,0,1-1-1V665.9a.9.9,0,0,1,1-1h18.5a1,1,0,0,1,1,1V842.1A1,1,0,0,1,151.4,843.1Zm-17.4-2h16.3V666.9H134Z" class="color000000 svgShape"/><path d="M226.1,567.7c0,90.7-37.6,103.7-84,103.7s-84-13-84-103.7,37.6-224.8,84-224.8S226.1,477,226.1,567.7Z" class="color000000 svgShape"/><path d="M142.1,672.5c-20.4,0-43.4-2.2-60.1-18.2s-24.9-44.4-24.9-86.6c0-45.6,9.4-101.8,24.7-146.7,7.9-23.5,17.2-42.9,26.8-56.3,10.9-15.1,22.2-22.8,33.5-22.8s22.7,7.7,33.6,22.8c9.6,13.4,18.9,32.8,26.8,56.3,15.2,44.9,24.7,101.1,24.7,146.7,0,42.2-8.2,70.5-24.9,86.6S162.5,672.5,142.1,672.5Zm0-328.5c-10.6,0-21.4,7.3-31.8,21.9s-18.7,32.5-26.6,55.7C68.6,466.3,59.2,522.3,59.2,567.7c0,41.6,7.9,69.5,24.2,85.1s38.8,17.6,58.7,17.6,42.6-2.1,58.7-17.6,24.3-43.5,24.3-85.1c0-45.4-9.4-101.4-24.5-146.1-7.9-23.2-17.1-42.5-26.6-55.7S152.8,344,142.1,344Z" class="color000000 svgShape"/><path fill="#fff" d="M142.1,663.2a1.1,1.1,0,0,1-1-1.1V486.7a1.1,1.1,0,0,1,1-1,1.1,1.1,0,0,1,1.1,1V662.1A1.1,1.1,0,0,1,142.1,663.2Z" class="colorffffff svgShape"/><path fill="#fff" d="M142.1,554.9a1.1,1.1,0,0,1-.7-.3l-21.9-19.8a.9.9,0,0,1-.1-1.4,1.1,1.1,0,0,1,1.5-.1l21.9,19.8a.9.9,0,0,1,.1,1.4A1.2,1.2,0,0,1,142.1,554.9Z" class="colorffffff svgShape"/><path fill="#fff" d="M142.1,596.2a1.1,1.1,0,0,1-.6-1.9l39.2-33.7a1,1,0,0,1,1.4.1,1,1,0,0,1-.1,1.5l-39.2,33.7A.9.9,0,0,1,142.1,596.2Z" class="colorffffff svgShape"/><path fill="#fff" d="M142.1,645.5a.7.7,0,0,1-.6-.2l-47-34.1a1,1,0,0,1,1.2-1.6l47,34.1a1,1,0,0,1,.3,1.4A1,1,0,0,1,142.1,645.5Z" class="colorffffff svgShape"/><circle cx="821.8" cy="298" r="53.6" fill="#fff" class="colorffffff svgShape"/><path d="M821.8,352.6A54.7,54.7,0,1,1,876.5,298,54.7,54.7,0,0,1,821.8,352.6Zm0-107.2A52.6,52.6,0,1,0,874.4,298,52.7,52.7,0,0,0,821.8,245.4Z" class="color000000 svgShape"/><path d="M751.5,285.3h-.2l-127-24.6a.9.9,0,0,1-.8-1.2,1,1,0,0,1,1.2-.9l127,24.7a1,1,0,0,1-.2,2Z" class="color000000 svgShape"/><path d="M609.2,363.8a1,1,0,0,1-1-.7,1,1,0,0,1,.7-1.3l109.6-33.4a1,1,0,0,1,1.3.6.9.9,0,0,1-.7,1.3L609.5,363.8Z" class="color000000 svgShape"/><path d="M738.4,324.4a1,1,0,0,1-1-.7,1,1,0,0,1,.7-1.3l14.6-4.5a1.2,1.2,0,0,1,1.3.7,1.1,1.1,0,0,1-.7,1.3l-14.6,4.5Z" class="color000000 svgShape"/><path d="M713.3,521.5h-.4a1,1,0,0,1-.5-1.4l11.5-23.6a1,1,0,0,1,1.8,1l-11.5,23.5A.9.9,0,0,1,713.3,521.5Z" class="color000000 svgShape"/><path d="M733.7,479.7h-.5a1,1,0,0,1-.4-1.4L790,360.9a1,1,0,0,1,1.4-.5,1,1,0,0,1,.4,1.4L734.6,479.1A1,1,0,0,1,733.7,479.7Z" class="color000000 svgShape"/><path d="M952.7,525.4a1.2,1.2,0,0,1-.9-.5L874.5,391.2a1.1,1.1,0,0,1,.4-1.4,1,1,0,0,1,1.4.4l77.3,133.6a1.1,1.1,0,0,1-.3,1.4Z" class="color000000 svgShape"/><path d="M865,373.6a1.1,1.1,0,0,1-.9-.5l-8.5-14.6a1,1,0,0,1,1.8-1l8.5,14.6a1,1,0,0,1-.4,1.4Z" class="color000000 svgShape"/><path fill="#fff" d="M247.1,253.3a26,26,0,0,0-4,.3,36,36,0,0,0-62.2.8,28.1,28.1,0,0,0-7.7-1.1,27.4,27.4,0,0,0-26.4,20.4,17.8,17.8,0,0,0-9.7-2.8,18.5,18.5,0,0,0,0,37h110a27.3,27.3,0,1,0,0-54.6Z" class="colorffffff svgShape"/><path d="M247.1,308.9h-110a19.5,19.5,0,0,1,0-39,20.4,20.4,0,0,1,9.1,2.2,28.3,28.3,0,0,1,27-19.8,29.6,29.6,0,0,1,7.2.9,36.9,36.9,0,0,1,63.2-.7l3.5-.2a28.3,28.3,0,1,1,0,56.6ZM137.1,272a17.5,17.5,0,0,0,0,34.9h110a26.3,26.3,0,1,0,0-52.5l-3.8.2a1,1,0,0,1-1.1-.4,34.9,34.9,0,0,0-60.4.7.9.9,0,0,1-1.2.5A26.5,26.5,0,0,0,147.8,274a1.3,1.3,0,0,1-.6.7,1.7,1.7,0,0,1-1-.1A17.2,17.2,0,0,0,137.1,272Z" class="color000000 svgShape"/><path fill="#fff" d="M871.6,292.6l3.3.2a29.7,29.7,0,0,1,25.4-14.4A29.3,29.3,0,0,1,926,293.5a23,23,0,0,1,6.4-.9,22.5,22.5,0,0,1,21.7,16.7,15.2,15.2,0,1,1,7.9,28.1H871.6a22.4,22.4,0,0,1,0-44.8Z" class="colorffffff svgShape"/><path d="M962,338.5H871.6a23.5,23.5,0,0,1,0-47l2.8.2a30.6,30.6,0,0,1,25.9-14.3,30.3,30.3,0,0,1,26.2,14.9,23.2,23.2,0,0,1,28.2,15.5A15.8,15.8,0,0,1,962,306a16.3,16.3,0,0,1,0,32.5Zm-90.4-44.9a21.4,21.4,0,0,0,0,42.8H962a14.2,14.2,0,1,0,0-28.3,13.8,13.8,0,0,0-7.4,2.1,1,1,0,0,1-.9.1c-.3-.2-.6-.4-.6-.7a21.5,21.5,0,0,0-20.7-16,21,21,0,0,0-6.1.9,1.2,1.2,0,0,1-1.2-.5,28.4,28.4,0,0,0-24.8-14.6,28.8,28.8,0,0,0-24.5,13.9.9.9,0,0,1-1,.5Z" class="color000000 svgShape"/></svg>