<svg xmlns="http://www.w3.org/2000/svg" data-name="Layer 1" viewBox="0 0 1080 1080"><path fill="#9dbdff" d="M935.4,801H142.7c-17-25-17.3-59.1-6.1-87.2s36.8-50,66.3-56.6c33.2-7.4,69.5,3.5,101.2-8.9,43.7-17.1,60.3-70.7,60.9-117.6s-8.9-95.2,5.8-139.7c16-48.4,61.9-85.4,112.6-90.9s103.4,21,129.3,64.9c19.5,33,23.9,72.5,34.1,109.5s29.8,75.4,65.5,89.5c28.6,11.2,60.6,4.2,91.1-.3s64.9-5.2,87.9,15.3c38.4,34.3,20.6,104.9,58.5,139.8,13.7,12.5,33.7,19.2,41.8,35.9,6.1,12.7,2.8,29.3-7.7,38.7S954.5,801,935.4,801Z" class="color85e5b0 svgShape"/><rect width="19.3" height="4.97" x="786.9" y="595.5" fill="#fff" class="colorffffff svgShape" transform="rotate(135 796.549 597.939)"/><path d="M791.5,607.5h0a.9.9,0,0,1-.7-.3l-3.5-3.5a1,1,0,0,1,0-1.4l13.6-13.6a1,1,0,0,1,1.4,0l3.5,3.5a1,1,0,0,1,0,1.4l-13.6,13.6A.9.9,0,0,1,791.5,607.5Zm-2.1-4.5,2.1,2.1,12.2-12.2-2.1-2.1Z" class="color000000 svgShape"/><path fill="#fff" d="M791.2,582.8l20.5,20.5a14.5,14.5,0,0,0-20.5-20.5Z" class="colorffffff svgShape"/><path d="M811.7,604.3a.9.9,0,0,1-.7-.3l-20.6-20.5a2.1,2.1,0,0,1-.3-.7,1.1,1.1,0,0,1,.3-.7,15.4,15.4,0,0,1,11-4.6,15.1,15.1,0,0,1,11,4.6,15.4,15.4,0,0,1,0,21.9A.9.9,0,0,1,811.7,604.3Zm-19.1-21.5,19.1,19a13.5,13.5,0,0,0-10.3-22.3A13.7,13.7,0,0,0,792.6,582.8Z" class="color000000 svgShape"/><rect width="29" height="2.34" x="786.1" y="592.7" class="color000000 svgShape" transform="rotate(-135 800.608 593.861)"/><path d="M810,606a1.1,1.1,0,0,1-.7-.3l-20.5-20.6a.8.8,0,0,1-.3-.7,1.1,1.1,0,0,1,.3-.7l1.6-1.6a1.1,1.1,0,0,1,1.5,0l20.5,20.5a1,1,0,0,1,0,1.4l-1.6,1.7A1.1,1.1,0,0,1,810,606Zm-19.1-21.6L810,603.5l.3-.2-19.1-19.1Z" class="color000000 svgShape"/><rect width="19.3" height="4.97" x="747.7" y="595.5" fill="#fff" class="colorffffff svgShape" transform="rotate(45 757.341 597.901)"/><path d="M762.4,607.5a1.1,1.1,0,0,1-.8-.3L748,593.6a1,1,0,0,1,0-1.4l3.5-3.5a1.1,1.1,0,0,1,1.5,0l13.6,13.6a1,1,0,0,1,0,1.4l-3.5,3.5A1.1,1.1,0,0,1,762.4,607.5Zm-12.2-14.6,12.2,12.2,2-2.1-12.1-12.2Z" class="color000000 svgShape"/><path fill="#fff" d="M805,647.1a5.1,5.1,0,0,1-7.2,0l-4.8-4.8,5.7-8.5L805,640A5.1,5.1,0,0,1,805,647.1Z" class="colorffffff svgShape"/><path d="M801.4,649.6a6.5,6.5,0,0,1-4.3-1.7l-4.8-4.9a.9.9,0,0,1-.1-1.2l5.6-8.6a.9.9,0,0,1,.8-.4.8.8,0,0,1,.8.2l6.3,6.3a6.3,6.3,0,0,1,0,8.6h0A6.5,6.5,0,0,1,801.4,649.6Zm-7.1-7.4,4.3,4.2a3.9,3.9,0,0,0,5.6,0h0a3.6,3.6,0,0,0,1.2-2.8,4,4,0,0,0-1.2-2.9l-5.4-5.3Z" class="color000000 svgShape"/><polygon points="798.7 633.8 793 642.3 789.6 638.9 796.7 631.8 798.7 633.8" class="color000000 svgShape"/><path d="M793,643.3a1.1,1.1,0,0,1-.7-.3l-3.4-3.4a1,1,0,0,1,0-1.4l7.1-7.1a1,1,0,0,1,1.4,0l2,1.9a1.1,1.1,0,0,1,.1,1.3l-5.6,8.6a1.2,1.2,0,0,1-.8.4Zm-2-4.4,1.9,1.8,4.5-6.8-.7-.7Z" class="color000000 svgShape"/><path fill="#fff" d="M747.8,647.1a5.1,5.1,0,0,0,7.2,0l4.8-4.8-5.7-8.5-6.3,6.2A5.1,5.1,0,0,0,747.8,647.1Z" class="colorffffff svgShape"/><path d="M751.4,649.6a6.5,6.5,0,0,1-4.3-1.7h0a6.3,6.3,0,0,1,0-8.6l6.3-6.3a.8.8,0,0,1,.8-.2.9.9,0,0,1,.8.4l5.6,8.6a.9.9,0,0,1-.1,1.2l-4.8,4.9A6.5,6.5,0,0,1,751.4,649.6Zm2.5-14.2-5.3,5.3a4,4,0,0,0-1.2,2.9,3.6,3.6,0,0,0,1.2,2.8h0a3.9,3.9,0,0,0,5.6,0l4.3-4.2Z" class="color000000 svgShape"/><polygon points="754.1 633.8 759.8 642.3 763.2 638.9 756.1 631.8 754.1 633.8" class="color000000 svgShape"/><path d="M759.8,643.3h-.1a1.2,1.2,0,0,1-.8-.4l-5.6-8.6a1.1,1.1,0,0,1,.1-1.3l2-1.9a1,1,0,0,1,1.4,0l7.1,7.1a1,1,0,0,1,0,1.4l-3.4,3.4A1.1,1.1,0,0,1,759.8,643.3Zm-4.4-9.4,4.5,6.8,1.9-1.8-5.7-5.7Z" class="color000000 svgShape"/><circle cx="776.5" cy="616.1" r="26.7" fill="#fff" class="colorffffff svgShape"/><path d="M776.5,643.9a27.8,27.8,0,1,1,27.8-27.8A27.8,27.8,0,0,1,776.5,643.9Zm0-53.5a25.7,25.7,0,1,0,25.7,25.7A25.7,25.7,0,0,0,776.5,590.4Z" class="color000000 svgShape"/><path fill="#fff" d="M762.7,582.8l-20.6,20.5a14.5,14.5,0,0,1,20.6-20.5Z" class="colorffffff svgShape"/><path d="M742.1,604.3a1.1,1.1,0,0,1-.7-.3,15.6,15.6,0,0,1,11-26.5,15.1,15.1,0,0,1,11,4.6,1,1,0,0,1,0,1.4L742.9,604A1.1,1.1,0,0,1,742.1,604.3Zm10.3-24.8a13.1,13.1,0,0,0-9.5,4,13.3,13.3,0,0,0-.7,18.3l19-19A13.3,13.3,0,0,0,752.4,579.5Z" class="color000000 svgShape"/><rect width="29" height="2.34" x="738.7" y="592.7" class="color000000 svgShape" transform="rotate(-45 753.292 593.876)"/><path d="M743.8,606a.9.9,0,0,1-.7-.3l-1.7-1.7a1,1,0,0,1,0-1.4L762,582.1a1,1,0,0,1,1.4,0l1.7,1.6a2.1,2.1,0,0,1,.3.7,1.1,1.1,0,0,1-.3.7l-20.6,20.6A.9.9,0,0,1,743.8,606Zm-.2-2.7.2.2,19.1-19.1-.2-.2Z" class="color000000 svgShape"/><path fill="#fff" d="M792.3,600.3a22.3,22.3,0,1,0,0,31.6A22.2,22.2,0,0,0,792.3,600.3Z" class="colorffffff svgShape"/><path d="M776.5,639.5a23.4,23.4,0,1,1,16.6-6.8A23.7,23.7,0,0,1,776.5,639.5Zm0-44.7a21.1,21.1,0,0,0-15.1,6.2,21.4,21.4,0,1,0,30.2,0A20.9,20.9,0,0,0,776.5,594.8Z" class="color000000 svgShape"/><rect width="1" height="19.13" x="776.5" y="600.2" class="color000000 svgShape"/><rect width="1" height="12.88" x="770.6" y="612.4" class="color000000 svgShape" transform="rotate(-90 771.15 618.85)"/><ellipse cx="804.4" cy="569.5" class="color000000 svgShape" rx="1.2" ry="5.5"/><ellipse cx="823" cy="583.3" class="color000000 svgShape" rx="5.5" ry="1.2"/><ellipse cx="817.5" cy="571.8" class="color000000 svgShape" rx="5.5" ry="1.2" transform="rotate(-45 817.448 571.802)"/><polygon points="661.5 801 674.2 801 727.7 664.4 714.9 664.4 661.5 801" class="color000000 svgShape"/><path d="M674.2,802H661.5a1.1,1.1,0,0,1-.9-.4,1.4,1.4,0,0,1-.1-.9L714,664.1a1.1,1.1,0,0,1,.9-.7h12.8a1,1,0,0,1,.8.5.7.7,0,0,1,.1.9L675.2,801.4A1.1,1.1,0,0,1,674.2,802ZM663,800h10.5l52.7-134.6H715.6Z" class="color000000 svgShape"/><rect width="66.3" height="25.04" x="705.2" y="691.4" class="color000000 svgShape" transform="rotate(-180 738.35 703.95)"/><path d="M771.5,717.5H705.2a1.1,1.1,0,0,1-1.1-1V691.4a1.1,1.1,0,0,1,1.1-1h66.3a1,1,0,0,1,1,1v25.1A1,1,0,0,1,771.5,717.5Zm-65.3-2h64.3v-23H706.2Z" class="color000000 svgShape"/><rect width="65.3" height="25.04" x="681.8" y="755.8" class="color000000 svgShape" transform="rotate(-180 714.45 768.3)"/><path d="M747.1,781.8H681.8a.9.9,0,0,1-1-1v-25a1,1,0,0,1,1-1.1h65.3a1,1,0,0,1,1,1.1v25A.9.9,0,0,1,747.1,781.8Zm-64.3-2h63.3v-23H682.8Z" class="color000000 svgShape"/><polygon points="727.7 801 740.4 801 793.9 664.4 781.2 664.4 727.7 801" class="color000000 svgShape"/><path d="M740.4,802H727.7c-.3,0-.7-.1-.8-.4a1,1,0,0,1-.2-.9l53.5-136.6a1.1,1.1,0,0,1,1-.7h12.7a1,1,0,0,1,.8.5.7.7,0,0,1,.1.9L741.4,801.4A1,1,0,0,1,740.4,802Zm-11.2-2h10.5l52.7-134.6H781.8Z" class="color000000 svgShape"/><polygon fill="#fff" points="890.9 801 878.1 801 824.7 664.4 837.4 664.4 890.9 801" class="colorffffff svgShape"/><path d="M890.9,802H878.1a.9.9,0,0,1-.9-.6L823.7,664.8a.9.9,0,0,1,.1-.9,1.1,1.1,0,0,1,.9-.5h12.7a1.2,1.2,0,0,1,1,.7l53.4,136.6a1,1,0,0,1-.1.9A.9.9,0,0,1,890.9,802Zm-12.1-2h10.6L836.7,665.4H826.2Z" class="color000000 svgShape"/><rect width="66.3" height="25.04" x="780.9" y="691.4" fill="#fff" class="colorffffff svgShape"/><path d="M847.2,717.5H780.9a1,1,0,0,1-1-1V691.4a1,1,0,0,1,1-1h66.3a1,1,0,0,1,1,1v25.1A1,1,0,0,1,847.2,717.5Zm-65.3-2h64.3v-23H781.9Z" class="color000000 svgShape"/><rect width="65.3" height="25.04" x="805.3" y="755.8" fill="#fff" class="colorffffff svgShape"/><path d="M870.6,781.8H805.3a.9.9,0,0,1-1-1v-25a1,1,0,0,1,1-1.1h65.3a1.1,1.1,0,0,1,1,1.1v25A1,1,0,0,1,870.6,781.8Zm-64.3-2h63.3v-23H806.3Z" class="color000000 svgShape"/><polygon fill="#fff" points="824.7 801 811.9 801 758.5 664.4 771.2 664.4 824.7 801" class="colorffffff svgShape"/><path d="M824.7,802H811.9a.9.9,0,0,1-.9-.6L757.5,664.8a.9.9,0,0,1,.1-.9,1.1,1.1,0,0,1,.9-.5h12.7a1.2,1.2,0,0,1,1,.7l53.4,136.6a1,1,0,0,1-.1.9A.9.9,0,0,1,824.7,802Zm-12.1-2h10.6L770.5,665.4H760Z" class="color000000 svgShape"/><rect width="125.7" height="25.04" x="714" y="646.3" fill="#fff" class="colorffffff svgShape"/><path d="M839.7,672.4H714a1.1,1.1,0,0,1-1-1V646.3a1.1,1.1,0,0,1,1-1H839.7a1.1,1.1,0,0,1,1.1,1v25.1A1.1,1.1,0,0,1,839.7,672.4Zm-124.6-2.1H838.7v-23H715.1Z" class="color000000 svgShape"/><rect width="51.3" height="25.04" x="714" y="646.3" class="color000000 svgShape"/><path d="M765.3,672.4H714a1.1,1.1,0,0,1-1-1V646.3a1.1,1.1,0,0,1,1-1h51.3a1,1,0,0,1,1,1v25.1A1,1,0,0,1,765.3,672.4Zm-50.2-2.1h49.2v-23H715.1Z" class="color000000 svgShape"/><polygon fill="#fff" points="815.2 852.2 273 852.2 310.6 800.7 777.6 800.7 815.2 852.2" class="colorffffff svgShape"/><path d="M815.2,853.2H273a1,1,0,0,1-.9-.6,1.2,1.2,0,0,1,.1-1l37.6-51.5a1.2,1.2,0,0,1,.8-.4h467a1.2,1.2,0,0,1,.8.4L816,851.6a.8.8,0,0,1,.1,1A1,1,0,0,1,815.2,853.2Zm-540.2-2H813.2l-36.1-49.5h-466Z" class="color000000 svgShape"/><rect width="433.2" height="24.24" x="53.9" y="656.7" fill="#fff" class="colorffffff svgShape"/><path d="M487.2,681.9H53.9a1,1,0,0,1-1-1V656.7a1,1,0,0,1,1-1H487.2a1,1,0,0,1,1,1v24.2A1,1,0,0,1,487.2,681.9Zm-432.3-2H486.2V657.7H54.9Z" class="color000000 svgShape"/><rect width="433.2" height="9.22" x="53.9" y="656.7" class="color000000 svgShape"/><path d="M487.2,666.9H53.9a1,1,0,0,1-1-1v-9.2a1,1,0,0,1,1-1H487.2a1,1,0,0,1,1,1v9.2A1,1,0,0,1,487.2,666.9Zm-432.3-2H486.2v-7.2H54.9Z" class="color000000 svgShape"/><rect width="459.1" height="24.24" x="41" y="634.5" fill="#fff" class="colorffffff svgShape"/><path d="M500.1,659.8H41a1.1,1.1,0,0,1-1-1.1V634.5a1,1,0,0,1,1-1H500.1a1,1,0,0,1,1,1v24.2A1.1,1.1,0,0,1,500.1,659.8ZM42,657.7H499.1V635.5H42Z" class="color000000 svgShape"/><rect width="38.8" height="119.8" x="404" y="680.9" fill="#fff" class="colorffffff svgShape"/><path d="M442.9,801.7H404a1,1,0,0,1-1-1V680.9a1.1,1.1,0,0,1,1-1h38.9a1.1,1.1,0,0,1,1,1V800.7A1,1,0,0,1,442.9,801.7Zm-37.9-2h36.9V681.9H405Z" class="color000000 svgShape"/><rect width="38.8" height="13.81" x="404" y="680.9" class="color000000 svgShape"/><path d="M442.9,695.7H404a1,1,0,0,1-1-1V680.9a1.1,1.1,0,0,1,1-1h38.9a1.1,1.1,0,0,1,1,1v13.8A1,1,0,0,1,442.9,695.7Zm-37.9-2h36.9V681.9H405Z" class="color000000 svgShape"/><rect width="38.8" height="119.8" x="92.9" y="680.9" fill="#fff" class="colorffffff svgShape"/><path d="M131.7,801.7H92.9a.9.9,0,0,1-1-1V680.9a1,1,0,0,1,1-1h38.8a1,1,0,0,1,1,1V800.7A.9.9,0,0,1,131.7,801.7Zm-37.8-2h36.8V681.9H93.9Z" class="color000000 svgShape"/><rect width="38.8" height="13.81" x="92.9" y="680.9" class="color000000 svgShape"/><path d="M131.7,695.7H92.9a.9.9,0,0,1-1-1V680.9a1,1,0,0,1,1-1h38.8a1,1,0,0,1,1,1v13.8A.9.9,0,0,1,131.7,695.7Zm-37.8-2h36.8V681.9H93.9Z" class="color000000 svgShape"/><path fill="#fff" d="M291.6,593.5v41H112.3v-41A26.7,26.7,0,0,1,139,566.8H264.9A26.8,26.8,0,0,1,291.6,593.5Z" class="colorffffff svgShape"/><path d="M291.6,635.5H112.3a.9.9,0,0,1-1-1v-41A27.7,27.7,0,0,1,139,565.8H264.9a27.7,27.7,0,0,1,27.7,27.7v41A1,1,0,0,1,291.6,635.5Zm-178.3-2H290.6v-40a25.8,25.8,0,0,0-25.7-25.7H139a25.8,25.8,0,0,0-25.7,25.7Z" class="color000000 svgShape"/><path d="M122.4,634.5H112.3V624.4A10.1,10.1,0,0,1,122.4,634.5Z" class="color000000 svgShape"/><path d="M291.6,624.4v10.1H281.5A10.1,10.1,0,0,1,291.6,624.4Z" class="color000000 svgShape"/><rect width="72.4" height="7.73" x="165.7" y="603.3" class="color000000 svgShape"/><path fill="#fff" d="M250.8,572.8h-6.3V557.1a15.2,15.2,0,0,0-15.2-15.2H174.1A15.1,15.1,0,0,0,159,557.1v15.7h-6.4V557.1a21.5,21.5,0,0,1,21.5-21.5h55.2a21.5,21.5,0,0,1,21.5,21.5Z" class="colorffffff svgShape"/><path d="M250.8,573.8h-6.3a1.1,1.1,0,0,1-1.1-1V557.1a14.2,14.2,0,0,0-14.1-14.2H174.1A14.2,14.2,0,0,0,160,557.1v15.7a1.1,1.1,0,0,1-1,1h-6.4a1,1,0,0,1-1-1V557.1a22.5,22.5,0,0,1,22.5-22.5h55.2a22.5,22.5,0,0,1,22.5,22.5v15.7A1,1,0,0,1,250.8,573.8Zm-5.3-2.1h4.3V557.1a20.5,20.5,0,0,0-20.5-20.5H174.1a20.5,20.5,0,0,0-20.5,20.5v14.6h4.3V557.1a16.3,16.3,0,0,1,16.2-16.2h55.2a16.3,16.3,0,0,1,16.2,16.2Z" class="color000000 svgShape"/><rect width="14.7" height="23.2" x="148.5" y="571" class="color000000 svgShape" rx="5.7"/><circle cx="155.8" cy="582.6" r="3.2" fill="#fff" class="colorffffff svgShape"/><rect width="14.7" height="23.2" x="240.4" y="571" class="color000000 svgShape" rx="5.7"/><circle cx="247.7" cy="582.6" r="3.2" fill="#fff" class="colorffffff svgShape"/><path d="M1038.5,802.2H61.7a1.5,1.5,0,0,1-1.5-1.5,1.5,1.5,0,0,1,1.5-1.5h976.8a1.5,1.5,0,0,1,1.5,1.5A1.5,1.5,0,0,1,1038.5,802.2Z" class="color000000 svgShape"/><path d="M702.3,729.6s15.2-8.1,26.6-.9-6.4,65.9-6.4,65.9a45.8,45.8,0,0,1-37.9,11.6c-23.5-3.5,2.7-21.5,2.7-21.5l2.2-25.3Z" class="color000000 svgShape"/><path d="M691.5,807.7a56.2,56.2,0,0,1-7-.5c-6.3-.9-9.8-3-10.5-6.2-1.6-6.5,9.7-15,12.4-16.9l2.1-24.8a.4.4,0,0,1,.1-.3l12.8-29.8a1,1,0,0,1,.4-.5c.7-.3,15.9-8.3,27.6-.9,5.2,3.3,5.7,15.3,1.6,36.8-3,15.4-7.4,30.2-7.5,30.3a.5.5,0,0,1-.2.4A47.1,47.1,0,0,1,691.5,807.7Zm-1-48-2.2,25.1a1,1,0,0,1-.4.7c-3.7,2.6-13.1,10.3-12,15.1.7,2.8,5.2,4,8.9,4.6a45.1,45.1,0,0,0,36.8-11.1c4.9-16.3,15.5-59,6.7-64.5s-23-.3-25.2.7Zm-3.2,25Z" class="color000000 svgShape"/><path d="M461.5,796.5s-7.7,11.4-18,14-36.9,10.8-40,15.9,0,14.5,0,14.5h82.8s3.1-26.3-1.2-42.7S461.5,796.5,461.5,796.5Z" class="color000000 svgShape"/><path d="M486.3,841.9H403.5a1.1,1.1,0,0,1-1-.7c-.1-.4-3.2-9.9.1-15.3s33-14.4,40.6-16.4c9.9-2.5,17.4-13.4,17.5-13.5s.1-.2.2-.3,11.1-8.3,18.8-5.7c3.1,1.1,5.3,3.8,6.4,8,4.3,16.3,1.4,41.9,1.2,43A1,1,0,0,1,486.3,841.9Zm-82.1-2.1h81.2c.5-4.7,2.5-27-1.3-41.3q-1.4-5.2-5.1-6.6c-6.2-2.1-15.6,4.5-16.7,5.4s-8.5,11.6-18.6,14.2c-12,3.1-36.6,11-39.4,15.4S403.6,837.6,404.2,839.8Z" class="color000000 svgShape"/><path fill="#fff" d="M513,610.4s-81.2,16.9-80.9,40.6,26.4,148.7,26.4,148.7,17.2,4.3,27.9,0c0,0,5-69-11.6-114.5,0,0,43.3-2.2,81.2-15.6,0,0,21.3,138.7,52.8,139.8s103.3-59.9,103.3-59.9.3-15.2-11.6-19.5c0,0-50.2,11.9-70.8,22.7,0,0,14.8-94.3-1.1-126.4S513,610.4,513,610.4Z" class="colorffffff svgShape"/><path d="M609.6,810.5h-.9c-13.5-.4-26.7-24.3-39.1-71-8.2-30.9-13.3-62-14.4-68.4-33.6,11.6-71.4,14.6-79,15.1,15.9,45.2,11.3,113,11.2,113.6a1,1,0,0,1-.6.9c-10.9,4.4-27.8.2-28.5.1a1.1,1.1,0,0,1-.8-.8c-1-5.1-26-125.4-26.4-148.9s78.4-40.9,81.7-41.6h.1a373.1,373.1,0,0,1,52-4.1h.4c35.9,0,57.5,6.9,64.2,20.6s8.9,38.9,6.6,75.7c-1.4,22.8-4.2,43.1-5.1,49.3,21.4-10.5,68.8-21.8,69.3-21.9a.6.6,0,0,1,.6,0c12.4,4.5,12.2,20.3,12.2,20.5a.8.8,0,0,1-.4.7c-.2.2-18.2,15.5-39.9,30.5C644.2,800.4,622.9,810.5,609.6,810.5ZM556,668.6l.6.2a.8.8,0,0,1,.4.7c.1.3,5.5,35,14.6,69.4,12,45,24.8,69.1,37.2,69.5h.8c29.9,0,95.9-54.8,101.4-59.4,0-2.4-.8-14.2-10.6-18-4.2,1-50.8,12.4-70.2,22.6a.9.9,0,0,1-1.1-.1,1.1,1.1,0,0,1-.4-.9c.2-1,14.6-94.4-1-125.8s-112.5-15.7-114.5-15.4a369.7,369.7,0,0,0-40.4,11.4c-26.1,9.2-39.8,19-39.6,28.2.3,22.5,24.2,138.2,26.2,147.8,3,.7,16.8,3.5,26,.2.5-7.1,3.9-71-11.6-113.5a1,1,0,0,1,.1-.9.9.9,0,0,1,.8-.4c.4-.1,43.6-2.3,81-15.5Z" class="color000000 svgShape"/><ellipse cx="433.6" cy="399.7" class="color000000 svgShape" rx="17.5" ry="19"/><path d="M433.6,419.7c-10.1,0-18.4-9-18.4-20s8.3-20,18.4-20,14.9,1.3,17.4,4.2,2,6.4,1.5,10.3a49.1,49.1,0,0,0-.4,5.5,39.3,39.3,0,0,0,.6,6c.6,3.7,1.2,7.2-1.1,9.8S443.6,419.7,433.6,419.7Zm0-37.9c-9,0-16.4,8-16.4,17.9s7.4,18,16.4,18,14.5-1.1,16.5-3.5,1.2-4.7.6-8.2a40.8,40.8,0,0,1-.6-6.3,51,51,0,0,1,.4-5.7c.5-3.8.8-6.7-1-8.7S442.4,381.8,433.6,381.8Z" class="color000000 svgShape"/><ellipse cx="442.9" cy="399.7" fill="#fff" class="colorffffff svgShape" rx="17.5" ry="19"/><path d="M442.9,419.7c-10.2,0-18.5-9-18.5-20s8.3-20,18.5-20,18.5,9,18.5,20S453.1,419.7,442.9,419.7Zm0-37.9c-9.1,0-16.4,8-16.4,17.9s7.3,18,16.4,18,16.5-8.1,16.5-18S452,381.8,442.9,381.8Z" class="color000000 svgShape"/><path fill="#fff" d="M454.5,393.6l-12.2.6s-6.2,5.6-.8,13.6h13Z" class="colorffffff svgShape"/><path d="M454.5,408.8h-13a1,1,0,0,1-.8-.5c-5.8-8.5.8-14.8.9-14.9l.6-.2,12.3-.6a.6.6,0,0,1,.7.2,1.1,1.1,0,0,1,.3.8v14.2A1,1,0,0,1,454.5,408.8Zm-12.4-2h11.4V394.6l-10.8.6C441.7,396.2,438.2,400.7,442.1,406.8Z" class="color000000 svgShape"/><path fill="#fff" d="M487.7,460.1l-10.8,8-12.3-42.7s7-15.8,6.3-21.1,10.8-23.4,1-21.9-22.7,8-23.4,15.9l-2.4,26.9s-6,71.3,10.1,75.9,41.4-6.5,41.4-6.5Z" class="colorffffff svgShape"/><path d="M465.2,503.2a35.4,35.4,0,0,1-9.3-1.1c-7.1-2.1-11.1-15.7-11.8-40.6-.5-18.3,1-36.2,1-36.4s1.7-19.1,2.4-26.9,14.6-15.4,24.2-16.8c2-.3,3.4.1,4.3,1.2s.2,7.7-1.9,13.2c-1.2,3.3-2.4,6.8-2.2,8.4.7,5.1-5.1,18.8-6.2,21.2l11.8,41,9.6-7.1a1.1,1.1,0,0,1,1-.1.9.9,0,0,1,.6.7l9.9,34.4a.9.9,0,0,1-.6,1.2C497.2,495.9,480.2,503.2,465.2,503.2Zm7.7-119.9H472c-10.1,1.5-21.8,8-22.5,15s-2.4,26.7-2.4,26.9c-1.6,19.6-3.2,71.2,9.4,74.8s35.5-4.3,39.9-6.1l-9.2-32.2-9.7,7.1a1,1,0,0,1-.9.2.9.9,0,0,1-.6-.7l-12.3-42.8a.8.8,0,0,1,0-.7c1.9-4.3,6.8-16.4,6.2-20.5-.3-2.1.9-5.4,2.3-9.3s3.6-9.6,2.2-11.3A1.9,1.9,0,0,0,472.9,383.3Z" class="color000000 svgShape"/><ellipse cx="652.9" cy="406.4" class="color000000 svgShape" rx="17.5" ry="19"/><path d="M652.9,426.4c-10.2,0-18.5-9-18.5-20s8.3-20,18.5-20,14.8,1.3,17.4,4.2,1.9,6.4,1.5,10.3a49.1,49.1,0,0,0-.4,5.5,36.8,36.8,0,0,0,.6,5.9c.6,3.8,1.1,7.3-1.1,9.9S662.9,426.4,652.9,426.4Zm0-38c-9.1,0-16.5,8.1-16.5,18s7.4,17.9,16.5,17.9,14.4-1.1,16.4-3.4,1.2-4.7.7-8.2a40.4,40.4,0,0,1-.7-6.3,50.4,50.4,0,0,1,.5-5.7c.4-3.8.8-6.7-1-8.8S661.6,388.4,652.9,388.4Z" class="color000000 svgShape"/><ellipse cx="662.2" cy="406.4" fill="#fff" class="colorffffff svgShape" rx="17.5" ry="19"/><path d="M662.2,426.4c-10.2,0-18.5-9-18.5-20s8.3-20,18.5-20,18.4,9,18.4,20S672.3,426.4,662.2,426.4Zm0-38c-9.1,0-16.5,8.1-16.5,18s7.4,17.9,16.5,17.9,16.4-8,16.4-17.9S671.2,388.4,662.2,388.4Z" class="color000000 svgShape"/><path fill="#fff" d="M670.2,465.6l28,17.7-11.8-45.8S666.7,428.7,664,417s-2.1-19.3,2.6-20.8,30.7-3.4,30.7,0,9.3,36.9,9.3,36.9,45.3,86,23.9,92.1-74.2-24.4-74.2-24.4Z" class="colorffffff svgShape"/><path d="M724,527c-24,0-66.2-24.1-68.2-25.3a1,1,0,0,1-.4-1.2l13.8-35.3a1.1,1.1,0,0,1,.7-.6,1.1,1.1,0,0,1,.8.1L696.5,481l-10.9-42.8c-3.1-1.4-20-9.8-22.6-21-3-13-1.9-20.4,3.3-21.9s27.2-3.5,31.1-.6a1.9,1.9,0,0,1,.9,1.5c0,2.4,5.5,23.1,9.3,36.5,2.1,4,36.5,70,28.4,88.7a7.4,7.4,0,0,1-5.2,4.7A24.8,24.8,0,0,1,724,527Zm-66.4-26.6c6.5,3.7,53.2,29.2,72.6,23.8a6.2,6.2,0,0,0,4-3.6c7.7-18-28.1-86.4-28.4-87.1s-.1-.1-.1-.2c-1-3.4-9.3-32.9-9.5-36.9-.6-.6-4.1-1.4-13.5-1-7.3.4-13.9,1.2-15.8,1.8-3.9,1.2-4.5,8.1-1.9,19.6s21.6,19.7,21.8,19.8a.9.9,0,0,1,.6.6L699.1,483a1.1,1.1,0,0,1-.3,1.1,1.3,1.3,0,0,1-1.2,0l-26.9-17Z" class="color000000 svgShape"/><path d="M600.6,436.3s40.6,6,70.9,28.7c0,0-5.1,21.6-14.7,38,0,0-15.6-6.5-18.3-6.5s-22.9,54-9.9,129.8c0,0-31,65-115.6-15.9,0,0-.7-60.7,0-117l-20.9,5.3s-9.9-27-3.6-40.5c0,0,20.5-27.4,62-22S600.6,436.3,600.6,436.3Z" class="color000000 svgShape"/><path d="M587.8,652c-21.7,0-47.1-13.7-75.5-40.9a.8.8,0,0,1-.3-.7c0-.6-.7-60.4,0-115.7l-19.7,5a1.1,1.1,0,0,1-1.2-.7c-.4-1.1-9.9-27.5-3.5-41.2,0-.1,0-.1.1-.2s5.3-7.1,15.7-13.3,25.5-11.9,47.2-9.1c40.3,5.2,49.4.3,49.5.2h.7c.4.1,41.1,6.3,71.3,28.9a1,1,0,0,1,.4,1c-.1.2-5.2,22-14.8,38.3a1.1,1.1,0,0,1-1.3.5c-5.7-2.4-15.3-6.2-17.6-6.5-1.5,1.8-6.9,14.9-10.4,37.5a287.5,287.5,0,0,0,1.2,91.1.6.6,0,0,1-.1.6c-.1.2-9.9,20.4-32.8,24.5A43.4,43.4,0,0,1,587.8,652Zm-73.7-42c17.2,16.4,33.5,27.9,48.3,34.2,12.3,5.2,23.7,6.9,33.9,5.1,20.4-3.8,30-20.8,31.3-23.2-12.2-71.7,5.2-124.6,9.6-129.9a1.8,1.8,0,0,1,1.3-.7c2.5,0,14.4,4.8,17.9,6.2,8.2-14.3,13-32.7,13.9-36.3-28.3-20.9-65.7-27.4-69.5-28-2,.9-13,4.7-50.4-.2-21.2-2.8-36.6,3.3-45.9,8.8a58,58,0,0,0-15.1,12.8c-5.4,11.6,1.8,34,3.3,38.7l20.1-5.1a1,1,0,0,1,.9.2,1.2,1.2,0,0,1,.4.8C513.4,546.6,514,604.4,514.1,610Z" class="color000000 svgShape"/><path fill="#fff" d="M591.7,420.6l1,14.4,7.9,1.3s-4.2,17.8-22.9,20.1-27.2-20.2-27.2-20.2l8-.8,3.3-16.9Z" class="colorffffff svgShape"/><path d="M575,457.5c-17.4,0-25.4-20.7-25.5-21a1.1,1.1,0,0,1,.1-.8,1,1,0,0,1,.8-.5l7.3-.7,3.1-16.2a1.1,1.1,0,0,1,1.1-.9l29.9,2.2a.9.9,0,0,1,.9,1l.9,13.6,7.2,1.1a1.2,1.2,0,0,1,.7.5.9.9,0,0,1,.1.7c0,.2-4.6,18.5-23.8,20.9Zm-23-20.4c2,4.5,10.3,20.1,25.5,18.3s20.6-14.5,21.9-18.3l-6.9-1.1a.8.8,0,0,1-.8-.9l-.9-13.5-28.2-2.1-3.1,16.1a1.1,1.1,0,0,1-.9.9Z" class="color000000 svgShape"/><path fill="#fff" d="M610.1,392.7s5,14.6-10.2,13.5c0,0-7.1,23.6-27,23.1s-25.2-35.5-25.2-35.5,6.1-38.6,6.7-38.9,29.5.9,31.2,1.4S599,363,599.5,366s6.9,17.1,7.2,18.9S610.1,392.7,610.1,392.7Z" class="colorffffff svgShape"/><path d="M573.5,430.3h-.6c-20.5-.4-25.9-34.9-26.2-36.3v-.3c.1-.1,1.6-9.8,3.2-19.4,3.2-19.9,3.4-20,4-20.3s.7-.4,15.7.3c4.5.1,15.1.6,16.3,1s14,6.9,14.6,10.6c.3,1.6,2.5,6.9,4.3,11.2s2.7,6.7,2.9,7.6,2.1,5.2,3.3,7.5c0,.1.1.1.1.2s2.4,7.1-1,11.5c-1.9,2.4-5.1,3.6-9.5,3.4C599.1,411.4,591.4,430.3,573.5,430.3Zm-24.7-36.5c.4,2.5,6,34.1,24.1,34.5h.6c18.5,0,25.3-22.1,25.4-22.3a1.1,1.1,0,0,1,1.1-.8c4.1.3,6.9-.5,8.5-2.6s.9-8.9.7-9.5-3.2-6.3-3.5-8.1-1.5-4.1-2.8-7.1c-2-4.9-4.1-9.9-4.4-11.7s-11.1-8.3-13.2-9-25.8-1.4-30.1-1.4C554.3,359.5,551,380,548.8,393.8Z" class="color000000 svgShape"/><path d="M547.7,393.8l9-31.5c12.8,15.6,42.6,12,42.6,12l2.3,24c3.8-12.8,8.5-5.6,8.5-5.6s17.3-43.7-8.9-43.7c0,0,1-7.4-7.3-10.2s-46.2-1.5-46.2-1.5-.9,7.4,6.9,11.8C554.6,349.1,536.6,352.5,547.7,393.8Z" class="color000000 svgShape"/><path d="M601.6,399.3h-.1a.9.9,0,0,1-.9-.9l-2.2-22.9c-5.3.4-29,1.7-41.2-11.1l-8.5,29.7a1,1,0,0,1-1,.7h0a1,1,0,0,1-.9-.7c-6.2-23-3.4-34.4.1-40a13.7,13.7,0,0,1,5.5-5.2,13.4,13.4,0,0,1-5.7-11.8,1.1,1.1,0,0,1,1-.8c1.6-.1,38.1-1.3,46.5,1.5s7.9,7.9,8,10.2c5.1.3,9,2.2,11.4,5.8,8.1,12-2.1,38.2-2.5,39.3a1.1,1.1,0,0,1-.9.6,1,1,0,0,1-.9-.4c0-.1-1.2-1.8-2.5-1.6s-2.5,1-4.2,6.9A1.2,1.2,0,0,1,601.6,399.3Zm-2.3-26a.9.9,0,0,1,.6.3.8.8,0,0,1,.4.6l1.9,19.6c1.2-2.5,2.6-3.9,4.3-4.1a3.8,3.8,0,0,1,3.2,1.1c2.1-5.8,8.7-26.3,2.2-35.9-2.2-3.2-5.8-4.9-10.7-4.9a1.1,1.1,0,0,1-.8-.3.8.8,0,0,1-.2-.8c0-.3.7-6.6-6.6-9.1s-39-1.7-44.9-1.5c0,1.9.7,6.7,6.4,10a1.2,1.2,0,0,1,.5,1c-.1.4-.4.8-.8.8s-3.5.8-6.2,5.2-5.6,14.9-.8,34.6l8-27.8a1.1,1.1,0,0,1,.7-.8,1.2,1.2,0,0,1,1,.4c12.3,14.9,41.4,11.7,41.7,11.6Z" class="color000000 svgShape"/><path d="M677.2,420a57,57,0,0,1-13.5-2,1,1,0,0,1-.6-1.3,1,1,0,0,1,1.2-.7c.2.1,20.8,6.2,24.3-3.4s2.3-12.4,2.2-12.4a.1.1,0,0,1,.1.1l1.7-1.1c.3.5,1.7,3.6-2.1,14.1C688.6,418.6,682.9,420,677.2,420Z" class="color000000 svgShape"/><path fill="#fff" d="M695.8,412.5h-6.1l2.4-10.7h3.7S694.4,409.1,695.8,412.5Z" class="colorffffff svgShape"/><path d="M695.8,413.5h-6.1a.9.9,0,0,1-.8-.4,1.1,1.1,0,0,1-.2-.8l2.4-10.7a1,1,0,0,1,1-.8h3.7a.9.9,0,0,1,.8.4,1.9,1.9,0,0,1,.2.8c-.4,2-1.2,7.5-.1,10.1a.9.9,0,0,1-.1.9A1,1,0,0,1,695.8,413.5Zm-4.8-2h3.4a27.4,27.4,0,0,1,.2-8.7h-1.7Z" class="color000000 svgShape"/><ellipse cx="712.3" cy="406.4" class="color000000 svgShape" rx="17.5" ry="19"/><path d="M712.3,426.4c-10.2,0-18.5-9-18.5-20s8.3-20,18.5-20,14.8,1.3,17.4,4.2,2,6.4,1.5,10.3a49.1,49.1,0,0,0-.4,5.5,36.8,36.8,0,0,0,.6,5.9c.6,3.8,1.1,7.3-1.1,9.9S722.3,426.4,712.3,426.4Zm0-38c-9.1,0-16.4,8.1-16.4,18s7.3,17.9,16.4,17.9,14.4-1.1,16.5-3.4,1.2-4.7.6-8.2a40.8,40.8,0,0,1-.6-6.3,51,51,0,0,1,.4-5.7c.4-3.8.8-6.7-1-8.8S721,388.4,712.3,388.4Z" class="color000000 svgShape"/><ellipse cx="721.6" cy="406.4" fill="#fff" class="colorffffff svgShape" rx="17.5" ry="19"/><path d="M721.6,426.4c-10.2,0-18.5-9-18.5-20s8.3-20,18.5-20,18.4,9,18.4,20S731.8,426.4,721.6,426.4Zm0-38c-9.1,0-16.5,8.1-16.5,18s7.4,17.9,16.5,17.9,16.4-8,16.4-17.9S730.6,388.4,721.6,388.4Z" class="color000000 svgShape"/><ellipse cx="481.8" cy="398.3" class="color000000 svgShape" rx="17.5" ry="19"/><path d="M481.8,418.3c-10.2,0-18.5-9-18.5-20s8.3-20,18.5-20,14.8,1.3,17.4,4.2,1.9,6.4,1.5,10.3a48.9,48.9,0,0,0-.5,5.5,39.3,39.3,0,0,0,.7,6c.5,3.7,1.1,7.2-1.1,9.8S491.7,418.3,481.8,418.3Zm0-37.9c-9.1,0-16.5,8-16.5,17.9s7.4,18,16.5,18,14.4-1.1,16.4-3.5,1.2-4.7.7-8.2a40.4,40.4,0,0,1-.7-6.3,34.5,34.5,0,0,1,.5-5.7c.4-3.8.8-6.7-1-8.8S490.5,380.4,481.8,380.4Z" class="color000000 svgShape"/><ellipse cx="491" cy="398.3" fill="#fff" class="colorffffff svgShape" rx="17.5" ry="19"/><path d="M491,418.3c-10.1,0-18.4-9-18.4-20s8.3-20,18.4-20,18.5,9,18.5,20S501.2,418.3,491,418.3Zm0-37.9c-9,0-16.4,8-16.4,17.9s7.4,18,16.4,18,16.5-8.1,16.5-18S500.1,380.4,491,380.4Z" class="color000000 svgShape"/><rect width="18.1" height="19.37" x="343.1" y="536.8" fill="#fff" class="colorffffff svgShape"/><path d="M361.2,557.2H343.1a1,1,0,0,1-1-1.1V536.8a.9.9,0,0,1,1-1h18.1a1,1,0,0,1,1,1v19.3A1.1,1.1,0,0,1,361.2,557.2Zm-17.1-2.1h16V537.8h-16Z" class="color000000 svgShape"/><path fill="#fff" d="M374.5,562.6v71.9H329.7V562.6A11.6,11.6,0,0,1,341.4,551h21.5A11.6,11.6,0,0,1,374.5,562.6Z" class="colorffffff svgShape"/><path d="M374.5,635.5H329.7a1,1,0,0,1-1-1V562.6A12.6,12.6,0,0,1,341.4,550h21.5a12.5,12.5,0,0,1,12.6,12.6v71.9A.9.9,0,0,1,374.5,635.5Zm-43.7-2h42.7V562.6A10.7,10.7,0,0,0,362.9,552H341.4a10.6,10.6,0,0,0-10.6,10.6Z" class="color000000 svgShape"/><rect width="44.8" height="25.4" x="329.7" y="576.6" fill="#fff" class="colorffffff svgShape"/><path d="M374.5,603H329.7a1,1,0,0,1-1-1V576.6a1,1,0,0,1,1-1h44.8a.9.9,0,0,1,1,1V602A.9.9,0,0,1,374.5,603Zm-43.7-2h42.7V577.6H330.8Z" class="color000000 svgShape"/><rect width="32.6" height="3.12" x="335.8" y="581.7" class="color000000 svgShape"/><rect width="32.6" height="3.12" x="335.8" y="587.2" class="color000000 svgShape"/><rect width="32.6" height="3.12" x="335.8" y="592.8" class="color000000 svgShape"/><rect width="18.1" height="4.52" x="343.1" y="546.5" class="color000000 svgShape"/><path fill="#fff" d="M933.4,684.7s-39-58.6-19.2-152.4c.9-4,6.8-3.7,7.1.4,3.7,41.2,13.2,128.8,30.2,152Z" class="colorffffff svgShape"/><path d="M951.5,685.7H933.4a1,1,0,0,1-.8-.5c-.1-.1-10-15-17.2-41.3-6.7-24.1-12.4-63.2-2.2-111.8a4.6,4.6,0,0,1,4.8-3.7,4.5,4.5,0,0,1,4.3,4.2c3.4,37.8,13,128.2,30,151.5a.9.9,0,0,1,.1,1A1,1,0,0,1,951.5,685.7Zm-17.5-2h15.6c-16-24.9-25.2-104.8-29.3-150.9a2.4,2.4,0,0,0-2.4-2.3,2.5,2.5,0,0,0-2.7,2c-10.2,48.2-4.4,86.9,2.1,110.8S932.3,681,934,683.7Z" class="color000000 svgShape"/><path fill="#fff" d="M1005.9,684.7s39-58.6,19.2-152.4a3.6,3.6,0,0,0-7.1.4c-3.6,41.2-13.2,128.8-30.1,152Z" class="colorffffff svgShape"/><path d="M1005.9,685.7h-18a.9.9,0,0,1-.9-.6.9.9,0,0,1,0-1c17.1-23.3,26.7-113.7,30-151.5a4.6,4.6,0,0,1,9.1-.5c10.3,48.6,4.5,87.7-2.2,111.8-7.2,26.3-17,41.2-17.1,41.3A1.1,1.1,0,0,1,1005.9,685.7Zm-16.1-2h15.6c1.7-2.7,10.2-17,16.6-40.4s12.3-62.6,2.1-110.8a2.3,2.3,0,0,0-2.6-2,2.5,2.5,0,0,0-2.5,2.3C1015,578.9,1005.8,658.8,989.8,683.7Z" class="color000000 svgShape"/><path fill="#fff" d="M965.7,684.7S947.2,583.8,952.9,513a3,3,0,0,0-5.9-1.2c-9.7,30.2-21,90.1,1.1,172.9Z" class="colorffffff svgShape"/><path d="M965.7,685.7H948.1a.9.9,0,0,1-.9-.8c-9.8-36.6-14.1-72.4-12.6-106.4a260.9,260.9,0,0,1,11.4-67,4,4,0,0,1,4.7-2.7,3.8,3.8,0,0,1,3.2,4.3c-5.6,69.8,12.6,170.4,12.8,171.4a.8.8,0,0,1-.2.8A.9.9,0,0,1,965.7,685.7Zm-16.8-2h15.6c-2.1-11.6-17.9-104.8-12.6-170.8a2,2,0,0,0-1.6-2.2,2,2,0,0,0-2.3,1.4C938.8,540.5,926.9,600.6,948.9,683.7Z" class="color000000 svgShape"/><path fill="#fff" d="M976.5,684.7S995,583.8,989.3,513a3,3,0,0,1,5.9-1.2c9.7,30.2,21,90.1-1.1,172.9Z" class="colorffffff svgShape"/><path d="M994.1,685.7H976.5a.9.9,0,0,1-.8-.4,1.1,1.1,0,0,1-.2-.8c.2-1,18.4-101.6,12.8-171.4a3.9,3.9,0,0,1,3.2-4.3,4,4,0,0,1,4.7,2.7c4.5,14,10.1,36.9,11.4,67,1.5,34-2.8,69.8-12.5,106.4A1.1,1.1,0,0,1,994.1,685.7Zm-16.4-2h15.6c22-83.1,10.1-143.2,1-171.6a2,2,0,0,0-4,.8C995.7,578.9,979.8,672.1,977.7,683.7Z" class="color000000 svgShape"/><path fill="#fff" d="M980.4,684.7s8.8-119.9.4-186.9c-.7-6.1-9.3-6.5-10.6-.6-8,33.7-19.4,101.7-9.5,187.5Z" class="colorffffff svgShape"/><path d="M980.4,685.7H960.7a1,1,0,0,1-1-.9c-9.9-86.3,1.7-154.7,9.5-187.8a6.4,6.4,0,0,1,12.6.6c8.3,66.4-.3,186-.3,187.2A1.1,1.1,0,0,1,980.4,685.7Zm-18.8-2h17.9c.8-11.4,8.1-122.8.3-185.8a4.3,4.3,0,0,0-4.1-3.9,4.4,4.4,0,0,0-4.6,3.4C963.4,530.3,951.9,598.1,961.6,683.7Z" class="color000000 svgShape"/><path fill="#fff" d="M938.1,684.7s-21.5-18.1-32.5-68a2.3,2.3,0,0,0-4.6.2c-2.1,16-1.7,45.1,21.8,67.8Z" class="colorffffff svgShape"/><path d="M938.1,685.7H922.8a1.1,1.1,0,0,1-.7-.3c-24-23.1-24.2-52.9-22.1-68.6a3.3,3.3,0,0,1,3.2-3,3.5,3.5,0,0,1,3.4,2.7c10.8,49,31.9,67.2,32.1,67.4a.9.9,0,0,1,.3,1.1A1,1,0,0,1,938.1,685.7Zm-14.9-2h12.3c-5.5-5.7-21.7-25.1-30.9-66.8a1.2,1.2,0,0,0-1.4-1A1.2,1.2,0,0,0,902,617C900,632.3,900.2,661.2,923.2,683.7Z" class="color000000 svgShape"/><path fill="#fff" d="M1000.7,684.7s21.4-18.1,32.4-68a2.4,2.4,0,0,1,4.7.2c2,16,1.7,45.1-21.9,67.8Z" class="colorffffff svgShape"/><path d="M1015.9,685.7h-15.2a1.2,1.2,0,0,1-1-.7,1.1,1.1,0,0,1,.3-1.1c.2-.2,21.4-18.5,32.2-67.4a3.3,3.3,0,0,1,6.6.3c2,15.7,1.8,45.5-22.2,68.6A.9.9,0,0,1,1015.9,685.7Zm-12.7-2h12.3c23.1-22.5,23.3-51.4,21.3-66.7a1.2,1.2,0,0,0-1.3-1.1,1.2,1.2,0,0,0-1.4,1C1024.9,658.6,1008.7,678,1003.2,683.7Z" class="color000000 svgShape"/><polygon fill="#fff" points="1016.8 694.8 1016.8 695.8 1015.6 719.9 1015.6 720.2 1015.2 727.5 1015 733.2 1014.6 740.8 1011.7 799.4 926 799.4 923.1 740.8 922.7 733.2 922.5 727.5 922.1 719.9 921.5 708.4 920.9 695.8 920.9 694.8 1016.8 694.8" class="colorffffff svgShape"/><path d="M1011.7,800.4H926a.9.9,0,0,1-1-.9l-5.1-104.7a.7.7,0,0,1,.2-.7,1.1,1.1,0,0,1,.8-.3h95.9a1.1,1.1,0,0,1,.8.3,1.1,1.1,0,0,1,.3.7v1.1l-5.1,103.6A.9.9,0,0,1,1011.7,800.4Zm-84.8-2h83.9l5-102.6H921.9Z" class="color000000 svgShape"/><polygon points="1015.6 719.9 1015.6 720.2 1015.2 727.5 922.5 727.5 922.1 719.9 1015.6 719.9" class="color000000 svgShape"/><path d="M1015.2,728.5H922.5a.9.9,0,0,1-1-1l-.4-7.6a1,1,0,0,1,1-1h93.5a1.1,1.1,0,0,1,.8.3,1.9,1.9,0,0,1,.2.7v.3l-.3,7.3A1.1,1.1,0,0,1,1015.2,728.5Zm-91.8-2h90.9l.2-5.6H923.2Z" class="color000000 svgShape"/><polygon points="1015 733.2 1014.6 740.8 923.1 740.8 922.7 733.2 1015 733.2" class="color000000 svgShape"/><path d="M1014.6,741.8H923.1a1,1,0,0,1-1-1l-.4-7.6a.9.9,0,0,1,.3-.7,1.1,1.1,0,0,1,.7-.3H1015a1.1,1.1,0,0,1,.7.3.9.9,0,0,1,.3.7l-.4,7.6A1,1,0,0,1,1014.6,741.8Zm-90.5-2h89.5l.3-5.6H923.8Z" class="color000000 svgShape"/><rect width="104.8" height="11.13" x="916.5" y="684.7" class="color000000 svgShape" rx="2.8"/><path d="M1018.4,696.8H919.3a3.8,3.8,0,0,1-3.8-3.8v-5.5a3.8,3.8,0,0,1,3.8-3.8h99.1a3.9,3.9,0,0,1,3.9,3.8V693A3.9,3.9,0,0,1,1018.4,696.8Zm-99.1-11.1a1.8,1.8,0,0,0-1.8,1.8V693a1.8,1.8,0,0,0,1.8,1.8h99.1a1.8,1.8,0,0,0,1.8-1.8v-5.5a1.8,1.8,0,0,0-1.8-1.8Z" class="color000000 svgShape"/><rect width="115.5" height="219.62" x="185.2" y="245" fill="#fff" class="colorffffff svgShape"/><path d="M300.7,465.7H185.2a1,1,0,0,1-1-1.1V245a1,1,0,0,1,1-1H300.7a1.1,1.1,0,0,1,1.1,1V464.6A1.1,1.1,0,0,1,300.7,465.7Zm-114.5-2.1H299.7V246H186.2Z" class="color000000 svgShape"/><polygon fill="#fff" points="308.3 320 308.3 309.9 248 309.9 248 238.3 237.9 238.3 237.9 309.9 176.6 309.9 176.6 320 237.9 320 237.9 386.5 176.6 386.5 176.6 396.6 237.9 396.6 237.9 471.4 248 471.4 248 396.6 308.3 396.6 308.3 386.5 248 386.5 248 320 308.3 320" class="colorffffff svgShape"/><path d="M248,472.4H237.9a1,1,0,0,1-1-1V397.6H176.6a.9.9,0,0,1-1-1V386.5a.9.9,0,0,1,1-1h60.3V321H176.6a.9.9,0,0,1-1-1V309.9a.9.9,0,0,1,1-1h60.3V238.3a.9.9,0,0,1,1-1H248a1,1,0,0,1,1.1,1v70.6h59.2a1,1,0,0,1,1.1,1V320a1,1,0,0,1-1.1,1H249.1v64.5h59.2a1,1,0,0,1,1.1,1v10.1a1,1,0,0,1-1.1,1H249.1v73.8A1.1,1.1,0,0,1,248,472.4Zm-9.1-2H247V396.6a1.1,1.1,0,0,1,1-1h59.3v-8.1H248a1.1,1.1,0,0,1-1-1V320a1.1,1.1,0,0,1,1-1h59.3v-8.1H248a1,1,0,0,1-1-1V239.3h-8.1v70.6a.9.9,0,0,1-1,1H177.6V319h60.3a1,1,0,0,1,1,1v66.5a1,1,0,0,1-1,1H177.6v8.1h60.3a1,1,0,0,1,1,1Z" class="color000000 svgShape"/><path fill="#fff" d="M168,227.8V481.9H317.9V227.8ZM300.7,464.6H185.2V245H300.7Z" class="colorffffff svgShape"/><path d="M317.9,482.9H168a1,1,0,0,1-1-1V227.8a1,1,0,0,1,1-1H317.9a1.1,1.1,0,0,1,1.1,1V481.9A1.1,1.1,0,0,1,317.9,482.9ZM169,480.8H316.9v-252H169Zm131.7-15.1H185.2a1,1,0,0,1-1-1.1V245a1,1,0,0,1,1-1H300.7a1.1,1.1,0,0,1,1.1,1V464.6A1.1,1.1,0,0,1,300.7,465.7Zm-114.5-2.1H299.7V246H186.2Z" class="color000000 svgShape"/><path d="M220.4,265.2a.9.9,0,0,1-.7-.3,1.1,1.1,0,0,1,0-1.5l4.2-4.2a1.1,1.1,0,0,1,1.5,0,1,1,0,0,1,0,1.4l-4.3,4.3A.9.9,0,0,1,220.4,265.2Z" class="color000000 svgShape"/><path d="M196.8,288.8a1.1,1.1,0,0,1-.8-.3,1,1,0,0,1,0-1.4l17.5-17.5a1,1,0,0,1,1.4,1.4l-17.4,17.5A1.1,1.1,0,0,1,196.8,288.8Z" class="color000000 svgShape"/><path d="M211.7,292.4a1.1,1.1,0,0,1-.8-.3,1,1,0,0,1,0-1.4l20-19.9a1,1,0,1,1,1.4,1.4l-19.9,19.9A1.1,1.1,0,0,1,211.7,292.4Z" class="color000000 svgShape"/><path d="M273.1,348.4a1.1,1.1,0,0,1-.7-1.8l16.3-16.2a1,1,0,0,1,1.4,1.4l-16.3,16.3A.9.9,0,0,1,273.1,348.4Z" class="color000000 svgShape"/><path d="M261.5,360a.9.9,0,0,1-.7-.3,1,1,0,0,1,0-1.4l5.5-5.6a1.2,1.2,0,0,1,1.4,0,1.1,1.1,0,0,1,0,1.5l-5.5,5.5A1.1,1.1,0,0,1,261.5,360Z" class="color000000 svgShape"/><path d="M264,376.3a.9.9,0,0,1-.7-.3,1.1,1.1,0,0,1,0-1.5l22.2-22.2a1.1,1.1,0,0,1,1.5,0,1,1,0,0,1,0,1.4L264.7,376A.9.9,0,0,1,264,376.3Z" class="color000000 svgShape"/><path d="M199,436.7a.9.9,0,0,1-.7-.3,1,1,0,0,1,0-1.4l27.9-27.9a1,1,0,0,1,1.4,1.4l-27.9,27.9A1.1,1.1,0,0,1,199,436.7Z" class="color000000 svgShape"/><path d="M212.2,443.3a.9.9,0,0,1-.7-.3,1.1,1.1,0,0,1,0-1.5l16.6-16.6a1,1,0,0,1,1.4,1.4L212.9,443A1.1,1.1,0,0,1,212.2,443.3Z" class="color000000 svgShape"/><path d="M200.9,454.5a1.1,1.1,0,0,1-.7-.3,1,1,0,0,1,0-1.4l5.6-5.6a1.1,1.1,0,0,1,1.5,0,1,1,0,0,1,0,1.4l-5.7,5.6A.9.9,0,0,1,200.9,454.5Z" class="color000000 svgShape"/><rect width="115.5" height="219.62" x="794.5" y="245" fill="#fff" class="colorffffff svgShape"/><path d="M910,465.7H794.5a1,1,0,0,1-1-1.1V245a1,1,0,0,1,1-1H910a1,1,0,0,1,1,1V464.6A1,1,0,0,1,910,465.7Zm-114.5-2.1H909V246H795.5Z" class="color000000 svgShape"/><polygon fill="#fff" points="917.6 320 917.6 309.9 857.3 309.9 857.3 238.3 847.2 238.3 847.2 309.9 785.9 309.9 785.9 320 847.2 320 847.2 386.5 785.9 386.5 785.9 396.6 847.2 396.6 847.2 471.4 857.3 471.4 857.3 396.6 917.6 396.6 917.6 386.5 857.3 386.5 857.3 320 917.6 320" class="colorffffff svgShape"/><path d="M857.3,472.4H847.2a1,1,0,0,1-1-1V397.6H785.9a.9.9,0,0,1-1-1V386.5a.9.9,0,0,1,1-1h60.3V321H785.9a.9.9,0,0,1-1-1V309.9a.9.9,0,0,1,1-1h60.3V238.3a.9.9,0,0,1,1-1h10.1a.9.9,0,0,1,1,1v70.6h59.3a.9.9,0,0,1,1,1V320a.9.9,0,0,1-1,1H858.3v64.5h59.3a.9.9,0,0,1,1,1v10.1a.9.9,0,0,1-1,1H858.3v73.8A1,1,0,0,1,857.3,472.4Zm-9.1-2h8.1V396.6a1.1,1.1,0,0,1,1-1h59.3v-8.1H857.3a1.1,1.1,0,0,1-1-1V320a1.1,1.1,0,0,1,1-1h59.3v-8.1H857.3a1,1,0,0,1-1-1V239.3h-8.1v70.6a1,1,0,0,1-1,1H786.9V319h60.3a1.1,1.1,0,0,1,1,1v66.5a1.1,1.1,0,0,1-1,1H786.9v8.1h60.3a1.1,1.1,0,0,1,1,1Z" class="color000000 svgShape"/><path fill="#fff" d="M777.3,227.8V481.9H927.2V227.8ZM910,464.6H794.5V245H910Z" class="colorffffff svgShape"/><path d="M927.2,482.9H777.3a1,1,0,0,1-1-1V227.8a1,1,0,0,1,1-1H927.2a1,1,0,0,1,1,1V481.9A1,1,0,0,1,927.2,482.9Zm-148.9-2.1H926.2v-252H778.3ZM910,465.7H794.5a1,1,0,0,1-1-1.1V245a1,1,0,0,1,1-1H910a1,1,0,0,1,1,1V464.6A1,1,0,0,1,910,465.7Zm-114.5-2.1H909V246H795.5Z" class="color000000 svgShape"/><path d="M829.7,265.2a.9.9,0,0,1-.7-.3,1.1,1.1,0,0,1,0-1.5l4.2-4.2a1.1,1.1,0,0,1,1.5,0,1,1,0,0,1,0,1.4l-4.3,4.3A1.1,1.1,0,0,1,829.7,265.2Z" class="color000000 svgShape"/><path d="M806,288.8a1.1,1.1,0,0,1-.7-.3,1,1,0,0,1,0-1.4l17.5-17.5a1,1,0,1,1,1.4,1.4l-17.4,17.5A1.1,1.1,0,0,1,806,288.8Z" class="color000000 svgShape"/><path d="M820.9,292.4a1.1,1.1,0,0,1-.7-.3,1,1,0,0,1,0-1.4l20-19.9a1,1,0,1,1,1.4,1.4l-19.9,19.9A1.1,1.1,0,0,1,820.9,292.4Z" class="color000000 svgShape"/><path d="M882.4,348.4a.9.9,0,0,1-.7-.3,1.1,1.1,0,0,1,0-1.5l16.2-16.2a1.1,1.1,0,0,1,1.5,0,1,1,0,0,1,0,1.4l-16.3,16.3A.9.9,0,0,1,882.4,348.4Z" class="color000000 svgShape"/><path d="M870.8,360a1.1,1.1,0,0,1-.8-.3,1,1,0,0,1,0-1.4l5.6-5.6a1.2,1.2,0,0,1,1.4,0,1.1,1.1,0,0,1,0,1.5l-5.5,5.5A1.1,1.1,0,0,1,870.8,360Z" class="color000000 svgShape"/><path d="M873.3,376.3a.9.9,0,0,1-.7-.3,1.1,1.1,0,0,1,0-1.5l22.2-22.2a1,1,0,1,1,1.4,1.4L874,376A1.1,1.1,0,0,1,873.3,376.3Z" class="color000000 svgShape"/><path d="M808.3,436.7a.9.9,0,0,1-.7-.3,1,1,0,0,1,0-1.4l27.9-27.9a1,1,0,1,1,1.4,1.4L809,436.4A1.1,1.1,0,0,1,808.3,436.7Z" class="color000000 svgShape"/><path d="M821.5,443.3a.9.9,0,0,1-.7-.3,1.1,1.1,0,0,1,0-1.5l16.6-16.6a1,1,0,0,1,1.4,1.4L822.2,443A1.1,1.1,0,0,1,821.5,443.3Z" class="color000000 svgShape"/><path d="M810.2,454.5a.9.9,0,0,1-.7-.3,1,1,0,0,1,0-1.4l5.6-5.6a1.1,1.1,0,0,1,1.5,0,1.2,1.2,0,0,1,0,1.4l-5.7,5.6A.9.9,0,0,1,810.2,454.5Z" class="color000000 svgShape"/><rect width="167.2" height="6.86" x="146.3" y="769.3" class="color000000 svgShape"/><path d="M313.5,777.2H146.3a1,1,0,0,1-1-1v-6.9a.9.9,0,0,1,1-1H313.5a.9.9,0,0,1,1,1v6.9A1,1,0,0,1,313.5,777.2Zm-166.2-2.1H312.5v-4.8H147.3Z" class="color000000 svgShape"/><rect width="26.2" height="40.57" x="153.7" y="752.4" fill="#fff" class="colorffffff svgShape"/><path d="M179.9,794H153.7a.9.9,0,0,1-1-1V752.4a1,1,0,0,1,1-1h26.2a1.1,1.1,0,0,1,1,1V793A1,1,0,0,1,179.9,794Zm-25.2-2h24.2V753.4H154.7Z" class="color000000 svgShape"/><rect width="26.2" height="55.99" x="172.5" y="744.7" fill="#fff" class="colorffffff svgShape"/><path d="M198.7,801.7H172.5a.9.9,0,0,1-1-1v-56a1,1,0,0,1,1-1h26.2a1.1,1.1,0,0,1,1,1v56A1,1,0,0,1,198.7,801.7Zm-25.2-2h24.1v-54H173.5Z" class="color000000 svgShape"/><rect width="26.2" height="40.57" x="280.5" y="752.4" fill="#fff" class="colorffffff svgShape" transform="rotate(-180 293.6 772.7)"/><path d="M306.7,794H280.5a1,1,0,0,1-1-1V752.4a1.1,1.1,0,0,1,1-1h26.2a1,1,0,0,1,1,1V793A.9.9,0,0,1,306.7,794Zm-25.2-2h24.2V753.4H281.5Z" class="color000000 svgShape"/><rect width="26.2" height="55.99" x="261.7" y="744.7" fill="#fff" class="colorffffff svgShape" transform="rotate(-180 274.85 772.7)"/><path d="M287.9,801.7H261.7a1,1,0,0,1-1-1v-56a1.1,1.1,0,0,1,1-1h26.2a1,1,0,0,1,1,1v56A.9.9,0,0,1,287.9,801.7Zm-25.1-2h24.1v-54H262.8Z" class="color000000 svgShape"/></svg>