<svg xmlns="http://www.w3.org/2000/svg" data-name="Layer 1" viewBox="0 0 1080 1080"><path fill="#9dbdff" d="M91.5,852.3H933.7c19.4-25.1,21.4-64.8,11.1-94.7s-36.4-54-67.2-61.8c-24-6.2-52.4-3.8-70.2-21.2s-15.6-50.7-.4-72,39.2-34.3,61.9-47.3,46-27.9,58.2-51.1c18.7-35.4,5-81.5-23.4-109.7s-68.3-41.9-107.5-50c-57-11.8-117.6-13.7-172.4,5.9s-103.1,63.2-118,119.5c-6.9,26.2-7.2,55.4-23.5,77.1-13.4,17.9-35.7,27.2-57.9,31s-44.7,2.7-67.1,4.4c-66.3,4.9-130.6,34.3-177.8,81.3S96.7,785.9,91.5,852.3Z" class="color85e5b0 svgShape"/><path d="M962.4,848.4l-.6-.2a1.1,1.1,0,0,1-.3-1.4,458.6,458.6,0,0,0,27.3-54.1c12.5-29.6,27.9-74,29.3-118.1a1.1,1.1,0,0,1,2.1.1c-1.5,44.4-16.9,89.1-29.6,118.8-13.7,32.2-27.2,54.2-27.4,54.4A1,1,0,0,1,962.4,848.4Z" class="color000000 svgShape"/><path fill="#fff" d="M1024.3,686c-6.7,4.9-6.9,13.3-6.9,13.3s8.1,2.2,14.7-2.8,6.9-13.3,6.9-13.3S1030.9,681,1024.3,686Z" class="colorffffff svgShape"/><path d="M1021.7,700.8a23.5,23.5,0,0,1-4.6-.5,1.1,1.1,0,0,1-.7-1c0-.4.3-8.9,7.3-14.1h0c6.9-5.2,15.2-3.1,15.5-3a1,1,0,0,1,.8,1c0,.4-.3,8.9-7.3,14.1A18.2,18.2,0,0,1,1021.7,700.8Zm-3.2-2.3a17.3,17.3,0,0,0,13-2.8c5-3.7,6.1-9.5,6.4-11.7-2.1-.4-8.1-.9-13,2.8A17,17,0,0,0,1018.5,698.5Z" class="color000000 svgShape"/><path fill="#fff" d="M1022.1,721.6c-8,2.3-11.1,10.1-11.1,10.1s6.8,4.9,14.8,2.5,11.1-10,11.1-10S1030.1,719.3,1022.1,721.6Z" class="colorffffff svgShape"/><path d="M1021.3,735.9a19.8,19.8,0,0,1-10.9-3.4,1.1,1.1,0,0,1-.4-1.2c.2-.3,3.5-8.2,11.8-10.7a18.7,18.7,0,0,1,15.6,2.8.9.9,0,0,1,.4,1.2c-.1.3-3.4,8.2-11.8,10.6A15.8,15.8,0,0,1,1021.3,735.9Zm-9-4.6c1.9,1.1,7.2,3.7,13.2,2s9.1-6.8,10.1-8.7c-1.9-1.1-7.3-3.7-13.2-2h0C1016.4,724.3,1013.3,729.4,1012.3,731.3Zm9.8-9.7Z" class="color000000 svgShape"/><path fill="#fff" d="M1015.9,751.1c-8.2,1-12.6,8.1-12.6,8.1s5.9,6,14.1,5,12.7-8.1,12.7-8.1S1024.2,750.2,1015.9,751.1Z" class="colorffffff svgShape"/><path d="M1015.6,765.3a19.9,19.9,0,0,1-13-5.3,1.3,1.3,0,0,1-.2-1.3c.2-.3,4.7-7.5,13.4-8.6h0c8.6-1,14.7,5,15,5.3a.9.9,0,0,1,.1,1.2c-.2.3-4.7,7.6-13.3,8.6Zm-11-6.2c1.7,1.4,6.6,4.8,12.7,4.1s10.1-5.2,11.4-7c-1.7-1.3-6.5-4.8-12.7-4.1h0C1009.9,752.9,1006,757.4,1004.6,759.1Z" class="color000000 svgShape"/><path fill="#fff" d="M1003.9,787.4c-8.3-.1-13.5,6.4-13.5,6.4s5.1,6.7,13.4,6.8,13.5-6.4,13.5-6.4S1012.2,787.5,1003.9,787.4Z" class="colorffffff svgShape"/><path d="M1004,801.6h-.2c-8.7-.1-14-6.9-14.2-7.1a1.1,1.1,0,0,1,0-1.3c.2-.3,5.6-6.8,14.1-6.8h.2c8.7.1,14,6.8,14.2,7.1a1.1,1.1,0,0,1,0,1.3C1017.9,795.1,1012.5,801.6,1004,801.6Zm-12.3-7.7c1.5,1.5,5.9,5.6,12.1,5.6h.2a17.2,17.2,0,0,0,12-5.4c-1.5-1.6-5.9-5.6-12.1-5.7S993.2,792.3,991.7,793.9Z" class="color000000 svgShape"/><path fill="#fff" d="M985.7,824.1c-8.3-.1-13.5,6.4-13.5,6.4s5.1,6.6,13.4,6.7,13.5-6.4,13.5-6.4S994,824.2,985.7,824.1Z" class="colorffffff svgShape"/><path d="M985.8,838.3h-.2c-8.7-.1-14-6.9-14.2-7.2a.9.9,0,0,1,0-1.2c.2-.3,5.6-6.8,14.1-6.8h.2c8.7.1,14,6.8,14.2,7.1a1.1,1.1,0,0,1,0,1.3C999.7,831.7,994.3,838.3,985.8,838.3Zm-12.3-7.8c1.5,1.6,5.9,5.7,12.1,5.7s10.6-3.8,12.2-5.4c-1.5-1.6-5.9-5.6-12.1-5.7h-.2C979.4,825.1,975,829,973.5,830.5Z" class="color000000 svgShape"/><path fill="#fff" d="M999.8,706.5c6.1,5.7,14.3,4.5,14.3,4.5s.8-8.3-5.2-14-14.3-4.5-14.3-4.5S993.8,700.8,999.8,706.5Z" class="colorffffff svgShape"/><path d="M1012.1,712.1a18.6,18.6,0,0,1-13-4.9h0c-6.3-5.9-5.6-14.5-5.6-14.8s.4-.9.9-.9,8.8-1.3,15.2,4.7,5.6,14.5,5.5,14.9a1.1,1.1,0,0,1-.8.9Zm-11.6-6.3c4.5,4.2,10.5,4.4,12.6,4.3,0-2.2-.4-8.1-4.9-12.4s-10.5-4.4-12.7-4.3C995.5,695.6,996,701.5,1000.5,705.8Z" class="color000000 svgShape"/><path fill="#fff" d="M1011.4,663.9c.6,8.3,7.6,12.9,7.6,12.9s6.1-5.6,5.5-13.9-7.6-12.9-7.6-12.9S1010.7,655.6,1011.4,663.9Z" class="colorffffff svgShape"/><path d="M1019,677.8h-.6c-.3-.2-7.4-5.1-8-13.7s5.5-14.5,5.8-14.8a1.2,1.2,0,0,1,1.3-.1c.3.2,7.3,5,8,13.7s-5.6,14.5-5.9,14.8Zm-2-26.5c-1.4,1.6-5.1,6.3-4.6,12.5s4.8,10.3,6.4,11.7c1.5-1.6,5.1-6.3,4.7-12.5S1018.7,652.7,1017,651.3Z" class="color000000 svgShape"/><path fill="#fff" d="M992.2,739c6.1,5.7,14.3,4.5,14.3,4.5s.8-8.3-5.2-14S987,725,987,725,986.2,733.3,992.2,739Z" class="colorffffff svgShape"/><path d="M1004.5,744.6a18.9,18.9,0,0,1-13-4.8h0c-6.3-6-5.6-14.5-5.5-14.9a1,1,0,0,1,.8-.9c.4-.1,8.8-1.2,15.2,4.7s5.6,14.6,5.5,14.9a.9.9,0,0,1-.8.9Zm-11.6-6.3c4.5,4.3,10.5,4.4,12.6,4.3,0-2.2-.4-8.1-4.9-12.4s-10.5-4.4-12.7-4.3C988,728.1,988.4,734,992.9,738.3Z" class="color000000 svgShape"/><path fill="#fff" d="M982.4,770.3c6,5.7,14.3,4.5,14.3,4.5s.8-8.3-5.3-14-14.3-4.5-14.3-4.5S976.4,764.6,982.4,770.3Z" class="colorffffff svgShape"/><path d="M994.7,775.9a18.6,18.6,0,0,1-13-4.9h0c-6.3-5.9-5.6-14.5-5.6-14.8s.4-.9.9-.9,8.8-1.3,15.1,4.7a18.9,18.9,0,0,1,5.6,14.9,1.1,1.1,0,0,1-.8.9Zm-16.6-18.7c0,2.2.5,8.1,5,12.4h0c4.5,4.2,10.5,4.4,12.6,4.3,0-2.2-.4-8.1-4.9-12.4S980.3,757.1,978.1,757.2Z" class="color000000 svgShape"/><path fill="#fff" d="M967.7,804.6c6,5.7,14.3,4.5,14.3,4.5s.7-8.3-5.3-14-14.3-4.5-14.3-4.5S961.6,798.9,967.7,804.6Z" class="colorffffff svgShape"/><path d="M980,810.2c-3,0-8.6-.6-13-4.9-6.3-5.9-5.6-14.5-5.6-14.8a.9.9,0,0,1,.9-.9c.3-.1,8.8-1.3,15.1,4.7s5.6,14.5,5.6,14.9a1.2,1.2,0,0,1-.9.9Zm-16.6-18.7c0,2.2.5,8.1,5,12.4h0c4.5,4.2,10.4,4.4,12.6,4.3,0-2.2-.5-8.1-5-12.4S965.6,791.4,963.4,791.5Z" class="color000000 svgShape"/><path d="M143.4,764.1a1,1,0,0,1-1-.7,472,472,0,0,1-10.9-59.9c-3.8-32.1-5.9-79.3,5.2-122.3a.9.9,0,0,1,1.2-.7.9.9,0,0,1,.7,1.2c-11,42.7-8.8,89.6-5.1,121.5,4.1,34.6,10.8,59.4,10.9,59.7a1,1,0,0,1-.7,1.2Z" class="color000000 svgShape"/><path fill="#fff" d="M129.6,590.9c4.9,6.6,2.8,14.7,2.8,14.7s-8.4-.2-13.3-6.9-2.9-14.7-2.9-14.7S124.6,584.2,129.6,590.9Z" class="colorffffff svgShape"/><path d="M132.4,606.6h0c-.4,0-8.9-.3-14.2-7.3s-3-15.2-3-15.5a1.1,1.1,0,0,1,1-.8h0c.4,0,9,.3,14.2,7.2h0c5.2,7,3.1,15.3,3,15.6A1.1,1.1,0,0,1,132.4,606.6ZM117,585.1c-.3,2.1-.9,8.1,2.9,13s9.5,6.1,11.7,6.4c.3-2.2.9-8.1-2.8-13h0C125,586.5,119.2,585.4,117,585.1Z" class="color000000 svgShape"/><path fill="#fff" d="M121.6,625.7c7,4.4,7.8,12.7,7.8,12.7s-7.9,2.8-14.9-1.7-7.8-12.8-7.8-12.8S114.6,621.2,121.6,625.7Z" class="colorffffff svgShape"/><path d="M123.7,640.3a17.9,17.9,0,0,1-9.7-2.7c-7.4-4.7-8.3-13.2-8.3-13.6a.9.9,0,0,1,.7-1c.3-.1,8.4-2.9,15.7,1.8h0c7.4,4.7,8.3,13.2,8.3,13.5a.9.9,0,0,1-.7,1.1A17.6,17.6,0,0,1,123.7,640.3Zm-15.9-15.6c.5,2.1,2,7.8,7.3,11.2s11.1,2.3,13.2,1.8c-.5-2.1-2-7.8-7.3-11.2h0C115.8,623.2,110,624.2,107.8,624.7Z" class="color000000 svgShape"/><path fill="#fff" d="M119.2,655.7c7.6,3.3,9.8,11.4,9.8,11.4s-7.3,4-15,.7-9.8-11.3-9.8-11.3S111.6,652.5,119.2,655.7Z" class="colorffffff svgShape"/><path d="M120.4,670.1a17.6,17.6,0,0,1-6.8-1.4,18.7,18.7,0,0,1-10.3-12,.8.8,0,0,1,.4-1.1c.4-.2,7.9-4.2,15.9-.8h0c8,3.4,10.3,11.6,10.4,12a1,1,0,0,1-.5,1.1A18.9,18.9,0,0,1,120.4,670.1ZM105.5,657c.7,2,3.2,7.4,8.9,9.9s11.4.5,13.4-.4c-.8-2-3.3-7.4-9-9.8h0C113.1,654.2,107.5,656.1,105.5,657Z" class="color000000 svgShape"/><path fill="#fff" d="M120.5,693.9c8,2.3,11.1,10,11.1,10s-6.7,4.9-14.7,2.7-11.2-10-11.2-10S112.5,691.7,120.5,693.9Z" class="colorffffff svgShape"/><path d="M121.2,708.2a15.6,15.6,0,0,1-4.6-.7c-8.4-2.3-11.7-10.2-11.8-10.5a.9.9,0,0,1,.3-1.2c.3-.2,7.3-5.2,15.6-2.9s11.7,10.3,11.9,10.6a1,1,0,0,1-.4,1.2A19.6,19.6,0,0,1,121.2,708.2ZM107,697c1,1.9,4.2,6.9,10.2,8.6s11.3-1,13.1-2.1c-1-1.9-4.1-6.9-10.1-8.6A17,17,0,0,0,107,697Z" class="color000000 svgShape"/><path fill="#fff" d="M127.6,734.2c8,2.3,11.1,10,11.1,10s-6.7,4.9-14.7,2.7-11.2-10-11.2-10S119.6,732,127.6,734.2Z" class="colorffffff svgShape"/><path d="M128.3,748.5a19.4,19.4,0,0,1-4.6-.6c-8.4-2.4-11.7-10.3-11.8-10.6a1,1,0,0,1,.3-1.2c.3-.2,7.3-5.2,15.6-2.8s11.7,10.2,11.9,10.5a1,1,0,0,1-.4,1.2A19.6,19.6,0,0,1,128.3,748.5Zm-14.2-11.2c1,1.9,4.2,6.9,10.2,8.6s11.3-1,13.1-2.1c-1-1.9-4.1-6.9-10.1-8.6S116,736.2,114.1,737.3Z" class="color000000 svgShape"/><path fill="#fff" d="M147.2,617.4c-7.4,3.8-15,.3-15,.3s1.7-8.2,9.1-12,14.9-.2,14.9-.2S154.6,613.7,147.2,617.4Z" class="colorffffff svgShape"/><path d="M139.7,620.2a20.1,20.1,0,0,1-7.9-1.6,1.1,1.1,0,0,1-.6-1.1c.1-.3,1.8-8.7,9.6-12.7s15.5-.4,15.9-.3a1.1,1.1,0,0,1,.5,1.2c0,.3-1.8,8.7-9.5,12.6h0A17.9,17.9,0,0,1,139.7,620.2Zm-6.3-3.1c2.1.7,7.8,2.3,13.4-.6h0c5.5-2.8,7.6-8.3,8.2-10.4-2-.7-7.8-2.3-13.3.5S134.1,615,133.4,617.1Zm13.8.3Z" class="color000000 svgShape"/><path fill="#fff" d="M148.2,573.3c-3,7.8-11,10.3-11,10.3s-4.3-7.2-1.3-15,10.9-10.2,10.9-10.2S151.1,565.5,148.2,573.3Z" class="colorffffff svgShape"/><path d="M137.2,584.6a1,1,0,0,1-.8-.5c-.2-.3-4.6-7.7-1.5-15.8s11.2-10.8,11.6-10.9a1.1,1.1,0,0,1,1.2.4c.1.4,4.5,7.7,1.4,15.9s-11.2,10.7-11.6,10.8Zm9.1-25c-2,.9-7.3,3.6-9.5,9.4s0,11.3.9,13.3c2-.8,7.3-3.6,9.5-9.4S147.2,561.6,146.3,559.6Z" class="color000000 svgShape"/><path fill="#fff" d="M145.3,650.8c-7.4,3.8-15,.3-15,.3s1.7-8.2,9.1-12,14.9-.3,14.9-.3S152.7,647,145.3,650.8Z" class="colorffffff svgShape"/><path d="M137.8,653.6a20.1,20.1,0,0,1-7.9-1.6,1.3,1.3,0,0,1-.6-1.1c.1-.4,1.8-8.8,9.6-12.7s15.5-.5,15.9-.3a.9.9,0,0,1,.5,1.1,19.2,19.2,0,0,1-9.5,12.7A17.9,17.9,0,0,1,137.8,653.6Zm-6.3-3.2a17.3,17.3,0,0,0,13.4-.5c5.5-2.8,7.6-8.4,8.2-10.5-2-.7-7.8-2.2-13.3.6S132.2,648.4,131.5,650.4Z" class="color000000 svgShape"/><path fill="#fff" d="M145.9,683.5c-7.4,3.8-15,.3-15,.3s1.6-8.2,9-12,15-.2,15-.2S153.3,679.8,145.9,683.5Z" class="colorffffff svgShape"/><path d="M138.4,686.3a20.1,20.1,0,0,1-7.9-1.6,1.1,1.1,0,0,1-.6-1.1c.1-.3,1.8-8.7,9.6-12.7s15.5-.4,15.9-.2a.9.9,0,0,1,.5,1.1c0,.3-1.8,8.7-9.5,12.7A17.7,17.7,0,0,1,138.4,686.3Zm-6.3-3.1c2.1.7,7.8,2.3,13.4-.6h0c5.5-2.8,7.6-8.3,8.2-10.4-2-.7-7.8-2.3-13.3.5S132.8,681.1,132.1,683.2Z" class="color000000 svgShape"/><path fill="#fff" d="M150.4,720.6c-7.4,3.8-15,.3-15,.3s1.6-8.2,9-12,15-.3,15-.3S157.8,716.8,150.4,720.6Z" class="colorffffff svgShape"/><path d="M142.9,723.4a20.1,20.1,0,0,1-7.9-1.6,1,1,0,0,1-.6-1.1c.1-.4,1.8-8.7,9.6-12.7s15.5-.4,15.8-.3a1,1,0,0,1,.6,1.1c-.1.4-1.8,8.8-9.5,12.7h0A17.9,17.9,0,0,1,142.9,723.4Zm-6.3-3.1c2.1.7,7.8,2.2,13.3-.6h0c5.6-2.8,7.7-8.4,8.3-10.4-2.1-.8-7.8-2.3-13.3.5S137.2,718.2,136.6,720.3Zm13.8.3Z" class="color000000 svgShape"/><path fill="#fff" d="M135.7,852.3l31.1-6.3s-3.6-40.4-11.8-65.8l-11.6,6.9,8-17.2a162.5,162.5,0,0,0-22-39.2l-6.7,6.1L124,724a162.6,162.6,0,0,0-37.1-32.2s-1.8,7.3-2.3,20l9.3,14L84.5,723C85.4,753.2,94.5,801.5,135.7,852.3Z" class="colorffffff svgShape"/><path d="M135.7,853.3a.9.9,0,0,1-.8-.4C94,802.5,84.4,754.5,83.5,723.1a1.3,1.3,0,0,1,.4-.9,1,1,0,0,1,.9-.1l6.7,1.9-7.7-11.7a.7.7,0,0,1-.2-.6c.5-12.6,2.2-19.9,2.3-20.2a1,1,0,0,1,1.5-.6,164.7,164.7,0,0,1,37.4,32.4,1.1,1.1,0,0,1,.3.8L124,734.3l4.7-4.4a.8.8,0,0,1,.8-.2.7.7,0,0,1,.7.4,161.7,161.7,0,0,1,22.1,39.4,1.1,1.1,0,0,1,0,.8l-6.6,14.3,8.8-5.2a1,1,0,0,1,.9-.1.9.9,0,0,1,.6.6c8.1,25.2,11.8,65.6,11.8,66a1,1,0,0,1-.8,1.1l-31.1,6.3ZM85.6,724.4c1.1,31,10.9,77.7,50.5,126.8l29.6-6c-.6-6-4.2-40.5-11.2-63.4L144,787.9a.9.9,0,0,1-1.2-.1,1,1,0,0,1-.3-1.2l7.8-16.8a166.4,166.4,0,0,0-21-37.6l-5.9,5.3a1.1,1.1,0,0,1-1.2.2.9.9,0,0,1-.5-1l1.3-12.4a167,167,0,0,0-35.4-30.9,128.5,128.5,0,0,0-2,18.1l9.2,13.7a1,1,0,0,1-1.2,1.5Z" class="color000000 svgShape"/><path d="M152.9,848.4a1,1,0,0,1-1-.8c-.1-.7-14.6-71.8-42-107.2a1,1,0,0,1,1.6-1.3c27.7,35.9,42.3,107.4,42.4,108.1a1,1,0,0,1-.8,1.2Z" class="color000000 svgShape"/><path fill="#fff" d="M149.3,834.6,190.2,845s18.9-50.5,23.7-85.6l-17.8,1.5,19.4-16a218.4,218.4,0,0,0-3.7-59.6l-11.6,3.5,9-14.6a218.3,218.3,0,0,0-26-59.9s-6.4,7.8-14.2,22.6l3.1,22.1-9.7-8.6C146.1,686.9,129.2,750.1,149.3,834.6Z" class="colorffffff svgShape"/><path d="M190.2,846h-.3L149,835.5a1,1,0,0,1-.7-.7C128.4,751,144.5,688,161.5,649.9a.9.9,0,0,1,.7-.5,1,1,0,0,1,.9.2l7.6,6.8L168,637a.7.7,0,0,1,.1-.6,165.9,165.9,0,0,1,14.3-22.8,1.4,1.4,0,0,1,.9-.3,1,1,0,0,1,.8.5A220.8,220.8,0,0,1,210.2,674a2.5,2.5,0,0,1-.1.8l-7.7,12.3,9.1-2.7a.8.8,0,0,1,.8.1c.3.1.4.3.5.6a217.8,217.8,0,0,1,3.7,59.9.8.8,0,0,1-.4.7l-16.8,14,14.6-1.3a.9.9,0,0,1,.8.4.8.8,0,0,1,.2.8c-4.8,34.8-23.6,85.2-23.8,85.8A.9.9,0,0,1,190.2,846Zm-40.1-12.3,39.4,10.1c2.5-6.7,18.5-51.2,23.3-83.2L196.2,762a1.2,1.2,0,0,1-1-.7.8.8,0,0,1,.3-1.1l19-15.8a214.3,214.3,0,0,0-3.5-57.8l-10.5,3.2a1.1,1.1,0,0,1-1.1-.4.9.9,0,0,1-.1-1.1l8.8-14.2a213.5,213.5,0,0,0-25-58,154.9,154.9,0,0,0-13.1,21l3.1,21.8a1,1,0,0,1-.5,1,1,1,0,0,1-1.2-.1l-8.6-7.8C146.2,689.9,130.8,751.7,150.1,833.7Z" class="color000000 svgShape"/><path d="M172.8,839.7h-.3a.9.9,0,0,1-.7-1.2c.2-.9,23.8-94.4,11.3-152.7a1,1,0,0,1,.8-1.2,1,1,0,0,1,1.2.8c6.6,30.7,3.1,70.8-.9,99.1-4.4,30.6-10.4,54.3-10.5,54.5A.9.9,0,0,1,172.8,839.7Z" class="color000000 svgShape"/><path fill="#fff" d="M802.6,852.3s-7-28.9,27.2-29.5,75.8,29.5,75.8,29.5Z" class="colorffffff svgShape"/><path d="M905.6,853.3h-103a1.1,1.1,0,0,1-1-.8c-.1-.5-2.8-12.2,4.1-21.2,4.8-6.1,12.9-9.3,24.1-9.5h.9c33.9,0,75.1,29.3,75.5,29.6a1.1,1.1,0,0,1,.4,1.2A1,1,0,0,1,905.6,853.3Zm-102.1-2h98.9c-9.7-6.5-43.4-27.5-71.7-27.5h-.9c-10.6.2-18.1,3.1-22.5,8.8S803,848.6,803.5,851.3Z" class="color000000 svgShape"/><path d="M845.7,841.3c-24.8,0-41.8-3.9-42-4a.9.9,0,0,1-.7-1.2.9.9,0,0,1,1.2-.7,219.1,219.1,0,0,0,76.6,1.1,1,1,0,0,1,1.1.9.9.9,0,0,1-.8,1.1A218.7,218.7,0,0,1,845.7,841.3Z" class="color000000 svgShape"/><path fill="#fff" d="M125.7,852.4s73.7-89.8,199.5-87.1,166.3,87.1,166.3,87.1Z" class="colorffffff svgShape"/><path d="M491.5,853.4H125.7a1.1,1.1,0,0,1-1-.6,1,1,0,0,1,.2-1c.2-.3,18.9-22.8,52.8-44.8a273.3,273.3,0,0,1,62.9-30.2,255.3,255.3,0,0,1,84.6-12.5c28.8.7,55.5,5.6,79.4,14.8a184.2,184.2,0,0,1,51.5,30c25.8,21.3,36.2,42.7,36.3,42.9a1.2,1.2,0,0,1-.1,1A.9.9,0,0,1,491.5,853.4Zm-363.6-2H489.8c-2.8-5.1-13.5-22.9-35-40.8-23.5-19.4-65-42.8-129.6-44.2s-115.3,22.2-146.3,42.3C150.5,827,132.8,845.8,127.9,851.4Z" class="color000000 svgShape"/><path d="M276,802.1h-7c-42.6-.4-72.9-3.7-73.2-3.7a1,1,0,0,1-.9-1.2,1.2,1.2,0,0,1,1.1-.9c.3.1,30.6,3.4,73,3.7,39.2.4,97-1.9,150.2-14.3a1,1,0,0,1,1.2.8,1,1,0,0,1-.7,1.2C369.4,799.4,314.9,802.1,276,802.1Z" class="color000000 svgShape"/><path d="M161.3,833.6H145.7a1,1,0,0,1-1-1,.9.9,0,0,1,1-1c.6,0,57.4.8,121.5-3.1,84.7-5.1,143.6-16.2,170.5-32a1,1,0,0,1,1.4.3,1.1,1.1,0,0,1-.4,1.4c-15.2,9-40,16.4-73.9,22.1-27,4.5-59.8,8-97.5,10.3C223.2,833.2,182.6,833.6,161.3,833.6Z" class="color000000 svgShape"/><rect width="195.7" height="155.61" x="642.7" y="230.2" fill="#fff" class="colorffffff svgShape" rx="21.7"/><path d="M816.7,386.8H664.4a22.6,22.6,0,0,1-22.7-22.6V251.9a22.7,22.7,0,0,1,22.7-22.7H816.7a22.7,22.7,0,0,1,22.7,22.7V364.2A22.7,22.7,0,0,1,816.7,386.8ZM664.4,231.2a20.7,20.7,0,0,0-20.7,20.7V364.2a20.7,20.7,0,0,0,20.7,20.6H816.7a20.7,20.7,0,0,0,20.7-20.6V251.9a20.7,20.7,0,0,0-20.7-20.7Z" class="color000000 svgShape"/><polygon points="975.7 852.3 962.7 852.3 943.9 640.7 957 640.7 975.7 852.3" class="color000000 svgShape"/><path d="M975.7,853.3h-13a1.1,1.1,0,0,1-1-.9L942.9,640.8a1.1,1.1,0,0,1,.3-.8,1.1,1.1,0,0,1,.7-.3H957a1.1,1.1,0,0,1,1,.9l18.8,211.6a1.3,1.3,0,0,1-.3.8A1.1,1.1,0,0,1,975.7,853.3Zm-12-2h10.9L956,641.7H945Z" class="color000000 svgShape"/><polygon points="621.2 852.3 634.2 852.3 653 640.7 640 640.7 621.2 852.3" class="color000000 svgShape"/><path d="M634.2,853.3h-13a.9.9,0,0,1-.7-.3,1.3,1.3,0,0,1-.3-.8L639,640.6a1.1,1.1,0,0,1,1-.9h13a1,1,0,0,1,1.1,1.1L635.3,852.4A1.1,1.1,0,0,1,634.2,853.3Zm-11.9-2h11l18.6-209.6H641Z" class="color000000 svgShape"/><rect width="389.3" height="22.34" x="600.3" y="629.5" fill="#fff" class="colorffffff svgShape"/><path d="M989.7,652.9H600.3a1.1,1.1,0,0,1-1-1V629.5a1.1,1.1,0,0,1,1-1H989.7a1.1,1.1,0,0,1,1,1v22.4A1.1,1.1,0,0,1,989.7,652.9Zm-388.4-2H988.7V630.5H601.3Z" class="color000000 svgShape"/><rect width="389.3" height="22.34" x="600.3" y="663.5" fill="#fff" class="colorffffff svgShape"/><path d="M989.7,686.9H600.3a1.1,1.1,0,0,1-1-1.1V663.5a1,1,0,0,1,1-1H989.7a1,1,0,0,1,1,1v22.3A1.1,1.1,0,0,1,989.7,686.9Zm-388.4-2.1H988.7V664.5H601.3Z" class="color000000 svgShape"/><rect width="389.3" height="22.34" x="600.3" y="697.5" fill="#fff" class="colorffffff svgShape"/><path d="M989.7,720.8H600.3a1,1,0,0,1-1-1V697.5a1,1,0,0,1,1-1H989.7a1,1,0,0,1,1,1v22.3A1,1,0,0,1,989.7,720.8Zm-388.4-2H988.7V698.5H601.3Z" class="color000000 svgShape"/><rect width="411.3" height="15.19" x="589.3" y="735.9" fill="#fff" class="colorffffff svgShape"/><path d="M1000.7,752.1H589.3a1.1,1.1,0,0,1-1-1V735.9a1,1,0,0,1,1-1h411.4a1,1,0,0,1,1,1v15.2A1.1,1.1,0,0,1,1000.7,752.1Zm-410.3-2H999.7V736.9H590.4Z" class="color000000 svgShape"/><path d="M1019,853.8H41.5a1.5,1.5,0,0,1-1.5-1.5,1.5,1.5,0,0,1,1.5-1.5H1019a1.5,1.5,0,0,1,1.5,1.5A1.5,1.5,0,0,1,1019,853.8Z" class="color000000 svgShape"/><path fill="#fff" d="M576.8,677.8s10.3,16.6,23.8,27.7,86.1,102.9,86.1,102.9,10.8-2.2,10.8-13.2a22.5,22.5,0,0,0-7.2-16.9s-22.2-57.4-37.4-74.7-34.7-28-44.3-47.5S576.8,677.8,576.8,677.8Z" class="colorffffff svgShape"/><path d="M686.7,809.4a.8.8,0,0,1-.8-.4c-.8-.9-72.7-91.8-85.9-102.7s-24-27.8-24.1-28a.9.9,0,0,1,0-1c.6-1.1,14.9-27.4,26-27.4h.1c3.1,0,5.6,2,7.5,5.8,5.9,12,15.6,20.6,25.9,29.6a215.5,215.5,0,0,1,18.3,17.6c14.8,16.9,35.6,70.2,37.4,74.8a23.3,23.3,0,0,1,7.4,17.5c0,11.7-11.5,14.2-11.6,14.2ZM577.9,677.8c1.9,2.8,11.5,17.1,23.4,26.9s79.3,94.4,85.7,102.6c2.2-.6,9.5-3.4,9.5-12.1a21.2,21.2,0,0,0-6.9-16.1l-.3-.4c-.2-.6-22.3-57.4-37.1-74.4a184.1,184.1,0,0,0-18.1-17.4c-10.4-9.3-20.3-18-26.4-30.3-1.6-3.1-3.4-4.7-5.7-4.7h-.1C593.9,651.9,582.2,670.1,577.9,677.8Z" class="color000000 svgShape"/><path fill="#fff" d="M441.3,584s-30.6,8.7-31.3,23.4,57,149.5,57,149.5,16.6,20,24.7-1.5c-19.5-46.3-4.4-108.4-34-131.9l9.9-3.3S458.2,587.3,441.3,584Z" class="colorffffff svgShape"/><path d="M481.1,766.4c-7.5,0-14.6-8.5-14.9-8.9s-.1-.1-.2-.2c-2.3-5.5-57.7-135.1-57-149.9s30.8-24,32.1-24.4h.4c17.3,3.4,26.7,35.6,27.1,36.9a1.1,1.1,0,0,1-.7,1.3l-8.1,2.7c15.9,14,18.2,40,20.6,67.5,2,21.6,3.9,43.9,12.2,63.6a.9.9,0,0,1,0,.7c-2.3,6.3-5.7,9.8-9.9,10.5Zm-13.3-10.1c.9,1.1,8.1,9,14.6,7.9,3.4-.5,6.1-3.5,8.2-8.8-8.3-19.9-10.3-42.2-12.2-63.8-2.4-27.9-4.8-54.2-21.3-67.3a1.3,1.3,0,0,1-.4-1,1.1,1.1,0,0,1,.7-.8l9-2.9c-1.7-5.3-10.7-31.5-25-34.6-2.8.9-29.7,9.3-30.4,22.5S465.7,751.3,467.8,756.3Z" class="color000000 svgShape"/><path fill="#fff" d="M530.3,601.4s17.3,43,46.2,81.3c0,0,19.6-13.3,38-23.8,0,0-22.8-78.8-22.8-90.7S530.3,601.4,530.3,601.4Z" class="colorffffff svgShape"/><path d="M576.5,683.8a1.2,1.2,0,0,1-.8-.4c-28.6-38-46.2-81.2-46.4-81.6a1,1,0,0,1,.4-1.2c.1-.1,13.4-9.8,27.4-19,25.8-16.8,31.9-17.2,34.1-16.1a2.7,2.7,0,0,1,1.5,2.7c0,11.6,22.5,89.6,22.8,90.4a1.1,1.1,0,0,1-.5,1.2c-18.2,10.3-37.7,23.7-37.9,23.8Zm-45-82c2.4,5.7,19.1,44.7,45.3,79.6,3.8-2.6,20.5-13.9,36.5-23-2.5-8.6-22.6-78.8-22.6-90.2,0-.7-.2-.8-.4-.9s-6.9-.4-32.1,16C546,591.3,534.3,599.7,531.5,601.8Z" class="color000000 svgShape"/><path fill="#fff" d="M504.2,553.7l-63.9,28.9s18,22.4,23.5,40.9c0,0,96.1-11.6,122.9-30.4s-2.1-53-2.1-53l-51.1-9.2Z" class="colorffffff svgShape"/><path d="M463.8,624.5a1,1,0,0,1-1-.7c-5.3-18.1-23.1-40.3-23.3-40.5a1,1,0,0,1-.2-.9.9.9,0,0,1,.5-.7l63.9-28.9,29.2-22.7.8-.2,51.1,9.2a.9.9,0,0,1,.6.3c.6.8,15.7,18.9,13.4,36.4-.9,7.3-4.8,13.4-11.6,18.1-26.6,18.8-119.4,30.1-123.3,30.6ZM441.9,583c3.5,4.6,17.5,23.1,22.6,39.4,9.5-1.2,96.7-12.6,121.6-30.1,6.2-4.4,9.8-10,10.7-16.8,2-15.4-10.9-32.1-12.7-34.5l-50.3-9-28.9,22.5h-.2Zm62.3-29.3Z" class="color000000 svgShape"/><path fill="#fff" d="M495.2,493s-16.8,31.7-25.7,32.7-71.7-54.9-71.7-54.9-20.8-7.3-22.3-22.9c0,0,5.3-13.9,23.1-16,0,0,4.4,4.3,5.6,6.5,0,0,4.4-2.5,6,.5s.5,14.3.5,14.3L463.8,490l5.2-16.1Z" class="colorffffff svgShape"/><path d="M469.2,526.7c-2.1,0-8.6-1.8-39.5-27.3-15.8-13-30.8-26.3-32.4-27.7S376,463.4,374.4,448a.9.9,0,0,1,.1-.5c.2-.6,5.8-14.4,24-16.6a.8.8,0,0,1,.8.2,60.4,60.4,0,0,1,5.3,6,6.6,6.6,0,0,1,4.3-.5,3.9,3.9,0,0,1,2.2,1.8c1.5,2.8.9,11.7.7,14.3l51.5,35.7,4.7-14.8a1.2,1.2,0,0,1,.7-.7,1,1,0,0,1,.9.2l26.2,19.1a1.1,1.1,0,0,1,.3,1.3c-1.8,3.3-17.3,32.1-26.4,33.2ZM376.5,448c1.7,14.7,21.4,21.8,21.6,21.8l.4.2c.1.2,15.9,14.2,32.5,27.8,30.1,24.8,36.9,27.1,38.4,26.9,6.6-.8,19.5-22.2,24.5-31.4l-24.4-17.7-4.7,14.7a.9.9,0,0,1-.6.6.9.9,0,0,1-.9-.1L410.2,454a1.1,1.1,0,0,1-.5-.9c.4-4.3.6-11.8-.4-13.8a2.5,2.5,0,0,0-1-.8c-1.2-.3-3,.5-3.6.8h-.8l-.6-.5c-.8-1.6-3.7-4.6-5.1-6C382.8,435,377.2,446.3,376.5,448Z" class="color000000 svgShape"/><polygon points="474.7 435.2 463.8 483.6 490 507.6 502.6 484.3 474.7 435.2" class="color000000 svgShape"/><path d="M490,508.6l-.7-.2-26.2-24.1a.8.8,0,0,1-.3-.9l10.9-48.5a.8.8,0,0,1,.8-.7.9.9,0,0,1,1,.5l28,49.1a.9.9,0,0,1,0,1l-12.6,23.3a1,1,0,0,1-.8.5Zm-25.1-25.4L489.7,506l11.8-21.7-26.4-46.4Z" class="color000000 svgShape"/><path fill="#fff" d="M599.9,399.7s33,8.7,37.8,16.2,0,99.5,0,99.5,7.7,20.6-3.3,31.8c0,0-14.1,4.7-27.1-7.6,0,0,.5-6.1,1.4-8.5,0,0-4.7-1.8-3.4-4.9s10.6-9.5,10.6-9.5L610,433l-18.3-2.7Z" class="colorffffff svgShape"/><path d="M627.6,549.1c-5.5,0-13.4-1.6-21-8.8a.9.9,0,0,1-.4-.8,70.2,70.2,0,0,1,1.3-7.8,7.6,7.6,0,0,1-3.2-3,3.7,3.7,0,0,1,0-2.9c1.2-2.9,8.5-8.2,10.6-9.6l-5.8-82.3-17.5-2.6a.8.8,0,0,1-.7-.4,1.3,1.3,0,0,1-.2-.8l8.2-30.6a1,1,0,0,1,1.3-.7c1.3.3,33.4,8.8,38.4,16.5s.7,89.6.2,99.9c.8,2.4,7.2,21.6-3.7,32.7l-.4.3A30.3,30.3,0,0,1,627.6,549.1Zm-19.3-9.9c11.6,10.6,23.7,7.7,25.5,7.1,10.2-10.7,3.1-30.4,3-30.6s-.1-.2-.1-.4c2-36.8,3.6-93.6.2-98.9s-26.5-12.8-36.3-15.4L593,429.5l17.2,2.5a.9.9,0,0,1,.8.9l5.9,83.7a.9.9,0,0,1-.4.9c-3.5,2.4-9.5,7.1-10.3,9.1a1.5,1.5,0,0,0,0,1.3c.5,1.1,2.3,2,2.9,2.3a1,1,0,0,1,.5,1.3A44.1,44.1,0,0,0,608.3,539.2Z" class="color000000 svgShape"/><path fill="#fff" d="M476.4,378.9l13.4,27.2s2.7-7.6,22.4-13.4l-13.7-33.1s-12.2,2.8-12.8,2.3S476.4,378.9,476.4,378.9Z" class="colorffffff svgShape"/><path d="M489.8,407.1a1,1,0,0,1-.9-.6l-13.4-27.1a1.4,1.4,0,0,1,0-.9c8.6-17.4,9.4-17.5,10-17.6h.5c1.1.1,7-1.1,12.2-2.3a1.1,1.1,0,0,1,1.2.6l13.7,33.1a1.1,1.1,0,0,1,0,.8.6.6,0,0,1-.6.5c-19,5.6-21.7,12.7-21.8,12.8a1.1,1.1,0,0,1-.9.7Zm-12.3-28.2,12.4,25c1.9-2.6,7.3-7.7,20.9-11.9l-13-31.2c-7.6,1.7-10.5,2.2-11.8,2.1C484.8,364.6,480.5,372.9,477.5,378.9Zm8.8-17.8h0Z" class="color000000 svgShape"/><path d="M449.1,339.9a16.1,16.1,0,0,1-10-4.2A15.9,15.9,0,0,1,434,326c-.4-3.1.2-6.5,2.4-8.7s6.3-2.5,8.4-.2a87.9,87.9,0,0,1,15.2-7.2c5.3-1.8,11.2-2.6,16.6-1.1a21.7,21.7,0,0,1,12.1,8.2c4.5.1,8.6,3.1,11.1,6.7s3.9,8.1,4.9,12.5,1.5,7.6,1,11.4-3.3,9.4-5.9,13.7c-1.5,2.6-3.3,5.4-6,6.7s-7.7.8-11-1.3-5.6-5.2-8.2-8.1C467.5,350.6,459.9,340.4,449.1,339.9Z" class="color000000 svgShape"/><path d="M489.9,369.9a14.6,14.6,0,0,1-7.6-2.4,36.9,36.9,0,0,1-7.3-6.9l-1.1-1.3-2.3-2.7c-6.6-7.5-13.4-15.2-22.5-15.7h0A17.2,17.2,0,0,1,433,326.1c-.5-3.8.5-7.3,2.7-9.5a7.5,7.5,0,0,1,5.5-2.1,5.9,5.9,0,0,1,3.7,1.3,98.5,98.5,0,0,1,14.8-6.9c6.1-2,12.1-2.4,17.2-1.1a22.7,22.7,0,0,1,12.3,8.2c4.2.3,8.5,2.9,11.5,7.2s4,8.4,5,12.8a35,35,0,0,1,1,11.7c-.7,5.3-3.5,9.9-6,14.1-1.5,2.5-3.4,5.6-6.5,7.1A9.4,9.4,0,0,1,489.9,369.9Zm-40.7-31c10,.5,17.4,8.9,23.9,16.4.8.9,1.5,1.8,2.3,2.6l1.2,1.4a32.2,32.2,0,0,0,6.8,6.5c2.6,1.7,6.6,3,9.9,1.3s4.3-4.1,5.7-6.4c2.3-3.9,5-8.4,5.7-13.2s-.2-7.5-1-11.1-2.2-8.5-4.7-12.1-6.6-6.2-10.3-6.3a.9.9,0,0,1-.8-.4,20.8,20.8,0,0,0-11.5-7.8c-4.8-1.3-10.3-.9-16.1,1.1a88.2,88.2,0,0,0-15,7,1,1,0,0,1-1.3-.2,4.3,4.3,0,0,0-2.8-1.2,6.2,6.2,0,0,0-4,1.5c-1.8,1.8-2.6,4.7-2.2,7.9a15.1,15.1,0,0,0,4.8,9,14.9,14.9,0,0,0,9.4,4Z" class="color000000 svgShape"/><path fill="#fff" d="M446.2,335.2S444.1,380,461,388.5s26.1-25.4,26.1-25.4l-4.7-4.2s6.8-4.5,3.4-11.8-12.8.9-12.8.9,0-14.8-4.7-16.4S459.2,340.4,446.2,335.2Z" class="colorffffff svgShape"/><path d="M466.4,390.9a12.8,12.8,0,0,1-5.8-1.5c-17.4-8.7-15.5-52.4-15.4-54.2a.8.8,0,0,1,.5-.8.8.8,0,0,1,.9-.1c7.7,3.1,12.1.4,15.6-1.8s4.2-2.6,6.4-1.9c4.3,1.5,5.2,11.1,5.3,15.4,2.1-1.4,5.7-3.4,8.8-2.7a5.6,5.6,0,0,1,4,3.4c2.9,6.1-.8,10.5-2.8,12.2l3.9,3.5a1.5,1.5,0,0,1,.3,1c-.3.9-5.9,21.5-16.9,26.4A11.3,11.3,0,0,1,466.4,390.9Zm-19.2-54.3c-.2,7.6-.3,43.7,14.3,51a9.7,9.7,0,0,0,8.9.4c9.1-4.1,14.5-21.1,15.5-24.5l-4.2-3.9a.8.8,0,0,1-.3-.8,1.2,1.2,0,0,1,.4-.8c.3-.1,6.1-4.1,3.1-10.4a3.8,3.8,0,0,0-2.6-2.4c-3-.6-7.3,2.4-8.7,3.6a1,1,0,0,1-1,.2,1.1,1.1,0,0,1-.6-1c0-5.4-1.1-14.4-4.1-15.5-1.2-.4-2.4.4-4.6,1.7S455.1,339.3,447.2,336.6Z" class="color000000 svgShape"/><path d="M485.4,485.8s-29.5-53.1,7.1-83.3,109.3-2.1,109.3-2.1L596.4,433H559.5s1.9,77.3,34.4,122.2c0,0-19.9-14.1-43.4-14.1s-46.3,12.6-46.3,12.6-3.6-6.1,1.7-10.1S485.4,485.8,485.4,485.8Z" class="color000000 svgShape"/><path d="M593.9,556.2l-.6-.2c-.2-.2-19.9-13.9-42.8-13.9s-45.5,12.4-45.8,12.5a.9.9,0,0,1-1.3-.4c-1.4-2.4-2.9-7.8,1.9-11.4.2-.2,2.3-2.8-8.6-29.2-5.6-13.5-11.8-26.7-12.2-27.4a106.1,106.1,0,0,1-10.2-30.6c-3.8-22.7,2.3-41.3,17.6-53.9,19.2-15.9,48.2-15.6,69.2-12.6a211.3,211.3,0,0,1,41.1,10.4,1,1,0,0,1,.6,1.1l-5.4,32.5a1.1,1.1,0,0,1-1,.9H560.6a325.6,325.6,0,0,0,4.9,43.1c4.1,22.7,12.5,54.5,29.2,77.5a.9.9,0,0,1-.1,1.3A1.1,1.1,0,0,1,593.9,556.2ZM539.6,389.5c-16.2,0-33.6,3.2-46.4,13.8-14.9,12.2-20.6,29.7-17,51.9a110.4,110.4,0,0,0,10.1,30.1h.1c0,.2,6.5,13.7,12.2,27.5,3.3,8.1,5.8,14.8,7.3,19.8,2.6,8.8,1.7,10.9.6,11.8a6.4,6.4,0,0,0-1.8,7.9c4.6-2.3,25-12.3,45.8-12.3,17.2,0,32.6,7.6,39.8,11.7-15.1-22.9-22.9-52.7-26.8-74.3a318.2,318.2,0,0,1-5-44.4.9.9,0,0,1,.3-.7,1.1,1.1,0,0,1,.7-.3h36.1l5.1-30.9a221,221,0,0,0-40-10A152.2,152.2,0,0,0,539.6,389.5Z" class="color000000 svgShape"/><path fill="#fff" d="M561,434H546.2a1,1,0,0,1-1-1,.9.9,0,0,1,1-1H561a1,1,0,0,1,1,1A1.1,1.1,0,0,1,561,434Z" class="colorffffff svgShape"/><path fill="#fff" d="M492.9,503.2a1.2,1.2,0,0,1-.9-.5c-.1-.3-15.4-26.5-18.5-52.5a1.2,1.2,0,0,1,.9-1.1,1,1,0,0,1,1.2.9c3,25.5,18,51.4,18.2,51.7a.9.9,0,0,1-.4,1.3Z" class="colorffffff svgShape"/><path d="M686.7,808.4s12,13.8,12.7,22.4-1.9,21.5-1.9,21.5h9.6s15.9-13.5,12.1-27.7-4.8-23.9-3.6-28.5-6.8-19.3-25.3-17.8C690.3,778.3,699.9,793,686.7,808.4Z" class="color000000 svgShape"/><path d="M707.1,853.3h-9.6a1.2,1.2,0,0,1-.8-.4.8.8,0,0,1-.2-.8c0-.2,2.6-12.8,1.9-21.2s-12.4-21.7-12.5-21.8a1,1,0,0,1,0-1.3c12.6-14.7,3.9-28.4,3.5-29a.9.9,0,0,1,0-1,.8.8,0,0,1,.8-.5c12.4-1,19.4,5,22.4,8.6s4.6,7.9,4,10.5c-1.3,4.7,0,14.9,3.6,27.9,3.9,14.7-11.7,28.2-12.4,28.7A.9.9,0,0,1,707.1,853.3Zm-8.4-2h8.1c2-1.9,14.8-14.1,11.4-26.5s-5-23.8-3.6-28.9c.4-1.7-.7-5.2-3.5-8.7s-8.7-8.3-19.2-8c2.1,4.2,6.5,16.5-3.9,29.2,2.4,2.9,11.8,14.4,12.4,22.3S699.4,847.8,698.7,851.3Z" class="color000000 svgShape"/><path d="M467,756.9s-9.4,15.7-17.5,19l-18.8,7.9.8,6.1s17.7,10.9,30.1,2.9,21.2-11.9,25.9-12.2,11.3-12.3,4.2-29.5C491.7,751.1,485.7,764.8,467,756.9Z" class="color000000 svgShape"/><path d="M450.9,796.8c-10,0-19.4-5.7-19.9-6.1a.8.8,0,0,1-.5-.7l-.8-6.1a1.1,1.1,0,0,1,.6-1.1l18.9-7.8c7.6-3.2,16.8-18.5,16.9-18.6a.9.9,0,0,1,1.2-.4c17.6,7.3,23.2-4.8,23.5-5.3a.9.9,0,0,1,.9-.6h0a.9.9,0,0,1,.9.6c5,12.2,3.4,22,.2,27.1-1.5,2.3-3.4,3.7-5.2,3.8-4.9.3-14.1,4.7-25.5,12.1A20,20,0,0,1,450.9,796.8Zm-18.5-7.6c2.7,1.6,18,9.7,28.6,2.8s21.2-12.1,26.5-12.4c1.1,0,2.5-1.1,3.6-2.9,2.8-4.4,4.2-12.7.4-23.3-2.6,3.5-9.7,10.5-24.1,4.8-2,3.2-10.1,15.6-17.5,18.7l-18.1,7.5Z" class="color000000 svgShape"/><rect width="16.9" height="9.09" x="692.9" y="271.7" fill="#fff" class="colorffffff svgShape" rx="1.2" transform="rotate(-45.2 701.44 276.197)"/><path d="M698.6,285.9a2.2,2.2,0,0,1-1.5-.6l-4.8-4.7a2.2,2.2,0,0,1,0-3.2l10.2-10.3a2.3,2.3,0,0,1,3.1,0l4.8,4.8a2.1,2.1,0,0,1,0,3.1h0l-10.2,10.3A2.3,2.3,0,0,1,698.6,285.9Zm5.5-17.4c-.1,0-.1,0-.1.1l-10.3,10.3h0l4.8,4.8h.2L709,273.5v-.2l-4.8-4.7A.1.1,0,0,0,704.1,268.5Zm5.6,5.8Z" class="color000000 svgShape"/><rect width="16.9" height="9.09" x="774.2" y="271.7" fill="#fff" class="colorffffff svgShape" rx="1.2" transform="rotate(-134.8 782.633 276.227)"/><path d="M785.4,285.9a2.3,2.3,0,0,1-1.6-.6L773.6,275h0a2.1,2.1,0,0,1,0-3.1l4.7-4.8a2.3,2.3,0,0,1,3.1,0l10.3,10.3a2.4,2.4,0,0,1,0,3.2l-4.8,4.7A2.2,2.2,0,0,1,785.4,285.9ZM775,273.5l10.2,10.4h.3l4.7-4.8a.1.1,0,0,0,0-.2L780,268.6c-.1-.1-.2-.1-.2,0l-4.8,4.7c-.1.1-.1.2,0,.2Z" class="color000000 svgShape"/><rect width="11.4" height="16.36" x="736.1" y="252.7" fill="#fff" class="colorffffff svgShape"/><path d="M747.5,270.1H736.1a1.1,1.1,0,0,1-1-1V252.7a1,1,0,0,1,1-1h11.4a.9.9,0,0,1,1,1v16.4A1,1,0,0,1,747.5,270.1ZM737.2,268h9.3V253.7h-9.3Z" class="color000000 svgShape"/><circle cx="741.8" cy="315.7" r="50.6" class="color000000 svgShape"/><path d="M741.8,367.3a51.6,51.6,0,1,1,51.7-51.6A51.7,51.7,0,0,1,741.8,367.3Zm0-101.2a49.6,49.6,0,1,0,49.6,49.6A49.7,49.7,0,0,0,741.8,266.1Z" class="color000000 svgShape"/><circle cx="741.8" cy="315.7" r="40.5" fill="#fff" class="colorffffff svgShape"/><path d="M741.8,357.2a41.5,41.5,0,1,1,41.5-41.5A41.6,41.6,0,0,1,741.8,357.2Zm0-81a39.5,39.5,0,1,0,39.5,39.5A39.5,39.5,0,0,0,741.8,276.2Z" class="color000000 svgShape"/><rect width="23.7" height="12.77" x="730" y="244.5" class="color000000 svgShape" rx="1.7"/><path d="M752.1,258.3H731.6a2.7,2.7,0,0,1-2.6-2.7v-9.5a2.6,2.6,0,0,1,2.6-2.6h20.5a2.6,2.6,0,0,1,2.6,2.6v9.5A2.7,2.7,0,0,1,752.1,258.3Zm-20.5-12.8a.6.6,0,0,0-.6.6v9.5a.6.6,0,0,0,.6.6h20.5a.6.6,0,0,0,.6-.6v-9.5a.6.6,0,0,0-.6-.6Z" class="color000000 svgShape"/><path d="M725,337.9l-.7-.2a1,1,0,0,1-.1-1.4l16.3-20.6-16.3-17.2a1.1,1.1,0,0,1,.1-1.5,1.1,1.1,0,0,1,1.4.1L742.6,315a1.1,1.1,0,0,1,0,1.3l-16.8,21.2A.9.9,0,0,1,725,337.9Z" class="color000000 svgShape"/><circle cx="607" cy="303" r="15.3" fill="#fff" class="colorffffff svgShape"/><path d="M607,319.3A16.3,16.3,0,1,1,623.4,303,16.3,16.3,0,0,1,607,319.3Zm0-30.6A14.3,14.3,0,1,0,621.4,303,14.3,14.3,0,0,0,607,288.7Z" class="color000000 svgShape"/><circle cx="565.8" cy="326" r="7.7" fill="#fff" class="colorffffff svgShape"/><path d="M565.8,334.7a8.7,8.7,0,1,1,8.7-8.7A8.7,8.7,0,0,1,565.8,334.7Zm0-15.4a6.7,6.7,0,0,0-6.7,6.7,6.6,6.6,0,0,0,6.7,6.6,6.5,6.5,0,0,0,6.6-6.6A6.6,6.6,0,0,0,565.8,319.3Z" class="color000000 svgShape"/><path fill="#fff" d="M859.3,234.7c-8.9-16.2-27.3-1-27.3-1s-18.4-15.2-27.3,1c-12.9,23.7,27.3,39.8,27.3,39.8S872.2,258.4,859.3,234.7Z" class="colorffffff svgShape"/><path d="M832,275.5h-.4c-1-.4-23.8-9.7-29.3-24.9-1.9-5.4-1.4-10.8,1.5-16.3s5.7-7,9.8-7.7c7.8-1.5,16,4.1,18.4,5.9,2.3-1.8,10.6-7.5,18.4-5.9,4.1.7,7.4,3.4,9.8,7.7h0c2.9,5.5,3.4,10.9,1.5,16.3-5.5,15.2-28.4,24.5-29.3,24.9Zm-15.7-47.3-2.4.3c-3.4.6-6.2,2.9-8.3,6.7a17.2,17.2,0,0,0-1.4,14.6c4.8,13.3,24.8,22.3,27.8,23.6,3-1.3,23-10.3,27.8-23.6,1.7-4.8,1.2-9.7-1.4-14.6s-4.9-6.1-8.4-6.7c-8-1.6-17.3,5.9-17.4,6a1,1,0,0,1-1.3,0C831.3,234.4,823.7,228.2,816.3,228.2Z" class="color000000 svgShape"/><polygon fill="#fff" points="842.7 246.8 836.1 246.8 836.1 240.1 827.9 240.1 827.9 246.8 821.2 246.8 821.2 254.9 827.9 254.9 827.9 261.6 836.1 261.6 836.1 254.9 842.7 254.9 842.7 246.8" class="colorffffff svgShape"/><path d="M836.1,262.6h-8.2a1,1,0,0,1-1-1v-5.7h-5.7a1,1,0,0,1-1-1v-8.1a1,1,0,0,1,1-1h5.7v-5.7a1,1,0,0,1,1-1h8.2a1,1,0,0,1,1,1v5.7h5.6a1,1,0,0,1,1.1,1v8.1a1,1,0,0,1-1.1,1h-5.6v5.7A1,1,0,0,1,836.1,262.6Zm-7.2-2H835v-5.7a1.1,1.1,0,0,1,1.1-1h5.6v-6.1h-5.6a1,1,0,0,1-1.1-1v-5.7h-6.1v5.7a.9.9,0,0,1-1,1h-5.6v6.1h5.6a1,1,0,0,1,1,1Z" class="color000000 svgShape"/><rect width="156.9" height="113.5" x="164.5" y="451.4" fill="#fff" class="colorffffff svgShape" rx="15.2"/><path d="M306.2,565.9H179.7a16.2,16.2,0,0,1-16.2-16.2V466.6a16.1,16.1,0,0,1,16.2-16.2H306.2a16.2,16.2,0,0,1,16.2,16.2v83.1A16.3,16.3,0,0,1,306.2,565.9ZM179.7,452.4a14.2,14.2,0,0,0-14.2,14.2v83.1a14.2,14.2,0,0,0,14.2,14.2H306.2a14.2,14.2,0,0,0,14.1-14.2V466.6a14.2,14.2,0,0,0-14.1-14.2Z" class="color000000 svgShape"/><circle cx="360" cy="531.6" r="13.1" fill="#fff" class="colorffffff svgShape"/><path d="M360,545.7a14.1,14.1,0,1,1,14.1-14.1A14.1,14.1,0,0,1,360,545.7Zm0-26.2a12.1,12.1,0,1,0,12.1,12.1A12.1,12.1,0,0,0,360,519.5Z" class="color000000 svgShape"/><circle cx="400.7" cy="520.4" r="6.5" fill="#fff" class="colorffffff svgShape"/><path d="M400.7,527.9a7.6,7.6,0,1,1,7.5-7.5A7.6,7.6,0,0,1,400.7,527.9Zm0-13.1a5.6,5.6,0,1,0,5.5,5.6A5.6,5.6,0,0,0,400.7,514.8Z" class="color000000 svgShape"/><path d="M284.2,485.5c-13.3-24.4-41.1-1.5-41.1-1.5s-27.7-22.9-41,1.5c-19.4,35.6,41,59.8,41,59.8S303.5,521.1,284.2,485.5Z" class="color000000 svgShape"/><path d="M243.1,546.3h-.4c-1.4-.6-35.6-14.6-43.8-37.2-2.8-8-2.1-16.1,2.3-24.1,3.5-6.4,8.3-10.3,14.3-11.4,11.9-2.3,24.6,6.7,27.6,9.1,3-2.4,15.7-11.4,27.7-9.1,5.9,1.1,10.8,5,14.3,11.4,4.3,8,5.1,16.1,2.2,24.1-8.1,22.6-42.3,36.6-43.8,37.2Zm-23.7-71.1a13.9,13.9,0,0,0-3.5.4c-5.4,1-9.7,4.5-12.9,10.4-4.1,7.5-4.8,15-2.1,22.4,7.3,20.6,38.4,34.2,42.2,35.8,3.8-1.6,34.9-15.2,42.3-35.8,2.7-7.4,1.9-14.9-2.1-22.4-3.2-5.9-7.6-9.4-12.9-10.4-12.4-2.4-26.5,9-26.6,9.1a1.1,1.1,0,0,1-1.3,0C242.4,484.6,230.8,475.2,219.4,475.2Z" class="color000000 svgShape"/><path fill="#fff" d="M227.5,524.2a.9.9,0,0,1-.9-.5L220,510.8h-6.1a1,1,0,0,1-1-1,.9.9,0,0,1,1-1h6.7a1.1,1.1,0,0,1,.9.5l5.6,11,6.1-27.5a1,1,0,0,1,.9-.8,1,1,0,0,1,1,.8l5.9,20.3,2.2-4.6a1,1,0,0,1,.9-.6H253l5-10.1a1.1,1.1,0,0,1,.9-.5.9.9,0,0,1,.9.6l4.3,10.9h7.8a.9.9,0,0,1,1,1,1,1,0,0,1-1,1h-8.5a1,1,0,0,1-.9-.7l-3.7-9.3-4.2,8.6a1.3,1.3,0,0,1-.9.6h-9l-2.9,6.4a1.1,1.1,0,0,1-1,.6.9.9,0,0,1-.9-.7l-5.6-19.2-5.9,26.3a.8.8,0,0,1-.8.8Z" class="colorffffff svgShape"/></svg>