<svg xmlns="http://www.w3.org/2000/svg" data-name="Layer 1" viewBox="0 0 1080 1080"><path fill="#9dbdff" d="M989.7,872.6H108c-30.8-27.3-35.6-78.9-26.1-118.9s42.4-73.7,82.2-84.2c23.5-6.1,51.9-6.8,65.5-26.9,16-23.8-1.4-55-16.5-79.4a536.9,536.9,0,0,1-66-157.2c-9.7-39.7-14.2-83.7,5.4-119.5,17-31.1,50.2-50.8,84.6-59.2,89.6-21.9,183.3,25.9,248.3,91.3S595.4,466.4,653,538.4c22.8,28.4,51.8,57.3,88.2,58.3,38.3,1,74.1-29.8,111.5-21.7s56.3,52.9,67.5,91C940.4,734.9,969.5,803.7,989.7,872.6Z" class="color85e5b0 svgShape"/><path d="M475.2,868.9a.8.8,0,0,1-.7-.2c-.2-.1-22.5-15.2-49.3-39.9-24.8-22.8-58.6-58.7-79-100.1a1.2,1.2,0,0,1,.6-1.8,1.3,1.3,0,0,1,1.7.6c20.2,41.1,53.8,76.7,78.4,99.4a480.5,480.5,0,0,0,49,39.7,1.3,1.3,0,0,1,.4,1.8A1.6,1.6,0,0,1,475.2,868.9Z" class="color000000 svgShape"/><path fill="#fff" d="M347.3,741c8.5,1.9,12.2,9.7,12.2,9.7s-6.7,5.5-15.1,3.7-12.3-9.7-12.3-9.7S338.9,739.1,347.3,741Z" class="colorffffff svgShape"/><path d="M347.9,756a16.9,16.9,0,0,1-3.8-.4A20,20,0,0,1,331,745.2a1.2,1.2,0,0,1,.3-1.5c.3-.3,7.3-5.9,16.3-4s12.9,10.1,13.1,10.4a1.4,1.4,0,0,1-.3,1.6A21.7,21.7,0,0,1,347.9,756Zm-14-11a17.1,17.1,0,0,0,10.8,8.1c6,1.3,11.1-1.5,13.1-2.8a17.3,17.3,0,0,0-10.8-8h0C341,740.9,335.8,743.7,333.9,745Z" class="color000000 svgShape"/><path fill="#fff" d="M364.7,773.9c8.5-1.2,14.8,4.8,14.8,4.8s-4.4,7.5-12.9,8.7-14.9-4.8-14.9-4.8S356.1,775.1,364.7,773.9Z" class="colorffffff svgShape"/><path d="M364.3,788.9c-7.8,0-13.2-5.1-13.5-5.3a1.4,1.4,0,0,1-.2-1.6c.2-.3,4.8-8.1,13.9-9.4s15.6,4.9,15.9,5.2a1.2,1.2,0,0,1,.2,1.5c-.2.4-4.8,8.1-13.8,9.4Zm-10.8-6.5a17.8,17.8,0,0,0,12.9,3.8c6.1-.9,10-5.3,11.4-7.3-1.9-1.4-6.9-4.6-13-3.7S354.9,780.5,353.5,782.4Z" class="color000000 svgShape"/><path fill="#fff" d="M383.2,799.3c8.2-2.6,15.4,2.3,15.4,2.3s-3.1,8.1-11.3,10.7-15.4-2.3-15.4-2.3S374.9,801.9,383.2,799.3Z" class="colorffffff svgShape"/><path d="M382.3,814.4a22.4,22.4,0,0,1-11.2-3.3,1.3,1.3,0,0,1-.5-1.5c.2-.4,3.4-8.8,12.2-11.6s16.2,2.3,16.5,2.5a1.3,1.3,0,0,1,.5,1.5c-.1.4-3.4,8.8-12.1,11.5A17.9,17.9,0,0,1,382.3,814.4Zm-8.8-4.9c2.1,1.1,7.5,3.4,13.4,1.6a17.6,17.6,0,0,0,10-9c-2.1-1.1-7.5-3.5-13.3-1.6A17.9,17.9,0,0,0,373.5,809.5Z" class="color000000 svgShape"/><path fill="#fff" d="M410.1,828.6c7.8-3.7,15.6.2,15.6.2s-2,8.5-9.8,12.2-15.6-.3-15.6-.3S402.2,832.2,410.1,828.6Z" class="colorffffff svgShape"/><path d="M408.7,843.8a20,20,0,0,1-9-2,1.2,1.2,0,0,1-.7-1.4c.1-.4,2.2-9.1,10.5-13h0c8.4-3.9,16.4.1,16.8.3a1.4,1.4,0,0,1,.7,1.4c-.1.4-2.3,9.2-10.6,13A17.7,17.7,0,0,1,408.7,843.8Zm-6.9-3.9c2.3.9,7.9,2.5,13.5-.1s8-8,8.8-10.2c-2.2-.9-7.9-2.5-13.5.1h0C405,832.3,402.6,837.7,401.8,839.9Zm8.3-11.3Z" class="color000000 svgShape"/><path fill="#fff" d="M443.1,855.6c7.8-3.7,15.6.3,15.6.3s-2,8.4-9.9,12.1-15.6-.3-15.6-.3S435.2,859.2,443.1,855.6Z" class="colorffffff svgShape"/><path d="M441.6,870.8a23,23,0,0,1-9-1.9,1.3,1.3,0,0,1-.6-1.5c.1-.4,2.2-9.1,10.5-13h0c8.3-3.9,16.4.1,16.8.3a1.3,1.3,0,0,1,.6,1.5c-.1.3-2.2,9.1-10.5,13A19.1,19.1,0,0,1,441.6,870.8Zm-6.8-3.8c2.3.8,7.9,2.4,13.5-.2s8-8,8.8-10.2c-2.2-.8-7.9-2.4-13.5.2h0C438,859.4,435.6,864.7,434.8,867Zm8.3-11.4Z" class="color000000 svgShape"/><path fill="#fff" d="M379.3,750c-3.3,8-11.6,10.4-11.6,10.4s-4.3-7.6-1.1-15.6,11.7-10.4,11.7-10.4S382.6,742,379.3,750Z" class="colorffffff svgShape"/><path d="M367.7,761.7a1.5,1.5,0,0,1-1.2-.7c-.2-.3-4.5-8.2-1.1-16.7s12.2-11,12.5-11.1a1.3,1.3,0,0,1,1.5.6c.2.3,4.6,8.2,1.1,16.7s-12.1,11-12.5,11.1Zm9.9-25.7c-2.2.9-7.4,3.6-9.8,9.3s-.4,11.3.5,13.5c2.2-.9,7.5-3.6,9.8-9.3A17.8,17.8,0,0,0,377.6,736Z" class="color000000 svgShape"/><path fill="#fff" d="M350.1,714.5c2.9,8.1-1.7,15.5-1.7,15.5s-8.2-2.7-11.2-10.8,1.7-15.5,1.7-15.5S347.1,706.4,350.1,714.5Z" class="colorffffff svgShape"/><path d="M348.4,731.3H348c-.3-.2-8.9-3.1-12-11.7s1.6-16.3,1.8-16.6a1.3,1.3,0,0,1,1.5-.6c.3.1,8.9,3,12,11.7s-1.6,16.3-1.8,16.6A1.1,1.1,0,0,1,348.4,731.3Zm-8.9-26c-1.1,2.2-3.2,7.6-1.1,13.4s7.3,8.7,9.4,9.7c1.1-2.2,3.2-7.6,1.1-13.4S341.6,706.3,339.5,705.3Z" class="color000000 svgShape"/><path fill="#fff" d="M400.5,777.6c-3.3,8-11.7,10.4-11.7,10.4s-4.3-7.6-1-15.6,11.6-10.3,11.6-10.3S403.7,769.6,400.5,777.6Z" class="colorffffff svgShape"/><path d="M388.8,789.3a1.1,1.1,0,0,1-1.1-.7c-.2-.3-4.6-8.2-1.1-16.7s12.1-11,12.5-11.1a1.3,1.3,0,0,1,1.5.6c.2.3,4.5,8.2,1.1,16.7h0c-3.5,8.5-12.2,11.1-12.5,11.2Zm10-25.6c-2.2.9-7.5,3.5-9.8,9.2a17.8,17.8,0,0,0,.5,13.5c2.2-.9,7.4-3.6,9.8-9.3h0C401.6,771.4,399.7,765.9,398.8,763.7Z" class="color000000 svgShape"/><path fill="#fff" d="M423.2,803.1c-3.3,8-11.7,10.4-11.7,10.4s-4.3-7.6-1-15.6,11.6-10.4,11.6-10.4S426.4,795.1,423.2,803.1Z" class="colorffffff svgShape"/><path d="M411.5,814.8a1.4,1.4,0,0,1-1.1-.7c-.2-.3-4.6-8.2-1.1-16.7s12.1-11,12.5-11.1a1.3,1.3,0,0,1,1.5.6c.2.3,4.5,8.2,1.1,16.7s-12.2,11-12.5,11.1Zm10-25.7c-2.2.9-7.5,3.6-9.8,9.3s-.5,11.3.5,13.5c2.2-.9,7.4-3.6,9.8-9.3S422.4,791.3,421.5,789.1Z" class="color000000 svgShape"/><path fill="#fff" d="M451.9,829.3c-3.3,8-11.7,10.4-11.7,10.4s-4.3-7.6-1-15.6,11.6-10.3,11.6-10.3S455.1,821.3,451.9,829.3Z" class="colorffffff svgShape"/><path d="M440.2,841a1.1,1.1,0,0,1-1.1-.6c-.2-.4-4.6-8.3-1.1-16.7s12.1-11.1,12.5-11.2a1.3,1.3,0,0,1,1.5.6c.2.4,4.5,8.2,1.1,16.7s-12.2,11.1-12.5,11.2Zm10-25.6c-2.2.9-7.5,3.5-9.8,9.2a17.8,17.8,0,0,0,.5,13.5c2.2-.9,7.4-3.6,9.8-9.3S451.1,817.6,450.2,815.4Z" class="color000000 svgShape"/><path fill="#fff" d="M871.4,808.1l-40.9-27.7s-5.3-23.9-1.5-57.8l16.3,5.7L831,708.7a205.9,205.9,0,0,1,17.7-54.6l10,5.9-5-15.7a211.2,211.2,0,0,1,38.5-49.7s4.1,8.8,7.9,24.5L891.9,639l11.1-5.8C909.5,671.2,910.2,734.1,871.4,808.1Z" class="colorffffff svgShape"/><path d="M871.4,809.4a1.1,1.1,0,0,1-.7-.3l-40.9-27.6a1.2,1.2,0,0,1-.6-.8c0-.2-5.2-24.5-1.5-58.2a2.1,2.1,0,0,1,.6-1,1.4,1.4,0,0,1,1.1-.1l12.4,4.3L830,709.5a1.7,1.7,0,0,1-.3-1,210.8,210.8,0,0,1,17.8-55,1.8,1.8,0,0,1,.8-.7,1.7,1.7,0,0,1,1,.1l7.1,4.3-3.9-12.5a1.2,1.2,0,0,1,.1-1,212.4,212.4,0,0,1,38.7-50,1.2,1.2,0,0,1,1.2-.3,1.1,1.1,0,0,1,.9.7c.2.3,4.2,9,8,24.7a2.2,2.2,0,0,1-.1.8l-6.8,16.6,7.9-4.1a1.3,1.3,0,0,1,1.2,0,1.1,1.1,0,0,1,.7.9c6.8,39.6,6.8,102.2-31.7,175.7a1.5,1.5,0,0,1-.9.6Zm-39.7-29.7,39.2,26.5c37-71.2,37.5-131.9,31.1-171l-9.5,4.9a1.1,1.1,0,0,1-1.4-.2,1.2,1.2,0,0,1-.4-1.4l8.1-19.5a164.2,164.2,0,0,0-7-22.1,209,209,0,0,0-36.7,47.6l4.8,15.2a1.3,1.3,0,0,1-.4,1.4,1.6,1.6,0,0,1-1.5.1l-8.8-5.3a209.1,209.1,0,0,0-16.8,52.5l13.9,19.1a1.1,1.1,0,0,1,0,1.5,1.2,1.2,0,0,1-1.5.5l-14.7-5.1C827,754.2,831,776.1,831.7,779.7Z" class="color000000 svgShape"/><path fill="#fff" d="M865.7,831.1l-48.3-8.7s-14.1-27.5-23.6-74l17.1-3.5L790.3,729a432.3,432.3,0,0,1-4.8-82.7l11.5,1.1-10.6-17.2a450,450,0,0,1,16.4-90s7.1,8.6,16.6,26.5l.2,31.2,8-14.8C848.2,628.1,873,709.3,865.7,831.1Z" class="colorffffff svgShape"/><path d="M865.7,832.4h-.2l-48.3-8.7a1.1,1.1,0,0,1-.9-.7c-.2-.3-14.3-28.2-23.8-74.4a1.8,1.8,0,0,1,.2-1,1.9,1.9,0,0,1,.9-.5l14.3-2.9L789.5,730a1.4,1.4,0,0,1-.5-.8,442.3,442.3,0,0,1-4.8-83,1.1,1.1,0,0,1,.5-.9.8.8,0,0,1,.9-.3l9,.8-9.3-14.9a1.9,1.9,0,0,1-.2-.8,447.7,447.7,0,0,1,16.4-90.3,1.2,1.2,0,0,1,1-.9,1.5,1.5,0,0,1,1.3.4c.3.4,7.3,9,16.8,26.8.1.1.1.4.1.6v26.1l5.6-10.3a1.2,1.2,0,0,1,1.2-.7,1.2,1.2,0,0,1,1.1.7c21.5,46.9,45.5,128,38.3,248.7a1.2,1.2,0,0,1-.5.9A1.1,1.1,0,0,1,865.7,832.4Zm-47.4-11.1,46.2,8.3c6.8-117.4-16.1-196.9-37-243.6l-6.8,12.5a1.3,1.3,0,0,1-1.4.7,1.4,1.4,0,0,1-1-1.3V567a201.2,201.2,0,0,0-14.9-24,441.6,441.6,0,0,0-15.5,86.9l10.3,16.8a1.2,1.2,0,0,1,0,1.4,1.3,1.3,0,0,1-1.2.6l-10.1-1a425.3,425.3,0,0,0,4.7,80.6l20.2,15.5a1.6,1.6,0,0,1,.5,1.4,1.2,1.2,0,0,1-1,.9l-15.9,3.3C804,790.8,816.3,817.1,818.3,821.3Z" class="color000000 svgShape"/><path fill="#fff" d="M854.4,824.2l40.4-2.3s13.7-14.8,25.3-40.5l-13.8-2.9,18.2-7.9a171.9,171.9,0,0,0,10.6-46.5h-9.5l10.1-9.1a179.4,179.4,0,0,0-6.1-51.8s-6.6,4.4-15.9,14l-2.6,17.7-5.3-8.9C885.2,710.3,858.3,754.9,854.4,824.2Z" class="colorffffff svgShape"/><path d="M854.4,825.5a1.8,1.8,0,0,1-.9-.4,1.8,1.8,0,0,1-.4-1c3.9-68.9,30.2-113.5,51.7-138.9a1,1,0,0,1,1.1-.4,1.1,1.1,0,0,1,1,.6l3.5,5.7,2-14.1a2.5,2.5,0,0,1,.4-.7,123.9,123.9,0,0,1,16-14.2,1.3,1.3,0,0,1,1.2-.2,1.4,1.4,0,0,1,.8.9A179.7,179.7,0,0,1,937,715a1.8,1.8,0,0,1-.4,1l-7.6,6.8h6.1a1.5,1.5,0,0,1,1,.4,1.2,1.2,0,0,1,.3,1,175,175,0,0,1-10.6,46.9,1.6,1.6,0,0,1-.7.7L910.6,778l9.8,2.1a1.3,1.3,0,0,1,.9.7,1.4,1.4,0,0,1,0,1.1c-11.5,25.7-25.4,40.8-25.6,40.9a1,1,0,0,1-.9.4l-40.3,2.3Zm51.2-137.2c-20.8,25.1-45.8,68.4-49.8,134.5l38.4-2.1c2.1-2.4,13.9-16.2,24.1-38.4l-12.2-2.6a1.4,1.4,0,0,1-1.1-1.1,1.3,1.3,0,0,1,.8-1.3l17.7-7.7a170.8,170.8,0,0,0,10.2-44.2h-8.1a1.3,1.3,0,0,1-1.2-.8,1.4,1.4,0,0,1,.3-1.5l9.7-8.7a175.2,175.2,0,0,0-5.6-49.1A137.8,137.8,0,0,0,915,677.8l-2.6,17.3a1.6,1.6,0,0,1-1,1.1,1.4,1.4,0,0,1-1.4-.6Z" class="color000000 svgShape"/><path fill="#fff" d="M820.1,824.2l-35.6-2.3s-12.1-15.2-22.3-41.5l12.1-3-16-8a198.7,198.7,0,0,1-9.4-47.6h8.4l-8.9-9.3a210.9,210.9,0,0,1,5.4-53.1s5.8,4.6,14,14.4l2.3,18.1,4.7-9.1C793,707.7,816.7,753.3,820.1,824.2Z" class="colorffffff svgShape"/><path d="M820.1,825.5h0l-35.6-2.3a1.4,1.4,0,0,1-1-.5c-.1-.2-12.4-15.6-22.5-41.8a1.4,1.4,0,0,1,0-1.1,1.6,1.6,0,0,1,.9-.7l8.7-2.1-12.9-6.5a1.2,1.2,0,0,1-.7-.7,207.3,207.3,0,0,1-9.4-47.9,1.3,1.3,0,0,1,.4-1,1,1,0,0,1,.9-.4h5.4l-6.8-7.1a1.8,1.8,0,0,1-.4-.9,211.2,211.2,0,0,1,5.5-53.4,1.4,1.4,0,0,1,.8-.9,1.3,1.3,0,0,1,1.2.2c.3.2,6,4.8,14.2,14.6a.9.9,0,0,1,.3.7l1.8,13.9,2.8-5.4a1.3,1.3,0,0,1,1-.6,1.1,1.1,0,0,1,1.2.5c18.9,25.9,42.2,71.6,45.5,142a1.2,1.2,0,0,1-.3,1A1.8,1.8,0,0,1,820.1,825.5Zm-34.9-4.9,33.6,2.2c-3.5-67.4-25.4-111.7-43.8-137.5l-3.7,7.2a1.4,1.4,0,0,1-1.4.7,1.4,1.4,0,0,1-1.1-1.1l-2.2-17.7a121.4,121.4,0,0,0-12-12.6,208.2,208.2,0,0,0-4.9,50.1l8.6,9a1.4,1.4,0,0,1,.2,1.4,1.3,1.3,0,0,1-1.2.8h-7a206.6,206.6,0,0,0,9,45.3l15.6,7.8a1.4,1.4,0,0,1-.3,2.5l-10.7,2.6C772.9,803.9,783.2,818,785.2,820.6Z" class="color000000 svgShape"/><path d="M801.7,824.6a1.6,1.6,0,0,1-1.6-1.4c-7.9-56.8-32.6-113.7-32.9-114.3a2.4,2.4,0,0,1,0-1.2,2,2,0,0,1,.9-.9,1.5,1.5,0,0,1,2.1.8c.3.6,25.1,57.8,33.1,115.2a1.6,1.6,0,0,1-1.4,1.8Zm.9-1.8Zm-33-114.9Z" class="color000000 svgShape"/><path d="M839.7,823.5a1.6,1.6,0,0,1-1.6-1.6c-.1-1.1-2.3-111.7-19.5-173.2a1.6,1.6,0,0,1,.1-1.2,1.6,1.6,0,0,1,1-.8,1.3,1.3,0,0,1,1.2.2,1.4,1.4,0,0,1,.8.9c17.3,61.9,19.6,172.9,19.6,174.1a1.6,1.6,0,0,1-1.6,1.6Zm1-1.6ZM819.2,648.5Z" class="color000000 svgShape"/><path d="M869.3,823.5h-.2a1.7,1.7,0,0,1-1-.6,1.9,1.9,0,0,1-.4-1.2,338.6,338.6,0,0,1,7.8-37c5.3-19.5,14.9-47.9,30.4-72a1.5,1.5,0,0,1,2.2-.5,1.5,1.5,0,0,1,.5,2.2c-15.3,23.8-24.7,51.8-29.9,71.1a312.5,312.5,0,0,0-7.7,36.6A1.6,1.6,0,0,1,869.3,823.5Zm1-1.5Z" class="color000000 svgShape"/><polygon points="906.4 831.6 898.6 873.3 780.8 873.3 774.3 838.8 906.4 831.6 906.4 831.6" class="color000000 svgShape"/><path d="M898.6,874.5H780.8a1.2,1.2,0,0,1-1.3-1L773.1,839a1.2,1.2,0,0,1,.2-1,1.4,1.4,0,0,1,1-.5l132-7.2a1.2,1.2,0,0,1,1.1.4,2,2,0,0,1,.3,1.1l-7.8,41.7A1.3,1.3,0,0,1,898.6,874.5ZM781.8,872H897.5l7.3-39.1L775.9,840Z" class="color000000 svgShape"/><polygon fill="#fff" points="907.2 827 906.4 831.6 906.4 831.6 774.3 838.8 772.1 827 907.2 827" class="colorffffff svgShape"/><path d="M774.3,840.1a1.3,1.3,0,0,1-1.2-1.1l-2.2-11.8a1.4,1.4,0,0,1,.2-1.1,1.4,1.4,0,0,1,1-.4H907.2a1.2,1.2,0,0,1,1,.4,1.1,1.1,0,0,1,.3,1.1l-.8,4.6a1.6,1.6,0,0,1-1.3,1.1l-132,7.2Zm-.6-11.9,1.7,9.2,129.9-7.1.4-2.1Z" class="color000000 svgShape"/><rect width="145.2" height="10.12" x="767.1" y="816.8" class="color000000 svgShape"/><path d="M912.3,828.2H767.1a1.2,1.2,0,0,1-1.3-1.2V816.8a1.3,1.3,0,0,1,1.3-1.3H912.3a1.3,1.3,0,0,1,1.3,1.3V827A1.2,1.2,0,0,1,912.3,828.2Zm-143.9-2.5H911v-7.6H768.4Z" class="color000000 svgShape"/><path d="M863.4,722.1h0a1.3,1.3,0,0,1-1.3-1.3c0-.3.5-24,11.1-60.4a1.3,1.3,0,0,1,2.5.7c-10.5,36-11,59.5-11,59.7A1.3,1.3,0,0,1,863.4,722.1Z" class="color000000 svgShape"/><rect width="1000" height="3.89" x="40" y="869.3" class="color000000 svgShape"/><circle cx="283.1" cy="807.9" r="63.3" class="color000000 svgShape"/><path d="M283.1,872.5a64.6,64.6,0,1,1,64.6-64.6A64.6,64.6,0,0,1,283.1,872.5Zm0-126.6a62.1,62.1,0,1,0,62,62A62.1,62.1,0,0,0,283.1,745.9Z" class="color000000 svgShape"/><path d="M304.6,762.7h-43a4.8,4.8,0,0,1-4.8-4.8V728a16,16,0,0,1,15.9-16h20.8a16,16,0,0,1,16,16v29.9A4.8,4.8,0,0,1,304.6,762.7ZM266.5,753h33.3V728a6.3,6.3,0,0,0-6.3-6.2H272.7a6.2,6.2,0,0,0-6.2,6.2Z" class="color000000 svgShape"/><path fill="#fff" d="M336.6,802.3a1.3,1.3,0,0,1-1.3-1,59.6,59.6,0,0,0-2.2-8.8,1.2,1.2,0,0,1,.8-1.6,1.2,1.2,0,0,1,1.6.8,67.5,67.5,0,0,1,2.4,9.1,1.3,1.3,0,0,1-1.1,1.5Z" class="colorffffff svgShape"/><path fill="#fff" d="M330.2,784.3a1.1,1.1,0,0,1-1.1-.7c-12.9-22.5-39-27.5-39.3-27.5a1.3,1.3,0,0,1-1-1.5,1.3,1.3,0,0,1,1.5-1.1c1.1.2,27.5,5.2,41,28.9a1.1,1.1,0,0,1-.5,1.7Z" class="colorffffff svgShape"/><circle cx="763.9" cy="825.9" r="42.9" fill="#fff" class="colorffffff svgShape"/><path d="M763.9,870a44.2,44.2,0,1,1,44.2-44.1A44.2,44.2,0,0,1,763.9,870Zm0-85.7a41.6,41.6,0,1,0,41.6,41.6A41.6,41.6,0,0,0,763.9,784.3Z" class="color000000 svgShape"/><circle cx="751" cy="825.9" r="42.9" class="color000000 svgShape"/><path d="M751,870a44.2,44.2,0,1,1,44.1-44.1A44.2,44.2,0,0,1,751,870Zm0-85.7a41.6,41.6,0,1,0,41.5,41.6A41.6,41.6,0,0,0,751,784.3Z" class="color000000 svgShape"/><path fill="#fff" d="M577.6,821H747.2a4.8,4.8,0,0,1,4.8,4.8v0a4.8,4.8,0,0,1-4.8,4.8H577.6a0,0,0,0,1,0,0V821a0,0,0,0,1,0,0Z" class="colorffffff svgShape"/><path d="M747.2,832H577.6a1.3,1.3,0,0,1-1.3-1.3V821a1.3,1.3,0,0,1,1.3-1.3H747.2a6.2,6.2,0,1,1,0,12.3Zm-168.3-2.6H747.2a3.6,3.6,0,1,0,0-7.1H578.9Z" class="color000000 svgShape"/><circle cx="602.5" cy="825.9" r="42.9" fill="#fff" class="colorffffff svgShape"/><path d="M602.5,870a44.2,44.2,0,1,1,44.1-44.1A44.2,44.2,0,0,1,602.5,870Zm0-85.7A41.6,41.6,0,1,0,644,825.9,41.6,41.6,0,0,0,602.5,784.3Z" class="color000000 svgShape"/><circle cx="589.5" cy="825.9" r="42.9" class="color000000 svgShape"/><path d="M589.5,870a44.2,44.2,0,1,1,44.2-44.1A44.2,44.2,0,0,1,589.5,870Zm0-85.7a41.6,41.6,0,1,0,41.6,41.6A41.5,41.5,0,0,0,589.5,784.3Z" class="color000000 svgShape"/><circle cx="587.7" cy="825.9" r="27.4" fill="#fff" class="colorffffff svgShape"/><path d="M587.7,854.5a28.7,28.7,0,1,1,28.7-28.6A28.7,28.7,0,0,1,587.7,854.5Zm0-54.7a26.1,26.1,0,1,0,26.1,26.1A26.1,26.1,0,0,0,587.7,799.8Z" class="color000000 svgShape"/><circle cx="580.1" cy="825.9" r="27.4" fill="#fff" class="colorffffff svgShape"/><path d="M580.1,854.5a28.7,28.7,0,1,1,28.6-28.6A28.6,28.6,0,0,1,580.1,854.5Zm0-54.7a26.1,26.1,0,1,0,26.1,26.1A26.1,26.1,0,0,0,580.1,799.8Z" class="color000000 svgShape"/><circle cx="577.6" cy="825.9" r="8.1" fill="#fff" class="colorffffff svgShape"/><path d="M577.6,835.2a9.4,9.4,0,1,1,9.3-9.3A9.4,9.4,0,0,1,577.6,835.2Zm0-16.1a6.8,6.8,0,1,0,6.8,6.8A6.8,6.8,0,0,0,577.6,819.1Z" class="color000000 svgShape"/><path d="M356.2,505.8c-11.4-20.8-34.9-1.3-34.9-1.3s-23.6-19.5-34.9,1.3c-16.5,30.2,34.9,50.8,34.9,50.8S372.6,536,356.2,505.8Z" class="color000000 svgShape"/><path d="M321.3,557.9h-.5c-1.3-.5-30.5-12.4-37.5-31.8-2.5-6.9-1.8-13.9,1.9-20.8s7.3-9,12.5-10c10-1.9,20.6,5.3,23.6,7.6,3-2.3,13.6-9.5,23.5-7.6,5.3,1,9.4,4.4,12.5,10s4.4,13.9,1.9,20.8c-7,19.4-36.2,31.3-37.4,31.8Zm-20.2-60.4-2.9.3c-4.4.8-8,3.7-10.7,8.6s-4,12.5-1.8,18.7c6.2,17,31.7,28.5,35.6,30.1,3.8-1.6,29.4-13.1,35.5-30.1,2.2-6.2,1.6-12.5-1.8-18.7s-6.2-7.8-10.6-8.6c-10.4-2-22.2,7.6-22.3,7.7a1.4,1.4,0,0,1-1.7,0C320.3,505.4,310.6,497.5,301.1,497.5Z" class="color000000 svgShape"/><polygon fill="#fff" points="335 521.2 326.5 521.2 326.5 512.7 316.1 512.7 316.1 521.2 307.5 521.2 307.5 531.6 316.1 531.6 316.1 540.2 326.5 540.2 326.5 531.6 335 531.6 335 521.2" class="colorffffff svgShape"/><path d="M326.5,541.5H316.1a1.3,1.3,0,0,1-1.3-1.3v-7.3h-7.3a1.3,1.3,0,0,1-1.3-1.3V521.2a1.3,1.3,0,0,1,1.3-1.3h7.3v-7.2a1.3,1.3,0,0,1,1.3-1.3h10.4a1.3,1.3,0,0,1,1.3,1.3v7.2H335a1.3,1.3,0,0,1,1.3,1.3v10.4a1.3,1.3,0,0,1-1.3,1.3h-7.2v7.3A1.3,1.3,0,0,1,326.5,541.5Zm-9.1-2.6h7.8v-7.3a1.3,1.3,0,0,1,1.3-1.3h7.2v-7.8h-7.2a1.3,1.3,0,0,1-1.3-1.3V514h-7.8v7.2a1.3,1.3,0,0,1-1.3,1.3h-7.3v7.8h7.3a1.3,1.3,0,0,1,1.3,1.3Z" class="color000000 svgShape"/><path fill="#fff" d="M863.2,320.6c-11.3-20.8-34.9-1.3-34.9-1.3s-23.6-19.5-34.9,1.3c-16.4,30.3,34.9,50.9,34.9,50.9S879.7,350.9,863.2,320.6Z" class="colorffffff svgShape"/><path d="M828.3,372.8h-.5c-1.2-.5-30.5-12.5-37.5-31.9a24.7,24.7,0,0,1,2-20.8c3-5.6,7.2-8.9,12.4-10,10-1.9,20.6,5.4,23.6,7.6,3-2.2,13.6-9.5,23.6-7.6,5.2,1.1,9.4,4.4,12.4,10h0c3.8,6.9,4.5,13.9,2,20.8-7,19.4-36.3,31.4-37.5,31.9Zm-20.1-60.5a15.3,15.3,0,0,0-3,.3c-4.4.9-8,3.8-10.6,8.6-3.4,6.3-4,12.6-1.8,18.7,6.1,17.1,31.7,28.5,35.5,30.2,3.9-1.7,29.4-13.1,35.5-30.2,2.3-6.1,1.7-12.4-1.7-18.7h0c-2.7-4.8-6.3-7.7-10.7-8.6-10.3-2-22.1,7.6-22.3,7.7a1.2,1.2,0,0,1-1.6,0C827.4,320.2,817.7,312.3,808.2,312.3Z" class="color000000 svgShape"/><polygon fill="#fff" points="842.1 336 833.5 336 833.5 327.5 823.1 327.5 823.1 336 814.6 336 814.6 346.4 823.1 346.4 823.1 355 833.5 355 833.5 346.4 842.1 346.4 842.1 336" class="colorffffff svgShape"/><path d="M833.5,356.3H823.1a1.3,1.3,0,0,1-1.3-1.3v-7.3h-7.2a1.2,1.2,0,0,1-1.3-1.3V336a1.3,1.3,0,0,1,1.3-1.3h7.2v-7.2a1.3,1.3,0,0,1,1.3-1.3h10.4a1.3,1.3,0,0,1,1.3,1.3v7.2h7.3a1.3,1.3,0,0,1,1.3,1.3v10.4a1.3,1.3,0,0,1-1.3,1.3h-7.3V355A1.3,1.3,0,0,1,833.5,356.3Zm-9.1-2.6h7.8v-7.3a1.3,1.3,0,0,1,1.3-1.3h7.3v-7.8h-7.3a1.3,1.3,0,0,1-1.3-1.3v-7.2h-7.8V336a1.3,1.3,0,0,1-1.3,1.3h-7.2v7.8h7.2a1.3,1.3,0,0,1,1.3,1.3Z" class="color000000 svgShape"/><polygon fill="#fff" points="276.1 221.1 261.8 221.1 261.8 206.7 244.3 206.7 244.3 221.1 230 221.1 230 238.6 244.3 238.6 244.3 252.9 261.8 252.9 261.8 238.6 276.1 238.6 276.1 221.1" class="colorffffff svgShape"/><path d="M261.8,254.2H244.3a1.3,1.3,0,0,1-1.3-1.3V239.8H230a1.2,1.2,0,0,1-1.3-1.2V221.1a1.3,1.3,0,0,1,1.3-1.3h13V206.7a1.2,1.2,0,0,1,1.3-1.2h17.5a1.2,1.2,0,0,1,1.3,1.2v13.1h13a1.3,1.3,0,0,1,1.3,1.3v17.5a1.2,1.2,0,0,1-1.3,1.2h-13v13.1A1.3,1.3,0,0,1,261.8,254.2Zm-16.2-2.6h14.9v-13a1.2,1.2,0,0,1,1.3-1.3h13V222.4h-13a1.3,1.3,0,0,1-1.3-1.3V208H245.6v13.1a1.3,1.3,0,0,1-1.3,1.3h-13v14.9h13a1.3,1.3,0,0,1,1.3,1.3Z" class="color000000 svgShape"/><polygon fill="#fff" points="113.1 576.4 98.7 576.4 98.7 562.1 81.3 562.1 81.3 576.4 66.9 576.4 66.9 593.9 81.3 593.9 81.3 608.2 98.7 608.2 98.7 593.9 113.1 593.9 113.1 576.4" class="colorffffff svgShape"/><path d="M98.7,609.5H81.3a1.3,1.3,0,0,1-1.3-1.3v-13H66.9a1.3,1.3,0,0,1-1.3-1.3V576.4a1.3,1.3,0,0,1,1.3-1.3H80v-13a1.3,1.3,0,0,1,1.3-1.3H98.7a1.3,1.3,0,0,1,1.3,1.3v13h13.1a1.3,1.3,0,0,1,1.3,1.3v17.5a1.3,1.3,0,0,1-1.3,1.3H100v13A1.3,1.3,0,0,1,98.7,609.5Zm-16.1-2.6H97.4v-13a1.3,1.3,0,0,1,1.3-1.3h13.1V577.7H98.7a1.3,1.3,0,0,1-1.3-1.3v-13H82.6v13a1.3,1.3,0,0,1-1.3,1.3H68.2v14.9H81.3a1.3,1.3,0,0,1,1.3,1.3Z" class="color000000 svgShape"/><path d="M489,871.6a1.4,1.4,0,0,1-1.1-.6,585.3,585.3,0,0,1-35-69.6c-16.2-37.9-35.8-95.1-37.8-151.8a1.3,1.3,0,0,1,1.3-1.4,1.3,1.3,0,0,1,1.3,1.3c1.9,56.3,21.5,113.1,37.6,150.9a588.2,588.2,0,0,0,34.8,69.2,1.3,1.3,0,0,1-.4,1.8Z" class="color000000 svgShape"/><path fill="#fff" d="M409.9,664c8.5,6.3,8.8,17,8.8,17s-10.3,2.8-18.8-3.6-8.8-17-8.8-17S401.4,657.6,409.9,664Z" class="colorffffff svgShape"/><path d="M413.1,682.9a23.1,23.1,0,0,1-14-4.4c-8.9-6.7-9.3-17.6-9.3-18.1a1.4,1.4,0,0,1,.9-1.3c.5-.1,11.1-2.8,20,3.8S420,680.5,420,681a1.4,1.4,0,0,1-1,1.3A30.4,30.4,0,0,1,413.1,682.9Zm-20.6-21.5c.3,2.8,1.8,10.2,8.1,15s14,4,16.7,3.6c-.3-2.8-1.8-10.2-8.2-15h0C402.8,660.3,395.2,661,392.5,661.4Z" class="color000000 svgShape"/><path fill="#fff" d="M412.7,709.5c10.2,3,14.2,12.9,14.2,12.9s-8.7,6.2-18.9,3.3-14.2-12.9-14.2-12.9S402.5,706.6,412.7,709.5Z" class="colorffffff svgShape"/><path d="M413.7,727.8a22.5,22.5,0,0,1-6.1-.9c-10.6-3.1-14.8-13.2-15-13.6a1.3,1.3,0,0,1,.4-1.5c.4-.3,9.4-6.6,20-3.5h0c10.7,3.1,14.9,13.2,15.1,13.6a1.4,1.4,0,0,1-.5,1.6A26,26,0,0,1,413.7,727.8Zm-18.2-14.5c1.2,2.5,5.2,8.9,12.9,11.1s14.4-1.1,16.8-2.5c-1.3-2.4-5.3-8.9-12.9-11.1h0C404.7,708.6,397.9,711.9,395.5,713.3Z" class="color000000 svgShape"/><path fill="#fff" d="M420.6,747.3c10.5,1.2,16.1,10.3,16.1,10.3s-7.5,7.6-18.1,6.4-16.1-10.4-16.1-10.4S410,746,420.6,747.3Z" class="colorffffff svgShape"/><path d="M421,765.4l-2.5-.2c-11.1-1.3-16.9-10.5-17.1-10.9a1.4,1.4,0,0,1,.2-1.6c.3-.4,8.1-8,19.1-6.7s16.9,10.6,17.1,11a1.4,1.4,0,0,1-.2,1.6C437.3,758.9,430.7,765.4,421,765.4Zm-16.8-11.6c1.7,2.2,6.7,7.9,14.6,8.9s14.1-3.5,16.2-5.3c-1.7-2.2-6.7-7.9-14.6-8.8h0C412.5,747.6,406.4,752,404.2,753.8Z" class="color000000 svgShape"/><path fill="#fff" d="M435.9,793.7c10.6-.2,17.3,8.2,17.3,8.2s-6.5,8.4-17.1,8.6-17.3-8.2-17.3-8.2S425.3,793.8,435.9,793.7Z" class="colorffffff svgShape"/><path d="M435.9,811.8c-11,0-17.8-8.4-18.1-8.7a1.2,1.2,0,0,1,0-1.6c.2-.4,7-9,18.1-9.1h.2c11,0,17.9,8.3,18.1,8.6a1.4,1.4,0,0,1,.1,1.6c-.3.4-7.1,9-18.2,9.2Zm-15.4-9.6c1.9,2,7.6,7,15.4,7h.2c7.9-.1,13.5-5.3,15.4-7.3-1.9-2-7.6-7-15.6-6.9S422.4,800.2,420.5,802.2Z" class="color000000 svgShape"/><path fill="#fff" d="M459.2,840.5c10.6-.1,17.3,8.2,17.3,8.2s-6.5,8.5-17.1,8.6-17.4-8.1-17.4-8.1S448.5,840.7,459.2,840.5Z" class="colorffffff svgShape"/><path d="M459.1,858.6c-10.9,0-17.8-8.3-18.1-8.6a1.5,1.5,0,0,1,0-1.6c.3-.4,7-9,18.1-9.1h.3c11,0,17.8,8.3,18.1,8.6a1.2,1.2,0,0,1,0,1.6c-.3.4-7,9-18.1,9.1Zm-15.3-9.5c1.9,2,7.6,7,15.5,7s13.6-5.3,15.5-7.3c-2-2-7.6-7-15.4-7h-.2C451.2,841.9,445.7,847.1,443.8,849.1Z" class="color000000 svgShape"/><path fill="#fff" d="M441.2,690.2c-7.8,7.3-18.3,5.7-18.3,5.7s-1-10.6,6.7-17.9,18.3-5.7,18.3-5.7S448.9,682.9,441.2,690.2Z" class="colorffffff svgShape"/><path d="M425.4,697.4a18.3,18.3,0,0,1-2.7-.2,1.2,1.2,0,0,1-1.1-1.1c-.1-.5-1-11.4,7.1-19s18.9-6.2,19.4-6.1a1.4,1.4,0,0,1,1.1,1.1c0,.5.9,11.4-7.2,19h0C436.3,696.6,429.2,697.4,425.4,697.4Zm-1.3-2.7c2.8.2,10.4,0,16.2-5.4h0c5.7-5.5,6.3-13.1,6.3-15.8-2.7-.2-10.3,0-16.1,5.4S424.1,692,424.1,694.7Z" class="color000000 svgShape"/><path fill="#fff" d="M426.4,635.7c-.8,10.6-9.7,16.6-9.7,16.6s-7.9-7.3-7.1-17.8,9.7-16.6,9.7-16.6S427.2,625.1,426.4,635.7Z" class="colorffffff svgShape"/><path d="M416.7,653.6a1.8,1.8,0,0,1-.9-.4c-.3-.3-8.3-7.8-7.5-18.8s9.9-17.3,10.3-17.6a1.4,1.4,0,0,1,1.6.2c.3.3,8.3,7.7,7.5,18.8s-9.9,17.3-10.3,17.5A1.1,1.1,0,0,1,416.7,653.6Zm2.5-33.9c-2.2,1.7-7.7,6.9-8.3,14.9s4.1,13.9,5.9,15.9c2.2-1.7,7.7-7,8.3-14.9h0C425.7,627.7,421,621.7,419.2,619.7Z" class="color000000 svgShape"/><path fill="#fff" d="M450.9,731.8c-7.8,7.3-18.3,5.7-18.3,5.7s-1-10.6,6.7-17.9,18.3-5.7,18.3-5.7S458.6,724.5,450.9,731.8Z" class="colorffffff svgShape"/><path d="M435.1,739a18.3,18.3,0,0,1-2.7-.2,1.3,1.3,0,0,1-1.1-1.1c-.1-.5-1-11.4,7.1-19s18.9-6.2,19.4-6.1a1.3,1.3,0,0,1,1.1,1.1c0,.5.9,11.4-7.2,19h0A24.3,24.3,0,0,1,435.1,739Zm-1.3-2.7c2.8.2,10.4,0,16.2-5.4h0c5.7-5.5,6.3-13.1,6.3-15.9-2.7-.1-10.3.1-16.1,5.5S433.8,733.6,433.8,736.3Z" class="color000000 svgShape"/><path fill="#fff" d="M463.4,771.8c-7.7,7.3-18.3,5.7-18.3,5.7s-1-10.6,6.8-17.9,18.2-5.8,18.2-5.8S471.1,764.5,463.4,771.8Z" class="colorffffff svgShape"/><path d="M447.7,778.9h-2.8a1.4,1.4,0,0,1-1.1-1.2c0-.4-.9-11.3,7.2-19s18.9-6.1,19.3-6.1a1.3,1.3,0,0,1,1.1,1.2c.1.5,1,11.4-7.1,19h0C458.6,778.1,451.5,778.9,447.7,778.9Zm-1.3-2.6c2.8.2,10.4,0,16.1-5.5s6.4-13,6.4-15.8c-2.8-.1-10.4.1-16.2,5.5S446.4,773.5,446.4,776.3Zm17-4.5Z" class="color000000 svgShape"/><path fill="#fff" d="M482.3,815.6c-7.8,7.3-18.3,5.8-18.3,5.8s-1-10.7,6.7-18,18.3-5.7,18.3-5.7S490,808.3,482.3,815.6Z" class="colorffffff svgShape"/><path d="M466.5,822.8a9.7,9.7,0,0,1-2.7-.2,1.1,1.1,0,0,1-1.1-1.1c-.1-.5-1-11.4,7.1-19s18.9-6.2,19.4-6.1a1.4,1.4,0,0,1,1.1,1.2c0,.4.9,11.3-7.2,19h0C477.4,822,470.3,822.8,466.5,822.8Zm-1.3-2.6c2.8.1,10.4-.1,16.2-5.5s6.3-13.1,6.3-15.8c-2.7-.2-10.3,0-16.1,5.5S465.2,817.4,465.2,820.2Zm17.1-4.6Z" class="color000000 svgShape"/><circle cx="625.8" cy="328.7" r="20.4" class="color000000 svgShape"/><path d="M625.8,350.4a21.7,21.7,0,0,1-20.1-29.9h0a21,21,0,0,1,11.6-11.8,21.7,21.7,0,1,1,8.5,41.7Zm-17.7-28.9h0A19,19,0,1,0,618.3,311,18.8,18.8,0,0,0,608.1,321.5Z" class="color000000 svgShape"/><path fill="#fff" d="M626.4,348.9l-.6,56.7-46.4-36.7s-19.5,24.6-2.4,37.5c0,0,47.3,44.2,60.5,37.7s2.1-93.3,2.1-93.3,18.7-17.7,12.9-26.6-11.7-1.8-11.7-1.8-11-6.9-15.3-1.2S621.7,342.8,626.4,348.9Z" class="colorffffff svgShape"/><path d="M634.3,446.1c-6.7,0-17.5-5.7-32.8-17.4-12.9-9.8-24.5-20.5-25.4-21.3a18.3,18.3,0,0,1-7.3-12.4c-1.6-12.7,9.2-26.3,9.6-26.9a1.3,1.3,0,0,1,1.8-.2L624.5,403l.6-53.7c-4.9-6.9-5.3-22.8-.6-28.9s13.2-1.2,16.1.4a8.3,8.3,0,0,1,6-2.3c2.6.2,5,1.9,7,5,5.8,8.9-9.6,24.8-12.6,27.8.4,3.8,2.8,23.5,3.8,43.7.6,13.1.6,23.9-.1,31.9-1,10.7-3.1,16.7-6.6,18.4A8.9,8.9,0,0,1,634.3,446.1Zm-54.6-75.3c-2.4,3.3-9.5,14.2-8.3,23.9a15.4,15.4,0,0,0,6.4,10.7.1.1,0,0,0,.1.1c13,12.1,48.9,42.4,59,37.5,2.8-1.4,7.2-9.4,5.3-47.9-1.1-22.2-3.9-43.9-3.9-44.1a1.5,1.5,0,0,1,.4-1.1c5-4.7,17-18.4,12.8-25-1.6-2.4-3.3-3.7-5.1-3.8s-4.6,2.2-4.6,2.2a1.1,1.1,0,0,1-1.6.2c-.1,0-10.2-6.1-13.7-1.5s-3.4,20.5.9,26.1a1.1,1.1,0,0,1,.3.8l-.6,56.7a1.3,1.3,0,0,1-.8,1.2,1.3,1.3,0,0,1-1.3-.2Z" class="color000000 svgShape"/><path fill="#fff" d="M633.3,333.5h29.5a3.6,3.6,0,0,1,3.6,3.6v0a3.6,3.6,0,0,1-3.6,3.6H633.3a0,0,0,0,1,0,0v-7.3A0,0,0,0,1,633.3,333.5Z" class="colorffffff svgShape" transform="rotate(-157.9 650.023 337.003)"/><path d="M663.8,348.1h-.5L636,336.9a4.9,4.9,0,0,1-2.7-2.6,5,5,0,0,1,0-3.8,4.6,4.6,0,0,1,2.6-2.7,5,5,0,0,1,3.8-.1l27.4,11.1a1.6,1.6,0,0,1,.7.7,1.7,1.7,0,0,1,0,1l-2.8,6.8A1.3,1.3,0,0,1,663.8,348.1ZM637.9,330a1.5,1.5,0,0,0-.9.2,2.2,2.2,0,0,0-1.3,1.2,2.8,2.8,0,0,0,0,1.8,2.4,2.4,0,0,0,1.3,1.3h0l26.1,10.6,1.8-4.4-26.1-10.6Z" class="color000000 svgShape"/><circle cx="663.7" cy="344" r="20.4" class="color000000 svgShape"/><path d="M663.7,365.8a21.7,21.7,0,0,1-8.2-1.6,21.2,21.2,0,0,1-11.8-11.7,21.7,21.7,0,0,1-.2-16.6h0A22,22,0,0,1,655.2,324a21.5,21.5,0,0,1,16.7-.1,21.8,21.8,0,0,1-8.2,41.9Zm0-40.9a19.7,19.7,0,0,0-7.5,1.5,19.4,19.4,0,0,0-10.3,10.4h0a19.2,19.2,0,1,0,25-10.5A18.1,18.1,0,0,0,663.7,324.9Zm-19,11.5h0Z" class="color000000 svgShape"/><circle cx="670" cy="346.6" r="20.4" fill="#fff" class="colorffffff svgShape"/><path d="M670,368.3a21.4,21.4,0,0,1-8.2-1.6,21.7,21.7,0,0,1-11.9-28.3,21,21,0,0,1,11.6-11.8,22,22,0,0,1,16.7-.2A21.5,21.5,0,0,1,690,338.1a21.6,21.6,0,0,1-11.5,28.5A20.8,20.8,0,0,1,670,368.3Zm0-40.9a18.1,18.1,0,0,0-7.5,1.6,18.9,18.9,0,0,0-10.2,10.4h0a19.1,19.1,0,0,0,25.2,24.8,19.4,19.4,0,0,0,10.3-10.4,19.2,19.2,0,0,0-.2-14.7,19.4,19.4,0,0,0-10.4-10.3A20,20,0,0,0,670,327.4Zm-18.9,11.5Z" class="color000000 svgShape"/><circle cx="673.5" cy="347.5" r="6.2" fill="#fff" class="colorffffff svgShape"/><path d="M673.5,355a8.7,8.7,0,0,1-2.8-.5,7.7,7.7,0,0,1-4.2-4.1,7.5,7.5,0,0,1,0-5.7,7.8,7.8,0,0,1,4-4.2,7.8,7.8,0,0,1,5.8,0,7.5,7.5,0,0,1-2.8,14.5Zm0-12.5a5.8,5.8,0,0,0-1.9.4,4.8,4.8,0,0,0-2.7,2.7h0a5,5,0,0,0,0,3.8,5.1,5.1,0,0,0,2.7,2.7,5,5,0,0,0,6.5-2.8,4.9,4.9,0,0,0-2.8-6.4A5.8,5.8,0,0,0,673.5,342.5Zm-5.8,2.6Z" class="color000000 svgShape"/><path fill="#fff" d="M638.5,342.5s4.1-10.2-2.3-11.7-8.9,2.9-8.8,3.6,2.5,4,3.6,5.1S638.5,342.5,638.5,342.5Z" class="colorffffff svgShape"/><path d="M638.3,344.2h-.5a1.2,1.2,0,0,1-.7-1.7c1.3-3,1.4-5.6.3-7.9s-6.2-5.1-6.2-5.1a1.2,1.2,0,0,1-.9-1.5,1.2,1.2,0,0,1,1.3-1c7.2.5,7.9-4.4,8-4.6a1.3,1.3,0,1,1,2.5.3,8.2,8.2,0,0,1-6,6.5,12.2,12.2,0,0,1,3.7,4.3c1.3,2.9,1.2,6.3-.3,10A1.3,1.3,0,0,1,638.3,344.2Z" class="color000000 svgShape"/><path fill="#fff" d="M526.1,365.6l5.3-16.1,19.2,3.1,4.3,16.1s6.9,21.9-15.9,20.1S526.1,365.6,526.1,365.6Z" class="colorffffff svgShape"/><path d="M541.6,390.2l-2.7-.2c-7-.5-11.9-3-14.3-7.2-4.2-7.1-.2-16.6.3-17.6l5.2-16.1a1.3,1.3,0,0,1,1.5-.9l19.3,3.1a1.2,1.2,0,0,1,1,.9l4.2,16.2c.1.3,3.2,10.4-1.9,16.8C551.6,388.5,547.4,390.2,541.6,390.2ZM532.2,351l-4.9,15v.2c-.1.1-4.1,9.1-.5,15.3,2,3.5,6.2,5.5,12.3,6s10.7-.8,13.1-3.9c4.2-5.3,1.5-14.4,1.4-14.5l-4-15.4Zm-6.1,14.6Z" class="color000000 svgShape"/><path d="M479.6,479.1s-7.7-60.1,0-79.3,17.3-25.3,17.3-47.2l29.2,13s-1.2,12.7,10.7,13.8,18.1-10.7,18.1-10.7h23.8s-2.7,33,3.8,44.5-26.3,77.4-26.3,77.4S540.7,521.9,479.6,479.1Z" class="color000000 svgShape"/><path d="M533.6,502.9c-11.6,0-29.2-4.9-54.7-22.8a1.5,1.5,0,0,1-.6-.9c-.3-2.4-7.6-60.6.1-79.9a134,134,0,0,1,8-16.1c5.1-9.1,9.2-16.4,9.2-30.6a1.1,1.1,0,0,1,.6-1.1,1.1,1.1,0,0,1,1.2-.1l29.2,13a1.6,1.6,0,0,1,.8,1.3c-.1.5-.9,11.4,9.6,12.5s16.7-10,16.7-10.1a1.4,1.4,0,0,1,1.2-.7h23.8a1.5,1.5,0,0,1,.9.4,1.3,1.3,0,0,1,.4,1c-.1.3-2.6,32.8,3.6,43.8s-22.8,71.8-26.2,78.6c-.2.3-4.1,7.9-15.2,10.7A35,35,0,0,1,533.6,502.9Zm-52.8-24.6c31.6,22.1,50.4,23.7,60.7,21.1s13.5-9.3,13.6-9.4c9-18.1,31.4-67.2,26.3-76.1-6-10.5-4.6-37.4-4.1-43.9H555.6c-1.6,2.7-7.9,11.8-18.9,10.7s-12.1-9.2-12-14.3l-26.5-11.8c-.4,13.6-4.7,21.2-9.5,29.9a128.8,128.8,0,0,0-7.9,15.8C473.8,418,480.1,472.2,480.8,478.3Z" class="color000000 svgShape"/><path fill="#fff" d="M524,822.3l-9.8-241.9L502.7,822.3H486C464.1,771,469.8,676,469.8,676c-46.6-139.9,9.8-196.9,9.8-196.9s51.9,24.7,76.6,11.5c0,0,34,62.2-1.7,189.5,0,0,9.7,89.2-13.4,142.2Z" class="colorffffff svgShape"/><path d="M541.1,823.6H524a1.3,1.3,0,0,1-1.3-1.2l-8.6-212.6L504,822.4a1.4,1.4,0,0,1-1.3,1.2H486a1.2,1.2,0,0,1-1.2-.8c-21.2-49.6-16.6-141.1-16.3-146.6-10.6-31.9-16.7-62.2-18.1-89.9-1.1-22.3.7-43,5.6-61.6,8.3-31.7,22.1-45.9,22.7-46.5a1.4,1.4,0,0,1,1.5-.3c.5.2,51.5,24.3,75.4,11.5a1.4,1.4,0,0,1,1.8.6c.3.6,8.6,16.1,12.6,47.4,3.7,28.8,4.2,76.9-14.2,142.8.5,5.3,8.8,91.3-13.5,142.6A1.2,1.2,0,0,1,541.1,823.6ZM525.3,821h15c22.2-52.2,13-139.9,12.9-140.8v-.5c18.4-65.4,17.9-113.2,14.3-141.8-3.4-26.2-9.9-41.5-11.9-45.6-5.2,2.5-11.4,3.5-18,3.5-23.7,0-52.2-12.6-57.7-15.1-2.7,3.1-14.4,17.5-21.5,44.9s-11.3,78.2,12.7,150v.5c0,.9-5.4,94.3,15.7,144.9h14.6L513,580.4a1.3,1.3,0,0,1,1.2-1.3h.1a1.3,1.3,0,0,1,1.2,1.3Z" class="color000000 svgShape"/><polygon points="486 822.3 479.7 848.9 507.5 848.9 502.7 822.3 486 822.3" class="color000000 svgShape"/><path d="M507.5,850.2H479.7a1.2,1.2,0,0,1-1-.5,1.1,1.1,0,0,1-.3-1.1l6.3-26.6a1.3,1.3,0,0,1,1.3-1h16.7a1.3,1.3,0,0,1,1.2,1.1l4.9,26.6a1.9,1.9,0,0,1-.3,1A1.4,1.4,0,0,1,507.5,850.2Zm-26.2-2.6h24.6l-4.3-24H487Z" class="color000000 svgShape"/><path d="M475.2,871.2s-5-28.6,18.8-27.6,18.3,27.6,18.3,27.6Z" class="color000000 svgShape"/><path d="M512.3,872.5H475.2a1.3,1.3,0,0,1-1.3-1c-.1-.6-2.5-15.1,4.8-23.5,3.6-4,8.7-6,15.4-5.7s12.1,2.7,15.5,7c6.7,8.6,4,21.7,3.9,22.2A1.2,1.2,0,0,1,512.3,872.5Zm-36-2.5h34.9c.4-3.2,1.3-12.8-3.7-19.1-2.9-3.7-7.5-5.8-13.5-6s-10.3,1.4-13.3,4.8C475.2,855.9,475.9,866.6,476.3,870Z" class="color000000 svgShape"/><path d="M514.2,581.7a1.2,1.2,0,0,1-1.2-1.3V564.5a1.6,1.6,0,0,1,.5-1.1l11.9-7.9a1.3,1.3,0,0,1,1.4,2.2l-11.3,7.5v15.2A1.3,1.3,0,0,1,514.2,581.7Z" class="color000000 svgShape"/><path fill="#fff" d="M505.1,847.8h-.6c-12.1-6-21.3-.2-21.4-.1a1.3,1.3,0,1,1-1.4-2.2c.4-.3,10.5-6.7,24-.1a1.4,1.4,0,0,1,.6,1.8A1.5,1.5,0,0,1,505.1,847.8Z" class="colorffffff svgShape"/><path fill="#fff" d="M501.6,836.5l-.6-.2c-8.1-4-14.2-.2-14.4,0a1.4,1.4,0,0,1-1.8-.4,1.3,1.3,0,0,1,.4-1.8c.3-.2,7.5-4.7,16.9-.1a1.3,1.3,0,0,1-.5,2.5Z" class="colorffffff svgShape"/><polygon points="524 822.3 517.7 848.9 545.5 848.9 540.7 822.3 524 822.3" class="color000000 svgShape"/><path d="M545.5,850.2H517.7a1.3,1.3,0,0,1-1.2-1.6l6.2-26.6a1.4,1.4,0,0,1,1.3-1h16.7a1.4,1.4,0,0,1,1.3,1.1l4.8,26.6a1,1,0,0,1-.3,1A1.2,1.2,0,0,1,545.5,850.2Zm-26.1-2.6H544l-4.4-24H525Z" class="color000000 svgShape"/><path d="M513.3,871.2s-5-28.6,18.8-27.6,18.2,27.6,18.2,27.6Z" class="color000000 svgShape"/><path d="M550.3,872.5h-37a1.2,1.2,0,0,1-1.3-1c-.1-.6-2.6-15.1,4.8-23.5,3.5-4,8.7-6,15.3-5.7s12.1,2.7,15.5,7c6.7,8.6,4.1,21.7,4,22.2A1.4,1.4,0,0,1,550.3,872.5ZM514.4,870h34.8c.5-3.2,1.3-12.8-3.6-19.1-2.9-3.7-7.5-5.8-13.6-6s-10.3,1.4-13.2,4.8C513.3,855.9,514,866.6,514.4,870Z" class="color000000 svgShape"/><path fill="#fff" d="M543.1,847.8h-.5c-12.2-6-21.4-.2-21.5-.1a1.3,1.3,0,1,1-1.4-2.2c.4-.3,10.6-6.7,24-.1a1.3,1.3,0,0,1,.6,1.8A1.4,1.4,0,0,1,543.1,847.8Z" class="colorffffff svgShape"/><path fill="#fff" d="M539.6,836.5l-.5-.2c-8.2-4-14.2-.2-14.5,0a1.4,1.4,0,0,1-1.8-.4,1.3,1.3,0,0,1,.4-1.8c.3-.2,7.5-4.7,17-.1a1.3,1.3,0,0,1,.6,1.7A1.3,1.3,0,0,1,539.6,836.5Z" class="colorffffff svgShape"/><path fill="#fff" d="M578.5,331.9s2.3,14.4-11.7,11c0,0-10.4,20.7-28.8,17.1s-17.6-37.1-17.6-37.1,11.9-34.9,12.4-35.1,27.3,5.5,28.8,6.3,11.3,8.5,11.3,11.3,3.7,17,3.7,18.7S578.5,331.9,578.5,331.9Z" class="colorffffff svgShape"/><path d="M542.3,361.7a23,23,0,0,1-4.5-.5c-19.3-3.8-18.8-36.9-18.7-38.3v-.4c.1-.1,3-8.8,6-17.5,6.4-18.1,6.5-18.2,7.3-18.4s.8-.3,14.7,2.7c5.2,1.1,14,3.1,15.1,3.7s12,8.5,12,12.4c0,1.5,1.2,6.8,2.2,11.1s1.5,6.7,1.5,7.6a40.2,40.2,0,0,0,1.9,7.4v.2c0,.3,1.1,7.2-2.9,10.9-2.2,2-5.3,2.6-9.4,1.8C565.4,348,556.5,361.7,542.3,361.7Zm-20.7-38.6c0,2.7.2,32.3,16.7,35.6s27.2-16.2,27.3-16.4a1.5,1.5,0,0,1,1.5-.7q5.5,1.3,8.1-.9c2.7-2.6,2.1-7.8,2-8.5s-1.9-6.4-1.9-8.1-.8-4.2-1.4-7c-1.3-5.8-2.2-10-2.2-11.7s-8.8-9.2-10.7-10.1-22.8-5.4-27.4-6.1C532,293,525.8,310.9,521.6,323.1Z" class="color000000 svgShape"/><path d="M572.1,266.4c6.7-2.5,14.1-2.2,21.2-.9,3.4.7,6.9,1.7,9.4,4.1,3.9,4,3.8,10.1,4.1,15.6a81.9,81.9,0,0,0,8.1,31.1,19.9,19.9,0,0,0,3.9,5.7,7.6,7.6,0,0,0,6.4,2c-5.2,3.5-11.8,4.5-18,3.6a45.5,45.5,0,0,1-17.2-7.1,78,78,0,0,1-27.4-31.2c-1.2-2.5-3.5-5.4-3.8-8.3s2-6.1,3.9-8.3A23.3,23.3,0,0,1,572.1,266.4Z" class="color000000 svgShape"/><path d="M611.6,329.2l-4.6-.3c-5.7-.9-11.5-3.3-17.7-7.3a78.4,78.4,0,0,1-15-12.8,82.1,82.1,0,0,1-12.9-18.9c-.3-.7-.7-1.4-1.1-2.2s-2.5-4.2-2.7-6.6,1-5.8,4.1-9.2a25.5,25.5,0,0,1,9.9-6.8h0c6.1-2.2,13.3-2.5,21.9-.8,3.4.6,7.3,1.7,10.1,4.4s4.2,9.9,4.4,15.1a6.6,6.6,0,0,1,.1,1.4,79.3,79.3,0,0,0,8,30.5,16.5,16.5,0,0,0,3.6,5.3,5.9,5.9,0,0,0,5.2,1.7,1.3,1.3,0,0,1,1,2.4A25.3,25.3,0,0,1,611.6,329.2Zm-28.3-63.4a30.6,30.6,0,0,0-10.8,1.8h0a21.6,21.6,0,0,0-8.9,6c-2.5,2.8-3.7,5.3-3.5,7.3a14.7,14.7,0,0,0,2.4,5.5l1.3,2.3a79.7,79.7,0,0,0,12.5,18.4,72.8,72.8,0,0,0,14.4,12.3c5.9,3.8,11.4,6.1,16.7,6.9a25.3,25.3,0,0,0,13.5-1.5,8.9,8.9,0,0,1-3-1.9,21.4,21.4,0,0,1-4.2-6.1,81.7,81.7,0,0,1-8.2-31.5V284c-.3-5-.5-10.2-3.8-13.4s-5.6-3.2-8.7-3.8A49.2,49.2,0,0,0,583.3,265.8Zm-11.2.6Z" class="color000000 svgShape"/><path d="M569.7,335.8l1.7-22.7s-28.2-1.5-37.6-18l-13.4,27.8s-5.6-52.2,43.7-39.5,14.4,48.5,14.4,48.5S575.3,324.4,569.7,335.8Z" class="color000000 svgShape"/><path d="M569.7,337.1h-.4a1.1,1.1,0,0,1-.9-1.3l1.6-21.4c-5.5-.5-26.7-3.3-36.1-16.6l-12.4,25.8a1.3,1.3,0,0,1-2.4-.5c-.1-.9-2.5-24.4,11.3-36.3,7.9-6.8,19.3-8.4,34-4.6s24.2,10.4,26.7,19.4c4.2,14.9-11,30.7-11.7,31.3a1.2,1.2,0,0,1-1.1.4,1.8,1.8,0,0,1-1-.7c-.2-.5-.9-1.7-1.8-1.7s-2.1.4-4.7,5.5A1.2,1.2,0,0,1,569.7,337.1Zm-35.9-43.3a1.1,1.1,0,0,1,1.1.6c9,15.7,36.3,17.4,36.6,17.4a1.2,1.2,0,0,1,.9.5,1.4,1.4,0,0,1,.3.9l-1.3,17.4a5.5,5.5,0,0,1,4.1-2.4h.1a4.5,4.5,0,0,1,3.1,1.6c3.3-3.9,13.1-16.4,9.9-27.6-2.3-8-10.6-13.9-24.8-17.6s-24.5-2.2-31.7,4c-9,7.8-10.5,21.5-10.6,29l11.1-23.1a1.4,1.4,0,0,1,1.1-.7Z" class="color000000 svgShape"/><circle cx="469.1" cy="297.9" r="20.4" class="color000000 svgShape"/><path d="M469.1,319.6a21.8,21.8,0,1,1,21.7-21.7A21.8,21.8,0,0,1,469.1,319.6Zm0-40.9a19.2,19.2,0,1,0,19.1,19.2A19.2,19.2,0,0,0,469.1,278.7Z" class="color000000 svgShape"/><path fill="#fff" d="M460.9,316.4l-20.7,52.8,56.7-16.6s8.9,30.1-11.8,35.7c0,0-60.5,23.1-70.3,12.2s33.1-87.3,33.1-87.3-10.6-23.4-2-29.5,11.6,2.7,11.6,2.7,12.8-2.3,14.6,4.6S467.5,312.5,460.9,316.4Z" class="colorffffff svgShape"/><path d="M425.3,404.7c-5.6,0-9.4-1.1-11.4-3.4s-2.4-9.2.7-19.5a255.6,255.6,0,0,1,11.9-29.6c8.6-18.3,18.2-35.7,20-39-1.7-3.9-10-24.5-1.3-30.6,3.1-2.1,5.9-2.8,8.4-2a8.3,8.3,0,0,1,4.6,4.4c3.3-.4,13.4-1.1,15.2,5.7s-4.4,22-11.4,26.6l-19.7,49.9,54.2-15.9a1.3,1.3,0,0,1,1.6.9c.3.7,5.1,17.4-1.2,28.6a17.8,17.8,0,0,1-11.4,8.7c-1.1.4-15.8,6-31.5,10.2C441.6,403.1,432.1,404.7,425.3,404.7Zm26.2-121.8a8.4,8.4,0,0,0-4.8,1.9c-6.4,4.4-.4,21.6,2.4,27.9a1.3,1.3,0,0,1,0,1.2c-.1.1-10.8,19.2-20.2,39.4-16.2,34.9-15.2,44-13.1,46.3,7.5,8.4,52.2-6.2,68.8-12.6h.2a15.8,15.8,0,0,0,9.9-7.5c4.8-8.6,2.2-21.3,1.3-25.3l-55.5,16.2a1.3,1.3,0,0,1-1.3-.3,1.4,1.4,0,0,1-.2-1.4l20.7-52.8a.9.9,0,0,1,.6-.6c6-3.6,12.3-17.7,10.6-23.9s-13.1-3.7-13.2-3.7a1.3,1.3,0,0,1-1.5-.9s-1-2.9-3.4-3.7A3,3,0,0,0,451.5,282.9Z" class="color000000 svgShape"/><path fill="#fff" d="M427,293.1h29.5a3.6,3.6,0,0,1,3.6,3.6v0a3.6,3.6,0,0,1-3.6,3.6H427a0,0,0,0,1,0,0v-7.3A0,0,0,0,1,427,293.1Z" class="colorffffff svgShape"/><path d="M456.5,301.7H427a1.3,1.3,0,0,1-1.3-1.3v-7.3a1.3,1.3,0,0,1,1.3-1.3h29.5a4.9,4.9,0,0,1,4.9,4.9A5,5,0,0,1,456.5,301.7Zm-28.2-2.6h28.2a2.3,2.3,0,0,0,2.3-2.4,2.3,2.3,0,0,0-2.3-2.3H428.3Z" class="color000000 svgShape"/><circle cx="428.2" cy="297.9" r="20.4" class="color000000 svgShape"/><path d="M428.2,319.6a21.8,21.8,0,1,1,21.7-21.7A21.8,21.8,0,0,1,428.2,319.6Zm0-40.9a19.2,19.2,0,1,0,19.1,19.2A19.2,19.2,0,0,0,428.2,278.7Z" class="color000000 svgShape"/><circle cx="421.3" cy="297.9" r="20.4" fill="#fff" class="colorffffff svgShape"/><path d="M421.3,319.6a21.8,21.8,0,1,1,21.8-21.7A21.8,21.8,0,0,1,421.3,319.6Zm0-40.9a19.2,19.2,0,1,0,19.2,19.2A19.2,19.2,0,0,0,421.3,278.7Z" class="color000000 svgShape"/><circle cx="417.8" cy="297.4" r="6.2" fill="#fff" class="colorffffff svgShape"/><path d="M417.8,304.9a7.6,7.6,0,1,1,7.5-7.5A7.5,7.5,0,0,1,417.8,304.9Zm0-12.5a5,5,0,0,0-4.9,5,4.9,4.9,0,0,0,9.8,0A5,5,0,0,0,417.8,292.4Z" class="color000000 svgShape"/><path fill="#fff" d="M452.1,305.9s0-11,6.6-10,7.1,6,6.7,6.7-3.8,2.8-5.2,3.3S452.1,305.9,452.1,305.9Z" class="colorffffff svgShape"/><path d="M452.1,307.7a1.3,1.3,0,0,1-1.3-1.3c0-4,1.2-7.2,3.5-9.4a11.8,11.8,0,0,1,5.1-2.6,8.4,8.4,0,0,1-3.2-8.3,1.3,1.3,0,1,1,2.5.7c-.1.5-1,5.1,5.6,7.2a1.3,1.3,0,0,1,.9,1.5,1.2,1.2,0,0,1-1.4,1s-4.7-.4-7.7,2.4-2.7,4.2-2.7,7.5a1.3,1.3,0,0,1-1.3,1.3Z" class="color000000 svgShape"/></svg>