<svg xmlns="http://www.w3.org/2000/svg" viewBox="0 0 2000 2000"><defs><clipPath id="a"><rect width="587.64" height="1018.25" x="1016.47" y="154.23" fill="#86ebf9" rx="6.25"/></clipPath></defs><rect width="648.69" height="1079.3" x="985.95" y="123.7" fill="#40c2d6" rx="60.76"/><rect width="587.64" height="1018.25" x="1016.47" y="154.23" fill="#86ebf9" rx="6.25"/><g clip-path="url(#a)"><rect width="587.64" height="1018.25" x="1016.47" y="154.23" fill="#86ebf9" rx="6.25"/><rect width="665.96" height="140.34" x="991.57" y="117.69" fill="#86ebf9"/></g><circle cx="1067.67" cy="201.63" r="12.28" fill="#fff"/><circle cx="1114.65" cy="201.63" r="12.28" fill="#fff"/><circle cx="1161.63" cy="201.63" r="12.28" fill="#fff"/><rect width="226.4" height="219.35" x="1067.67" y="298.35" fill="#fff" rx="2.03"/><rect width="232.77" height="12.72" x="1324.6" y="354.27" fill="#fff" rx="1.32"/><rect width="232.77" height="12.72" x="1324.6" y="390.52" fill="#fff" rx="1.32"/><rect width="232.77" height="12.72" x="1324.6" y="426.77" fill="#fff" rx="1.32"/><rect width="226.4" height="219.35" x="1067.67" y="606.51" fill="#fff" rx="2.03"/><rect width="232.77" height="12.72" x="1324.6" y="662.42" fill="#fff" rx="1.32"/><rect width="232.77" height="12.72" x="1324.6" y="698.67" fill="#fff" rx="1.32"/><rect width="232.77" height="12.72" x="1324.6" y="734.92" fill="#fff" rx="1.32"/><rect width="226.4" height="219.35" x="1067.67" y="914.66" fill="#fff" rx="2.03"/><rect width="232.77" height="12.72" x="1324.6" y="970.58" fill="#fff" rx="1.32"/><rect width="232.77" height="12.72" x="1324.6" y="1006.83" fill="#fff" rx="1.32"/><rect width="232.77" height="12.72" x="1324.6" y="1043.08" fill="#fff" rx="1.32"/><path fill="#40c2d6" d="M1167.34,365.42a47.6,47.6,0,0,1,9.66-24.09c18-22.68,50.76-17.68,52.35-17.41A62.15,62.15,0,0,1,1213,349C1194.92,365.62,1172.68,365.57,1167.34,365.42Z"/><path fill="#40c2d6" d="M1170.14,396h-.06a2,2,0,0,1-1.94-2.07c1.17-38.8-18.6-60.69-18.8-60.9a2,2,0,0,1,2.94-2.72c.86.94,21.08,23.33,19.86,63.75A2,2,0,0,1,1170.14,396Z"/><path fill="#86ebf9" d="M1169.57,383.22c-1-1.85-9.81-17.38-27.19-19.55a34.6,34.6,0,0,0-27.19,8.74c-19.35,17.88-10,56.29,0,75.68,12.72,24.81,31.17,47.18,57.88,27.73a31.66,31.66,0,0,0,9.85,5.77c10.68,3.91,20.66-1.13,23.22-2.33,18-8.52,22.47-33.83,26.87-58.83,3.71-21.12,5.43-31.87-.8-41.66-7.34-11.52-23.88-20.85-40.23-16.06C1177,367.12,1170.57,381,1169.57,383.22Z"/><path fill="#86ebf9" d="M1167.29,738.14c11.13,7,15.28,17.91,19.16,28.11a90.88,90.88,0,0,1,5.85,32.68,37.4,37.4,0,0,0,17.54.29c13.68-3.12,21.09-13.21,23-16,0,0-16.16-29.43-20-42.84s10.91-39.75,10.91-39.75l-10.29-5.28-15.18,21.76-10.9-20.59L1176,704.3l4,22.74-22.46-9.28-9.26,14.51A40.18,40.18,0,0,1,1167.29,738.14Z"/><path fill="#40c2d6" d="M1119.79,730.23A9.26,9.26,0,0,0,1124.3,741c4.32,2.12,10.14.08,12.35-4.93,0,0,4.31,13.79,18.78,5.57s6.16-22.17,6.16-22.17c4.37,1.66,9,.33,11.14-2.88a8.89,8.89,0,0,0,.88-7.16c.77.44,6.94,3.88,13.91,1.1,8.32-3.31,9.79-12.32,9.84-12.7a14.09,14.09,0,0,0,4.92,4.68c6.37,3.55,13.25.49,14.14.08,0,0,5.91,12.32,16.37,3.92s4.63-17.55,4.63-17.55c8.86-2.77,14-11.66,12.23-19.76-2-9.18-12.35-15.47-22.49-12.26,1-11-6.65-20.31-15.93-21.4-7.27-.85-14.8,3.42-18.53,10.74-4.14-10.53-14.93-15.94-24-13.36-6.67,1.89-11.79,7.91-13.37,15.34-8.58-10-22.87-10.79-30.92-3.64-6.17,5.47-8.18,15.19-4.69,24,0,0-18.56,2.07-12.79,16.68-8.07,1.4-14.45,7-16.17,14.09-.15.65-2.36,10.48,4.44,16.19a15.25,15.25,0,0,0,10.26,3.29,9.49,9.49,0,0,0,14.34,11.4Z"/><path fill="#86ebf9" d="M1145.43,1040.1l-31,42.79c-9.17-2-16.77,1.63-17.88,5.73-1.2,4.37,4.23,12.21,14.78,14.3-.21.91-1.07,5.11,1.43,8.59,3.33,4.63,10.58,5.14,14.55,2.39,4.86-3.36,6.16-12.52.24-19.56l33.87-37Z"/><path fill="#40c2d6" d="M1135.53,959.63s-17.17,32-12.08,60.18-4.45,42.21,12.08,53.66,70.59-1.16,94.76-34.92,12.72-57.29-7.63-78.92S1154.61,928.47,1135.53,959.63Z"/><ellipse cx="1191.6" cy="982.58" fill="#86ebf9" rx="31.48" ry="53.26" transform="rotate(-56 1191.247 980.42)"/><ellipse cx="1196.43" cy="984.35" fill="#40c2d6" rx="8.88" ry="13.23" transform="rotate(-54.72 1196.527 984.377)"/><rect width="70.61" height="215.91" x="1522.06" y="100" fill="#e73f46" rx="1.94"/><rect width="70.61" height="215.91" x="1522.06" y="100" fill="#e73f46" rx="1.94" transform="rotate(-90 1557.365 207.955)"/><path fill="#1d0a03" d="M710.6,1733.76q5.94,78.49,11.89,157a10,10,0,0,0,10,9.26H925a10,10,0,0,0,7.78-16.35,153.07,153.07,0,0,0-14-15.11,155.73,155.73,0,0,0-54.49-33.21,10.06,10.06,0,0,1-6.74-9.48l.15-107.71a10,10,0,0,0-11.17-10l-127.11,14.88A10,10,0,0,0,710.6,1733.76Z"/><path fill="#1d0a03" d="M424.09,1628.36l-88.23,164.89a10,10,0,0,0,2.3,12.32L444.45,1897a10,10,0,0,0,6.53,2.42h50.14a10,10,0,0,0,9.58-12.93l-20.36-66.84a10.06,10.06,0,0,1,.48-7.1q31.37-68.22,62.72-136.43a10,10,0,0,0-5.81-13.64l-111.51-38.89A10,10,0,0,0,424.09,1628.36Z"/><rect width="101" height="153.88" x="618.64" y="269.12" fill="#fc9c86"/><path fill="#fc9c86" d="M766.16,271.12c-.24,36.28-5,75.6-35.84,79.8-47.2,6.48-131.84-63-138.32-110.2a86.26,86.26,0,0,1,170.92-23.44,333.29,333.29,0,0,1,3.12,38.2C766.12,260.56,766.2,265.8,766.16,271.12Z"/><path fill="#1d0a03" d="M745.92,233.84a4.52,4.52,0,1,1-5.08-3.88A4.55,4.55,0,0,1,745.92,233.84Z"/><path fill="#1d0a03" d="M757.2,210.08c-.12,2.76-7.8-2.52-19-1.68-6.44.48-15.32,2.92-16.64.28-2.56-5.12,4.88-9.4,15.08-9.52C747.8,199,757.28,207.36,757.2,210.08Z"/><path fill="#1d0a03" d="M687,241.92A4.46,4.46,0,0,1,683.2,247a4.52,4.52,0,1,1,3.84-5.08Z"/><path fill="#1d0a03" d="M692.48,215.76c-.76,2.84-9.92,2.36-16.32,3.28-11.12,1.6-17.52,8.36-18.2,5.72s6.8-12.8,17.76-15C685.72,207.64,693.88,210.2,692.48,215.76Z"/><path fill="#1d0a03" d="M720.32,275.08a1.5,1.5,0,0,1-.44,0,2,2,0,0,1-2-1.56c0-.24-5.44-23.76-7.4-38a2,2,0,0,1,1.72-2.24,2,2,0,0,1,2.24,1.72c1.92,14,7.28,37.36,7.36,37.6A2,2,0,0,1,720.32,275.08Z"/><path fill="#fecd50" d="M785.71,760.71a13.53,13.53,0,0,1,13.77,11.56c22,151.68,40.31,315,52.41,488.9,12.22,175.45,16.69,341.15,15.8,495.63a13.53,13.53,0,0,1-12.15,13.36l-136.76,14.25a13.54,13.54,0,0,1-14.89-12.21C684,1558.13,682,1467.41,685.47,1428a608.38,608.38,0,0,0,.47-107.38c-.82-9.8-2.34-25.24-5.39-44.76-15.55-99.29-59.41-231.11-78.79-338.09A937.45,937.45,0,0,1,587,779.34a13.57,13.57,0,0,1,13.19-13.75Z"/><path fill="#fecd50" d="M565.3,736a13.5,13.5,0,0,0-13,5.92,330.48,330.48,0,0,0-39.21,81.75c-13.3,41.76-15.39,77.63-12,160.59,7.08,172.29,24.64,225.88-.66,324-1.23,4.77-2.39,9-3.55,12.94-5,17.1-9.42,29.41-10.17,31.51-4.2,11.77-29.14,90.56-106.23,338.79a13.58,13.58,0,0,0,6.3,15.85l120.77,67.85a13.55,13.55,0,0,0,19.09-6.48c40.49-94.6,71.3-175.73,94-239.2,32.52-91,51.3-154.17,66.29-226.19,1.41-6.77,3.83-17.44,6.12-31,7.83-46.64,11.29-106.17,17.86-282.38,2.53-67.86,5.11-141.93,7.61-221.55a13.59,13.59,0,0,0-11.79-13.89Z"/><path fill="#fc9c86" d="M703.57,380.94s70.51,2.59,99.14,58.2S889.37,597.5,889.37,597.5l143.85-94.7,37.08,50S976.81,691.39,896.22,697.84s-139-132.15-139-132.15S642.78,460.11,703.57,380.94Z"/><path fill="#1d0a03" d="M719.64,351.36v22.8s-41.76-8.44-69.72-55C651.68,320.76,680.12,346.76,719.64,351.36Z"/><path fill="#287eef" d="M508.59,841.94a19.89,19.89,0,0,1-10.26-23.81c3.37-10.83,7.33-24.14,11.45-39.3,61.88-227.47,13.46-329,78.92-378.66,48.22-36.59,132.44-25.45,171.68,12.94,28.13,27.52,30.64,66.58,32.1,89.12C798.94,601.66,806.73,713,814.69,840a20,20,0,0,1-13.5,20.2,384.27,384.27,0,0,1-292.6-18.3Z"/><path fill="#fc9c86" d="M657.92,375.39S584.26,370.56,553.27,423s-140.6,252.36-98.69,312,184.29-17.76,282.34-95.13L712.52,584,553.27,636.59l55.25-129S718.09,467.67,657.92,375.39Z"/><path fill="#287eef" d="M695.08,386.64a11.42,11.42,0,0,0-8.35-7.32c-69.09-14.28-106,6.39-119.33,15.49-23,15.68-41.18,48.81-76.56,114.44-12.21,22.66-22.27,42.49-29.94,58.06a11.32,11.32,0,0,0,4.7,15,358.92,358.92,0,0,0,94.73,35.57,11.36,11.36,0,0,0,12.61-6l34.77-69.52a11.18,11.18,0,0,1,3.92-4.41C628.39,527,722.44,461.75,695.08,386.64Z"/><path fill="#287eef" d="M691.73,394.24A11.39,11.39,0,0,1,702,377.33c40.23.69,63.8,12.93,78.2,24.74,25,20.51,28.33,44.65,63.66,104,12.69,21.3,24.54,38.79,33.66,51.59a11.3,11.3,0,0,1-1.58,14.9l-71.8,66.22A11.36,11.36,0,0,1,785.36,633l-29-122.22a11.4,11.4,0,0,0-1.13-2.92Z"/><path fill="#1d0a03" d="M686.88,1305.35a2.28,2.28,0,0,1-.44,0,2,2,0,0,1-1.51-2.4c11.32-49.66,21.36-246.93,21.46-248.92a2.26,2.26,0,0,1,.08-.44l19-67.73a2,2,0,1,1,3.85,1.09l-19,67.51c-.4,7.73-10.33,200.14-21.55,249.38A2,2,0,0,1,686.88,1305.35Z"/><path fill="#fc9c86" d="M719.64,378.44c0,.24-.08,33.28-41.6,34.12-41.68.8-59.4-36.56-59.4-36.56a51.26,51.26,0,0,1,37.44-16.36C680,359.64,719.64,378.44,719.64,378.44Z"/><path fill="#1d0a03" d="M800.31,609.57a2,2,0,0,1-2-1.82L786.23,467.52a2,2,0,1,1,4-.35L802.31,607.4a2,2,0,0,1-1.82,2.17Z"/><path fill="#1d0a03" d="M565.7,609.57a1.89,1.89,0,0,1-.77-.15,2,2,0,0,1-1.08-2.61l35.56-85.43a1.93,1.93,0,0,1,.51-.72l23.37-20.95a2,2,0,1,1,2.67,3l-23,20.65-35.39,85A2,2,0,0,1,565.7,609.57Z"/><path fill="#1d0a03" d="M524.29,667.2a2,2,0,0,1-1.41-3.43l29-28.61a2,2,0,0,1,2.81,2.85l-29,28.61A2,2,0,0,1,524.29,667.2Z"/><path fill="#1d0a03" d="M878,643.76a1.66,1.66,0,0,1-.49-.07,2,2,0,0,1-1.45-2.43L887.43,597a2,2,0,1,1,3.88,1L880,642.25A2,2,0,0,1,878,643.76Z"/><path fill="#1d0a03" d="M732.52,294.68c-1.44,7.72-6.76,13.92-13.32,15.4-9.08,2.12-20-4.88-22.36-16.92a38.42,38.42,0,0,0,35.68,1.52Z"/><path fill="#1d0a03" d="M766.16,164.32c.08,25.8-9,31.72-9,31.72-7.64-15.12-15.84-22-23.76-24.92-3.16-1.2-15.12-6-25-.76-4,2.08-3.36,3.52-6.76,5-9,3.72-16.16-5.24-28.08-5.76-7-.32-15.32,2.32-20.56,7.24-13.48,12.68-.88,34.68-14.52,58.64a36.46,36.46,0,0,1-9.6,11.32,37.88,37.88,0,0,1-20.4,7.48c5.08,3.68,18.24,14.28,21.56,32,1,5.44,2.8,15.12-2.44,21.16-7.8,9-27.24,5.4-38.08.6C546.24,288.88,530,202.12,556.92,181c5.28-4.12,11.64-5.28,16.92-5.44-.64-13.52,3.16-22.28,6-27.2,13.88-23.48,51.4-33.16,92.68-21.56,0,0-8.84-13.28,12.12-17.72,20.32-4.32,41,22.16,42.24,23.68-.32-1.28-4.36-17.64,5.68-18C743.08,114.36,766.08,138.52,766.16,164.32Z"/><path fill="#fc9c86" d="M589.77,273.86c7.43,13,22.12,18.54,32.8,12.42s13.31-21.6,5.88-34.57-22.11-18.54-32.8-12.42-13.31,21.59-5.88,34.57Z"/><path fill="#1d0a03" d="M623.84,272.36a2,2,0,0,1-2,2c-3,0-9-1.72-10.56-8.16-1-4.2,2.56-7.08,5.88-8.68-2.56-3.6-8.56-10.68-14.84-9.52-6.12,1.16-5.12,8-5,8.8a2,2,0,0,1-1.64,2.28,2,2,0,0,1-2.32-1.6c-.68-4,.12-11.88,8.2-13.4,11.12-2.08,20,12.76,20.36,13.4a2,2,0,0,1-1.12,2.92c-1.36.4-6.2,2.4-5.64,4.88,1.16,5,6.48,5.08,6.68,5.08A2,2,0,0,1,623.84,272.36Z"/><path fill="#fc9c86" d="M1149.4,501.61c-1.27-5.12-7.74-9.36-11.08-7.66,6-5.13,6.07-11.21,4.54-14.56-1.19-2.61-7.52-7-13.87-4.34,3.3-4,2.4-9.47-1.78-14.67-3.44-4.29-10.52-2.69-16.82.56,5.44-6.34,7.43-9.77,11.38-14.4,8.8-10.33,22-22.65,13-29.76-5.08-4-19.87,12.44-32.59,23.75-11.5,10.21-21.55,20.82-21.55,20.82s15.17-29.42,3.46-33.72c-8.71-3.21-10.23,8-17.25,14.78a100.31,100.31,0,0,0-8.68,9.52c-6,7.52-8.9,12-12.73,21s-4.57,28.53,7.64,44.05c15.54,19.74,46,21.33,63.77,14.27,6.45-2.57,13.92-5.82,27.29-18.4C1147.06,510.09,1150.38,505.59,1149.4,501.61Z"/><path fill="#fc9c86" d="M1045.46,474.31s-4.8,17.3-23.38,39.88c1.23,16.47,36.82,51.29,42.34,46.71s13.76-12.92,21.16-18.14c8.15-5.77,19.16-6.49,31.24-11.49C1148.67,506.15,1060.54,436,1045.46,474.31Z"/><path fill="#1d0a03" d="M1110.63,489.61a2,2,0,0,1-1.79-1.13l-.18-.44a2.11,2.11,0,0,1,1.07-2.68,1.88,1.88,0,0,1,2.54.94l-1.74,1,1.93-.56a2,2,0,0,1-1,2.65A2.1,2.1,0,0,1,1110.63,489.61Z"/><path fill="#1d0a03" d="M1087.5,496.38a2,2,0,0,1-1-.27,2,2,0,0,1-.73-2.73c4.62-8-3.41-25.08-6.89-31a2,2,0,0,1,3.45-2c.56.95,13.63,23.42,6.9,35A2,2,0,0,1,1087.5,496.38Z"/><path fill="#1d0a03" d="M1122.08,522.76c-3.78,0-7.54-1.07-9.89-4.53a5.67,5.67,0,0,1-.74-4.69c.8-3.19,4.18-6.75,8.26-10-5.59,1.61-11.09,2.47-14.57,1.2a6.13,6.13,0,0,1-3.65-3.33c-1.55-3.61.37-7.56,3.69-11.24-5.15,1.45-10,1.6-12.8-1.18a6.23,6.23,0,0,1-1.83-4.79c.31-8.95,16.68-23.16,18.54-24.75a2,2,0,1,1,2.6,3c-4.7,4-16.93,15.75-17.14,21.85a2.21,2.21,0,0,0,.63,1.8c3,2.93,12.56-.51,21.24-5.11,3.48-2.28,6.56-4,8-4.71a2,2,0,0,1,2,3.44c-1.32.87-4.29,2.76-8,4.76-7.84,5.21-14.86,11.6-13.27,15.32a2.12,2.12,0,0,0,1.36,1.14c6.25,2.29,24.43-5.56,30.91-8.78a2,2,0,0,1,1.82,3.56c-8.55,4.48-22.61,13.54-23.93,18.79a1.68,1.68,0,0,0,.18,1.46c4.11,6.06,17.15.33,17.29.27a2,2,0,1,1,1.66,3.64A34.08,34.08,0,0,1,1122.08,522.76Z"/><path fill="#1d0a03" d="M538.79,1305.35a2,2,0,0,1-1.44-.62l-30.5-32a2,2,0,0,1,2.9-2.76l30.49,32a2,2,0,0,1-1.45,3.38Z"/><path fill="#1d0a03" d="M707.37,667.11a2,2,0,0,1-1.81-1.14L671.37,594.4a2,2,0,0,1,3.61-1.72l34.19,71.57a2,2,0,0,1-.94,2.67A2,2,0,0,1,707.37,667.11Z"/><circle cx="685.77" cy="629.33" r="29.6" fill="#fecd50"/><rect width="102.46" height="181.04" x="749.09" y="501.19" fill="#1d0a03" rx="2.56"/><path fill="#fc9c86" d="M817.21,609.29c-6.86,1.52-14.6,2.76-22.37,2.28,4.17-1.65,12.51-4.32,20.81-7.57,12-4.69,24.94-8.49,22.9-16.27-1.21-4.6-12.1-2.13-24.27.69-8.53,2-17.5,4.09-23.63,3.94,6.77-2.54,9.71-4.32,14.63-6.19,9.47-3.6,22.07-7.33,22.84-13.84a5.19,5.19,0,0,0-.59-3.34c-3.52-5.72-19.21.47-35.48,1.61-8.69.61-20.89,0-36-5.44.08-2,.71-24.33-12.39-31.13-1.56-.81-5.28-2.73-7.86-1.2-5.42,3.21,2.92,16.53-1.21,29-6,18.28-34,20.12-33.24,29.31.6,7.3,18.29,7.19,22.39,19.86,2.33,7.2-2.5,10-.63,16.71,4.15,15,32.91,19.2,43.08,20.69a117.55,117.55,0,0,0,40.46-2.64c13.2-3.15,23.41-8.67,23.35-12.93-.06-5.3-9.14-2.67-17.54-2.25a45.76,45.76,0,0,1-14.41-1.54c6.67-1.41,17.81-4,25-6.74,11.41-4.38,15.68-8.45,13.38-13.59C834.8,604.93,830.44,606.34,817.21,609.29Z"/><path fill="#fff" d="M623.84,178.76c0,.48-3.88,46.88-43.64,53.16h-.32a2,2,0,0,1-.32-4c36.64-5.8,40.16-47.72,40.28-49.48a1.94,1.94,0,0,1,2.16-1.84A2,2,0,0,1,623.84,178.76Z"/><path fill="#fff" d="M583.51,213.1a23.17,23.17,0,0,1-4-.36,2,2,0,0,1,.7-3.94c15.67,2.79,22.89-15,23.19-15.8a2,2,0,0,1,3.73,1.46C607.07,194.67,599.65,213.1,583.51,213.1Z"/><path fill="#fff" d="M752,168.24a1.91,1.91,0,0,1-1.64.92,2,2,0,0,1-1.12-.36,2,2,0,0,1-.56-2.76c8.72-13.12-4.08-28.28-4.24-28.44a2,2,0,0,1,3-2.6C748.08,135.72,762.4,152.68,752,168.24Z"/><path fill="#fff" d="M733.6,161.2a2,2,0,0,1-2,1.88h-.08A2,2,0,0,1,729.6,161c.84-17.48-16.84-22.56-17.6-22.76a2,2,0,1,1,1-3.84C713.24,134.44,734.6,140.48,733.6,161.2Z"/><path fill="#fff" d="M487.22,1820.06h-.16l-32.23-2.41a2,2,0,0,1-1.85-2.15,2,2,0,0,1,2.15-1.84l32.24,2.42a2,2,0,0,1-.15,4Z"/><path fill="#fff" d="M822.8,1847.06a2,2,0,0,1-.77-3.85l35.74-14.89a2,2,0,1,1,1.53,3.69l-35.73,14.89A1.9,1.9,0,0,1,822.8,1847.06Z"/><rect width="181.25" height="44.84" x="1219.67" y="136.77" fill="#fff" rx="1.82"/></svg>